<svg xmlns="http://www.w3.org/2000/svg" width="33.941" height="33.941" viewBox="0 0 33.941 33.941">
    <path data-name="Path 12978" d="M0 0h24v24H0z" style="fill:none" transform="rotate(-45 20.486 8.486)"/>
    <path data-name="Path 12979" d="m24.395 15.203-8.132 8.132a4 4 0 0 1-5.656-5.657l8.838-8.839a2.5 2.5 0 0 1 3.536 3.536l-7.425 7.424a1 1 0 0 1-1.414-1.414l6.718-6.717-1.061-1.061-6.718 6.718a2.5 2.5 0 0 0 3.536 3.535l7.425-7.425a4 4 0 0 0-5.657-5.656l-8.84 8.838a5.5 5.5 0 0 0 7.78 7.779l8.13-8.132z"/>
</svg>
