<svg id="ic-attachment-48px" xmlns="http://www.w3.org/2000/svg" width="25.969" height="25.969" viewBox="0 0 25.969 25.969">
  <defs>
    <style>
      .cls-1 {
        fill: none;
      }
    </style>
  </defs>
  <path id="Path_13150" data-name="Path 13150" d="M9.951,25.9a5.951,5.951,0,0,1,0-11.9H21.313a4.328,4.328,0,0,1,0,8.656h-9.2a2.705,2.705,0,0,1,0-5.41H20.23v1.623H12.115a1.082,1.082,0,0,0,0,2.164h9.2a2.705,2.705,0,0,0,0-5.41H9.951a4.328,4.328,0,0,0,0,8.656H20.23V25.9Z" transform="translate(-1.836 -6.426)"/>
  <path id="Path_13151" data-name="Path 13151" class="cls-1" d="M0,0H25.969V25.969H0Z"/>
</svg>
