<svg xmlns="http://www.w3.org/2000/svg" width="20" height="20" viewBox="0 0 20 20">
    <path data-name="Path 13250" d="M9.707 14.293a1 1 0 1 0-1.414 1.414l2 2a1 1 0 0 0 1.414 0l4-4a1 1 0 0 0-1.414-1.414L11 15.586z" style="fill:currentColor" transform="translate(-2 -2)"/>
    <path data-name="Path 13251" d="M8 3a1 1 0 0 0-2 0v1.1A5 5 0 0 0 2 9v8a5 5 0 0 0 5 5h10a5 5 0 0 0 5-5V9a5 5 0 0 0-4-4.9V3a1 1 0 0 0-2 0v1H8zm11.829 5A3 3 0 0 0 17 6H7a3 3 0 0 0-2.764 1.832Q4.2 7.915 4.171 8zM4 10h16v7a3 3 0 0 1-3 3H7a3 3 0 0 1-3-3z" style="fill-rule:evenodd;fill:currentColor" transform="translate(-2 -2)"/>
</svg>
