<svg xmlns="http://www.w3.org/2000/svg" width="19.471" height="24" viewBox="0 0 19.471 24">
    <path data-name="16-bell" d="M12 0a1 1 0 0 1 1 1v1.071A7 7 0 0 1 19 9v1.1a7 7 0 0 0 1.622 4.481l.412.495A3 3 0 0 1 18.73 20H16a4 4 0 0 1-8 0H5.27a3 3 0 0 1-2.3-4.921l.412-.495A7 7 0 0 0 5 10.1V9a7 7 0 0 1 6-6.929V1a1 1 0 0 1 1-1zm-2 20a2 2 0 0 0 4 0zm-4.73-2a1 1 0 0 1-.77-1.64l.412-.495A9 9 0 0 0 7 10.1V9a5 5 0 0 1 10 0v1.1a9 9 0 0 0 2.086 5.762l.412.495A1 1 0 0 1 18.73 18z" transform="translate(-2.264)" style="fill-rule:evenodd"/>
</svg>
