<svg xmlns="http://www.w3.org/2000/svg" width="1076.999" height="391.322" viewBox="0 0 1076.999 391.322">
    <g data-name="Group 6552">
        <g data-name="chatting using apps">
            <g data-name="Group 6013">
                <g data-name="Group 6012">
                    <path data-name="Path 11564" d="M186.042 858.031c26.905-12.969 57.846-7.812 86.136-2.925 15.075 2.617 30.11 5.041 45.382 6.273a380.766 380.766 0 0 0 49.141.847c31.693-1.539 62.831-7.62 94.088-12.661 31.257-5 63.148-8.928 94.8-5.272 30.822 3.579 60.892 16.239 92.308 13.7a88.047 88.047 0 0 0 10.485-1.462c.752-.154.435-1.27-.317-1.116-31.613 6.234-62.673-6.08-93.495-11.044-30.862-4.964-62.238-2.232-92.941 2.347-31.89 4.733-63.5 11.429-95.711 13.776-32.484 2.348-64.81.116-96.858-5.387-27.419-4.733-57.015-10.967-84.236-1.924a82.173 82.173 0 0 0-9.377 3.81.6.6 0 0 0 .594 1.039z" transform="translate(353.282 -561.374)" style="fill:#e8e8e8"/>
                </g>
            </g>
            <g data-name="Group 6015">
                <g data-name="Group 6014">
                    <path data-name="Path 11565" d="M1117.929 924.927c-1.424-3-9.582-22.4-2.155-21.935a.554.554 0 0 0 .539-.731 50.58 50.58 0 0 1 .385-18.164 48.875 48.875 0 0 1 2.424-8.081c.924-2.348 3.117-9.005 6.658-5.888 2.155 1.924 1.924 6.08 2.155 8.7.231 3.079.346 6.157.346 9.274a116.313 116.313 0 0 1-1.616 18.625c-.577 3.271-1.27 6.542-2.117 9.736-.462 1.732-.962 3.425-1.462 5.118-.5 1.539-.885 3.887-2.656 4.464-.693.231-.385 1.347.308 1.116 2.463-.847 3-3.771 3.656-5.965a119.095 119.095 0 0 0 2.809-11.044 115.907 115.907 0 0 0 2.232-22.474c0-3.925-.192-7.85-.577-11.737-.269-2.463-.462-5.464-2.694-7.042-5.349-3.771-8.2 6.581-9.236 9.928a51.358 51.358 0 0 0-1.693 23.667 8.706 8.706 0 0 0 .539-.731c-4.618-.269-4.5 5.234-3.925 8.312a62.02 62.02 0 0 0 5.08 15.354c.346.77 1.308.154 1-.5z" transform="translate(-207.245 -575.449)" style="fill:#e8e8e8"/>
                </g>
            </g>
            <g data-name="Group 6017">
                <g data-name="Group 6016">
                    <path data-name="Path 11566" d="M1156.351 901.9a23.812 23.812 0 0 1 .885-7.735 25.658 25.658 0 0 1 1.347-3.617 20.78 20.78 0 0 1 .846-1.578c.192-.269.423-.5.616-.77 1.154-1.154 2.116-.962 2.848.616a.579.579 0 0 0 1.116.308c.769-2.54 2.27-5.7 5.349-5.849 3.271-.154 4.156 3.156 4.272 5.772a48.559 48.559 0 0 1-1.924 15.047c-2.694 9.89-7.658 19.01-12.584 27.976-.347.654.654 1.232 1 .577 6.119-11.16 12.43-22.743 14.2-35.481a40.714 40.714 0 0 0 .423-8.658c-.154-2-.693-4.233-2.386-5.5a5.167 5.167 0 0 0-5.5-.154c-2.194 1.232-3.31 3.617-4 5.926.385.116.731.192 1.116.308a2.346 2.346 0 0 0-1.886-2.732 3.5 3.5 0 0 0-3.54 1.77c-2.732 3.81-3.579 9.2-3.386 13.738.039.77 1.193.77 1.193.038z" transform="translate(-233.614 -584.096)" style="fill:#e8e8e8"/>
                </g>
            </g>
            <g data-name="Group 6019">
                <g data-name="Group 6018">
                    <path data-name="Path 11567" d="M1086.317 1050.374c16.547-9.043 36.173-8.466 54.3-5.849 19.741 2.848 39.6 8.081 59.647 5.58 11.121-1.385 22.4-5.2 33.633-2.54a.579.579 0 0 0 .308-1.116c-9.736-2.309-19.51.116-29.131 1.77a108.682 108.682 0 0 1-31.4.346c-19.7-2.347-39.137-7.812-59.147-6.773-10.005.5-19.933 2.732-28.784 7.542a.6.6 0 0 0 .577 1.039z" transform="translate(-187.585 -682.233)" style="fill:#e8e8e8"/>
                </g>
            </g>
            <g data-name="Group 6021">
                <g data-name="Group 6020">
                    <path data-name="Path 11568" d="M1218.531 978.408c14.739 1.347 29.054-2.963 43.293-6.2 7.5-1.693 15.123-3.156 22.82-3.232 8.043-.116 15.932 1.5 23.821 2.848 8.389 1.462 16.855 2.54 25.321.962.731-.154.423-1.231-.308-1.116-15.74 2.925-31.132-3.617-46.794-3.887-14.662-.231-28.785 4.464-42.985 7.427-8.273 1.732-16.663 2.809-25.129 2.04a.578.578 0 0 0-.039 1.154z" transform="translate(-269.118 -636.781)" style="fill:#e8e8e8"/>
                </g>
            </g>
            <g data-name="Group 6023">
                <g data-name="Group 6022">
                    <path data-name="Path 11569" d="M320.387 758.322a20.909 20.909 0 0 1-3.425-4.926 16.8 16.8 0 0 1-1.077-2.732 4.508 4.508 0 0 1-.308-2.232c.154-.847 1.077-2.732 2.424-1.5a.584.584 0 0 0 .962-.577c-2.116-7.62-2.617-15.354-3.155-23.2-.539-7.812-1.116-15.816.423-23.551.385-1.847.654-4.541 2.732-5.2 2.578-.847 4.387 1.886 5.118 3.925a90.383 90.383 0 0 1 2.963 11.083 178.352 178.352 0 0 1 3.771 23.821 184.291 184.291 0 0 1 .385 26.476c-.039.731 1.116.731 1.154 0a179.759 179.759 0 0 0-4.887-53.452c-.539-2.155-1.077-4.272-1.693-6.388a13.118 13.118 0 0 0-2.155-4.772c-1.5-1.77-4.348-2.732-6.311-1.116-1.154.962-1.539 2.578-1.847 3.964a47.738 47.738 0 0 0-1 6.157 85.894 85.894 0 0 0-.154 13.353c.539 9.813.962 19.78 3.579 29.285.308-.192.654-.385.962-.577-2.117-1.962-4.541.539-4.425 2.848.154 3.733 2.771 7.542 5.2 10.159.462.539 1.27-.27.77-.847z" transform="translate(273.942 -470.598)" style="fill:#e8e8e8"/>
                </g>
            </g>
            <g data-name="Group 6025">
                <g data-name="Group 6024">
                    <path data-name="Path 11570" d="M356.473 708.737c-1.578-3.656-.693-7.581.269-11.275a40.953 40.953 0 0 0 1.693-10.082c.038-3.925-.231-7.735.77-11.583a27.385 27.385 0 0 1 1.924-5.118 8.088 8.088 0 0 1 1.347-2.309c1.732-1.539 2.617 1.308 3 2.386 2.617 7.2 3.079 14.97 3.194 22.551q.231 11.949-.654 23.859a271.522 271.522 0 0 1-3.386 27.245c-.115.731 1 1.039 1.116.308a259.9 259.9 0 0 0 3.964-54.875 77.655 77.655 0 0 0-1.347-12.661 46.439 46.439 0 0 0-1.578-6.042c-.462-1.347-.924-3.194-2.155-4.079-2.694-1.963-4.5 2.847-5.234 4.579a27.91 27.91 0 0 0-2.232 11.044 71.877 71.877 0 0 1-.077 7.619 57.094 57.094 0 0 1-1.578 7.2c-1 3.964-1.732 7.966-.077 11.852.346.616 1.347.039 1.039-.616z" transform="translate(251.576 -454.33)" style="fill:#e8e8e8"/>
                </g>
            </g>
            <g data-name="Group 6027">
                <g data-name="Group 6026">
                    <path data-name="Path 11571" d="M222.756 555.014c21.935-16.355 44.331-32.825 69.768-43.446a129.357 129.357 0 0 1 39.406-9.968c15.008-1.193 30.093.808 44.639 4.579 29.708 7.773 56.684 22.781 84.776 34.711 27.207 11.583 55.722 19.164 84.815 24.128 29.131 4.964 58.608 7.543 88.047 9.813 3.656.269 7.312.577 10.967.847.731.038.731-1.116 0-1.155-30.132-2.27-60.3-4.579-90.164-9.236-29.516-4.579-58.8-11.468-86.546-22.666-28.169-11.352-54.8-26.476-83.93-35.365-14.161-4.31-28.862-7.158-43.716-7.158a122.226 122.226 0 0 0-40.021 7.081c-25.822 9-48.68 24.744-70.538 40.83l-8.081 6c-.616.462-.038 1.462.577 1z" transform="translate(330.665 -353.8)" style="fill:#e8e8e8"/>
                </g>
            </g>
            <g data-name="Group 6029">
                <g data-name="Group 6028">
                    <path data-name="Path 11572" d="M1086.016 633.4c23.589.5 46.371-6.35 69-12.122 11.621-2.963 23.32-5.7 35.25-6.965a120.557 120.557 0 0 1 35.673 1.231 117.632 117.632 0 0 1 37.789 14.2.578.578 0 0 0 .577-1 119.252 119.252 0 0 0-67.613-16.124c-24.013 1.5-46.91 9.39-70.23 14.7-13.277 3.04-26.822 5.234-40.483 4.964-.693-.039-.693 1.116.038 1.116z" transform="translate(-187.591 -422.439)" style="fill:#e8e8e8"/>
                </g>
            </g>
            <g data-name="Group 6031">
                <g data-name="Group 6030">
                    <path data-name="Path 11573" d="M1403.94 869.939a168.723 168.723 0 0 1 49.8-.154c.731.116 1.039-1 .308-1.116a172.907 172.907 0 0 0-50.412.154c-.731.116-.423 1.193.308 1.116z" transform="translate(-383.066 -576.95)" style="fill:#e8e8e8"/>
                </g>
            </g>
            <g data-name="Group 6033">
                <g data-name="Group 6032">
                    <path data-name="Path 11574" d="M86.788 713.579a420.8 420.8 0 0 1 40.291-42.523c.539-.5-.269-1.309-.808-.808a408.481 408.481 0 0 0-40.291 42.523c-.462.577.346 1.385.808.808z" transform="translate(414.375 -457.059)" style="fill:#e8e8e8"/>
                </g>
            </g>
            <g data-name="Group 6035">
                <g data-name="Group 6034">
                    <path data-name="Path 11575" d="M1222.623 171.922c-5.2 1.809-9.275-2.54-11.814-6.5-2.5-3.848-4.31-8.043-4.31-12.738.039-8.812 5.926-16.547 14.084-19.626 7.543-2.809 16.74-1.308 22.589 4.387a19.279 19.279 0 0 1 3.771 22.512A47.182 47.182 0 0 1 1243.1 166a15.429 15.429 0 0 1-2.694 3.232 8.31 8.31 0 0 1-4.349 1.385c-5.388.654-10.813 1.231-16.239 1.847-.731.077-.731 1.231 0 1.154 5.849-.654 11.814-1.078 17.625-2 4.733-.77 7.273-5.541 9.505-9.351 4.541-7.735 4.195-17.163-1.655-24.167-5.811-6.965-16.047-9.236-24.513-6.35a22.631 22.631 0 0 0-15.431 19.664c-.347 5.734 1.924 11.006 5.118 15.624 2.771 4 7.2 7.773 12.391 5.965.77-.192.462-1.308-.231-1.077z" transform="translate(-263.527 -130.525)" style="fill:#e8e8e8"/>
                </g>
            </g>
            <g data-name="Group 6037">
                <g data-name="Group 6036">
                    <path data-name="Path 11576" d="M334.408 253.834c-1.616-3.964 2.617-7.2 6.2-7.466 3.81-.269 7.466 1.347 11.16 2.04a41.3 41.3 0 0 0 20.857-1.424c6.465-2.155 12.776-5.7 19.741-5.849 7.158-.115 13.546 4.118 20.78 3.232 3.5-.423 6.888-1.539 10.429-1.809 3.271-.269 8.2.346 9.351 4.079s-4.079 6.85-6.85 8.2a23.334 23.334 0 0 1-9.89 2.347c-3.617 0-6.85-1.078-10.236-2.193a27.474 27.474 0 0 0-9.467-1.578c-6.234.115-12.237 2.116-18.2 3.771a59.622 59.622 0 0 1-11.314 2.309 35.544 35.544 0 0 1-11.391-1.308c-3.771-.924-7.081-.577-10.89-.038-2.27.308-4.656.5-6.773-.616-1.886-1-3.425-2.771-2.963-5.041.154-.731-.962-1.039-1.116-.308-.577 2.655.962 4.887 3.271 6.2 3.117 1.77 6.58 1.039 9.967.539a19.727 19.727 0 0 1 6.888.038c2.078.423 4.118 1.116 6.234 1.462a32.074 32.074 0 0 0 9.967-.154c7.543-1.231 14.662-4.271 22.2-5.349a27.358 27.358 0 0 1 11.968.77c3.656 1.116 7.119 2.54 10.967 2.655 6.2.231 14.315-2.232 17.933-7.619a5.16 5.16 0 0 0-1.077-7.081c-2.424-2.117-5.811-2.463-8.889-2.155-3.964.385-7.773 1.732-11.737 1.924-4.425.231-8.5-1.462-12.738-2.54-7.889-2-14.816.577-22.127 3.425a49.894 49.894 0 0 1-13.738 3.579 44.835 44.835 0 0 1-15.316-1.616c-3.617-.924-7.773-1.886-11.16.231-2.578 1.616-4.348 4.656-3.156 7.658.269.654 1.385.385 1.116-.308z" transform="translate(265.051 -197.968)" style="fill:#e8e8e8"/>
                </g>
            </g>
            <g data-name="Group 6039">
                <g data-name="Group 6038">
                    <path data-name="Path 11577" d="M1171.031 425.633c5.542-5.387 13.584-5.31 20.819-4.618 8.466.808 16.663 1.886 25.206.962a92.514 92.514 0 0 0 12.93-2.54c4.464-1.154 9.043-2.386 13.738-2.232 4.733.154 9.159 2.04 13.815 2.694a39.192 39.192 0 0 0 12.7-.731c3.771-.693 7.5-1.847 11.391-1.655 3.425.154 7.619 1.886 7.312 6.042-.308 3.887-4.695 6.58-8.2 7.158-4.464.693-9.005-.924-13.43-1.27-8.312-.654-14.585 4.926-22.474 6.35-8.312 1.5-16.124-3.079-24.013-4.772-9.7-2.04-18.894 2.194-28.361 3.733-4.733.77-10.236 1.809-15.008.847a8.064 8.064 0 0 1-5.734-3.848c-1.039-2.04-1.078-4.5.654-6.157.539-.5-.269-1.347-.808-.808-2.232 2.117-2.117 5.465-.577 8 1.847 3.04 5.387 4.079 8.735 4.272 9.851.577 19.472-2.771 28.938-4.772a30.7 30.7 0 0 1 15.277.731c4.31 1.231 8.466 2.925 12.891 3.733a22.831 22.831 0 0 0 12.237-.924c4.195-1.5 8.12-3.848 12.507-4.849 8.312-1.886 17.663 4.233 25.129-1.616 2.5-1.963 4.233-5.118 3.04-8.274-1.039-2.732-3.694-4.079-6.426-4.464-3.54-.539-6.965.231-10.429.962-5.5 1.154-11.121 2.078-16.74 1-4.849-.924-9.428-2.655-14.469-2.424-4.772.231-9.39 1.616-14.007 2.771a79.808 79.808 0 0 1-17.856 2.424 124.372 124.372 0 0 1-15.585-1.154c-8.2-.924-17.548-1.5-23.936 4.695-.616.423.193 1.231.731.731z" transform="translate(-239.512 -303.556)" style="fill:#e8e8e8"/>
                </g>
            </g>
            <g data-name="Group 6041">
                <g data-name="Group 6040">
                    <path data-name="Path 11578" d="M509.3 1077.634a24.81 24.81 0 0 1-4.464-5.349 21.193 21.193 0 0 1-1.539-2.925 4.9 4.9 0 0 1-.539-2.078c.115-1.116 1.193-2.809 2.5-1.77a.584.584 0 0 0 .924-.693 18.82 18.82 0 0 1-2.194-9.351 5.567 5.567 0 0 1 .346-1.77 5.022 5.022 0 0 1 .808-1.385c.693-.693 1.308-.693 1.847.077 1.424 1.039 2 3.04 2.655 4.618a91.964 91.964 0 0 1 5.272 17.432c.385-.116.731-.193 1.116-.308a50.429 50.429 0 0 1-2.347-8.889c-.346-2.155-.962-9.313 3.463-6.927 2.848 1.539 3.386 6.119 3.386 9a45.828 45.828 0 0 1-1.193 9.428c-.154.731.962 1.039 1.116.308.77-3.964 1.578-8.081 1.077-12.16-.385-2.963-1.693-7.7-5.272-8.158-2.848-.347-4 2.54-4.079 4.887-.154 4.272 1.308 8.89 2.732 12.853a.579.579 0 0 0 1.116-.308 91.322 91.322 0 0 0-3.656-13.161c-.693-1.924-1.424-3.81-2.27-5.7-.616-1.423-1.231-3.463-2.732-4.271-2.386-1.309-4.079 1.347-4.464 3.348-.693 3.656.577 7.85 2.193 11.083l.924-.693c-2.347-1.963-4.733.847-4.387 3.31.577 3.925 4.041 7.811 6.811 10.428.577.423 1.385-.385.847-.885z" transform="translate(162.421 -687.789)" style="fill:#e8e8e8"/>
                </g>
            </g>
            <g data-name="Group 6043">
                <g data-name="Group 6042">
                    <path data-name="Path 11579" d="M400.039 361.642c8.543-1.732 17.24-3.463 26.014-2.694 8.428.731 16.393 3.733 24.552 5.811 15.932 4 32.44 5.426 48.834 5.388 9.39-.038 18.741-.5 28.092-1.27.731-.077.731-1.231 0-1.154-16.7 1.308-33.557 1.847-50.3.308a175.723 175.723 0 0 1-25.283-4.118c-7.927-1.924-15.624-4.81-23.743-5.849-9.582-1.231-19.126.616-28.477 2.5-.731.115-.423 1.231.308 1.077z" transform="translate(225.132 -268.177)" style="fill:#e8e8e8"/>
                </g>
            </g>
            <g data-name="Group 6045">
                <g data-name="Group 6044">
                    <path data-name="Path 11580" d="M634.277 351.122c28.246-1.462 55.684-11.083 84.161-9.313.731.038.731-1.116 0-1.154-28.438-1.77-55.915 7.889-84.161 9.313-.77.038-.77 1.193 0 1.154z" transform="translate(83.063 -257.747)" style="fill:#e8e8e8"/>
                </g>
            </g>
            <g data-name="Group 6047">
                <g data-name="Group 6046">
                    <path data-name="Path 11581" d="M1234.731 782.573a22.985 22.985 0 0 1-1.655-8.812 20.411 20.411 0 0 1 .539-4.579c.308-1.385 1.847-4.964 3.618-2.694a.592.592 0 0 0 1-.423 32.767 32.767 0 0 1 .308-9.89 27.634 27.634 0 0 1 1.154-4.233 21.246 21.246 0 0 1 1.039-2.578 4.472 4.472 0 0 1 2.463-2.04c2.078-.962 2.117-3.463 2.617-5.464a24.758 24.758 0 0 1 3.079-7.85c.923-1.385 2.655-3.617 4.541-3.117 1.5.385 2.04 2 2.309 3.386.615 3.04.192 6.427.038 9.505a132.864 132.864 0 0 1-2.617 20.28 134.766 134.766 0 0 1-6.464 21.436c-.269.693.846 1 1.116.308a132.1 132.1 0 0 0 9.274-45.255c.077-3 .462-13.007-5.465-10.7-2.5 1-4.194 4.041-5.195 6.388a32.322 32.322 0 0 0-1.385 4.118c-.578 2.117-.578 4.733-2.617 5.965-1.193.731-1.962 1.039-2.655 2.424a26.2 26.2 0 0 0-1.847 5.118 32.369 32.369 0 0 0-.808 12.16c.347-.154.654-.269 1-.423a2.6 2.6 0 0 0-3.156-.693c-1.5.693-2.04 2.424-2.386 3.887a23.9 23.9 0 0 0 1.116 14.008c.193.77 1.308.462 1.039-.231z" transform="translate(-280.09 -492.779)" style="fill:#e8e8e8"/>
                </g>
            </g>
            <g data-name="Group 6049">
                <g data-name="Group 6048">
                    <path data-name="Path 11582" d="M1200.618 772.667a31.377 31.377 0 0 1-4.118-8.274 13.2 13.2 0 0 1-.539-4.233 15.255 15.255 0 0 1 1.309-4.272c.847-2.347-.5-4.579-1.039-6.85-.27-1.078-1.847-10.659 1.539-9.351a.563.563 0 0 0 .693-.693c-1.116-4.964-2.27-10.236-.693-15.2.693-2.194 3.5-7.889 6.388-5.272 1.77 1.616 2.771 4.618 3.579 6.773 3.54 9.736 5.08 20.549 5.772 30.863.039.731 1.193.731 1.155 0a139.911 139.911 0 0 0-2.809-20.011c-1.231-5.772-2.578-12.2-5.926-17.2-1.039-1.539-2.54-2.848-4.5-2.039-2.078.846-3.5 3.386-4.31 5.31-2.271 5.5-1 11.506.231 17.125l.693-.693c-2.04-.808-3.271 1.5-3.579 3.232-.616 3.848.808 7.427 1.693 11.083.538 2.232-.808 3.81-1.193 5.888a11.226 11.226 0 0 0 .038 4.387c.654 3.656 2.655 7 4.618 10.121.385.5 1.385-.077 1-.693z" transform="translate(-257.345 -485.003)" style="fill:#e8e8e8"/>
                </g>
            </g>
            <g data-name="Group 6051">
                <g data-name="Group 6050">
                    <path data-name="Path 11583" d="M1289.166 770.181c1.039-3.579 2.117-7.158 4.31-10.2 2.116-2.925 4.579-5.7 6.927-8.427 1.231-1.385 2.463-2.771 3.81-4.041a10.438 10.438 0 0 1 2.27-1.809c1.732-.924 2.886.269 3.348 1.847 1.039 3.617.192 7.542-.731 11.121a113.146 113.146 0 0 1-17.932 37.712c-.423.616.577 1.193 1 .577a114.322 114.322 0 0 0 17.047-34.442 49.265 49.265 0 0 0 2.078-9.082c.269-2.5.346-5.965-1.154-8.12-3.156-4.464-9.7 4.426-11.429 6.465a102.19 102.19 0 0 0-6.58 8.081c-2.039 3-3.079 6.5-4.079 9.967a.585.585 0 0 0 1.116.346z" transform="translate(-312.2 -501.661)" style="fill:#e8e8e8"/>
                </g>
            </g>
            <g data-name="Group 6053">
                <g data-name="Group 6052">
                    <path data-name="Path 11584" d="M1266.863 733.423a202.245 202.245 0 0 1-11.429 52.451c-.27.693.847 1 1.116.308a203.317 203.317 0 0 0 11.468-52.759c.039-.731-1.116-.731-1.154 0z" transform="translate(-294.51 -494.871)" style="fill:#e8e8e8"/>
                </g>
            </g>
            <g data-name="Group 6055">
                <g data-name="Group 6054">
                    <path data-name="Path 11585" d="M1257.964 773.44a96.085 96.085 0 0 1 3.236 23.86.578.578 0 0 0 1.154 0 96.736 96.736 0 0 0-3.271-24.167.579.579 0 0 0-1.116.308z" transform="translate(-293.697 -519.497)" style="fill:#e8e8e8"/>
                </g>
            </g>
            <g data-name="Group 6057">
                <g data-name="Group 6056">
                    <path data-name="Path 11586" d="M1271.565 750.74a67.69 67.69 0 0 1 2.039 16.2.578.578 0 0 0 1.155 0 70.029 70.029 0 0 0-2.078-16.509.579.579 0 0 0-1.116.308z" transform="translate(-302.064 -505.871)" style="fill:#e8e8e8"/>
                </g>
            </g>
            <g data-name="Group 6059">
                <g data-name="Group 6058">
                    <path data-name="Path 11587" d="M1261.491 845.58a46.6 46.6 0 0 0 7.927-7.889c.462-.577-.346-1.385-.808-.808a46.588 46.588 0 0 1-7.927 7.889c-.577.462.231 1.27.808.808z" transform="translate(-295.261 -558.532)" style="fill:#e8e8e8"/>
                </g>
            </g>
            <g data-name="Group 6061">
                <g data-name="Group 6060">
                    <path data-name="Path 11588" d="M1210.977 718.74a395.443 395.443 0 0 1 7.773 42.33c.077.731 1.231.731 1.155 0a409.166 409.166 0 0 0-7.812-42.638c-.154-.731-1.27-.423-1.116.308z" transform="translate(-267.648 -486.062)" style="fill:#e8e8e8"/>
                </g>
            </g>
            <g data-name="Group 6063">
                <g data-name="Group 6062">
                    <path data-name="Path 11589" d="M1198.642 752.6a28.477 28.477 0 0 1 8.581 7.889c.423.616 1.424.039 1-.577a29.669 29.669 0 0 0-8.966-8.274.571.571 0 1 0-.616.962z" transform="translate(-259.987 -506.92)" style="fill:#e8e8e8"/>
                </g>
            </g>
            <g data-name="Group 6065">
                <g data-name="Group 6064">
                    <path data-name="Path 11590" d="M1232.024 774.576a72.921 72.921 0 0 0-3.348 10.66.579.579 0 0 0 1.116.308 74.359 74.359 0 0 1 3.348-10.659c.269-.693-.847-1-1.116-.308z" transform="translate(-278.457 -520.608)" style="fill:#e8e8e8"/>
                </g>
            </g>
            <g data-name="Group 6067">
                <g data-name="Group 6066">
                    <path data-name="Path 11591" d="M1198.232 818.78a127.464 127.464 0 0 1 12.43 4.195c.693.269 1-.847.308-1.116a130.931 130.931 0 0 0-12.43-4.195.579.579 0 0 0-.308 1.116z" transform="translate(-259.594 -547.051)" style="fill:#e8e8e8"/>
                </g>
            </g>
            <g data-name="Group 6069">
                <g data-name="Group 6068">
                    <path data-name="Path 11592" d="M1301.685 748.532c-5.118 17.817-19.28 31.478-23.821 49.526a.579.579 0 0 0 1.116.308c4.541-18.048 18.7-31.709 23.821-49.527a.579.579 0 0 0-1.116-.308z" transform="translate(-305.94 -504.147)" style="fill:#e8e8e8"/>
                </g>
            </g>
            <g data-name="Group 6071">
                <g data-name="Group 6070">
                    <path data-name="Path 11593" d="M1308.312 768.032c-.962 6.234-1.963 12.468-2.925 18.7-.116.731 1 1.039 1.116.308.962-6.234 1.963-12.468 2.924-18.7.115-.731-1-1.039-1.116-.308z" transform="translate(-322.879 -516.496)" style="fill:#e8e8e8"/>
                </g>
            </g>
            <g data-name="Group 6073">
                <g data-name="Group 6072">
                    <path data-name="Path 11594" d="M1314.657 791.82a102.634 102.634 0 0 1 10.736-6.734c.654-.346.077-1.347-.577-1a91.268 91.268 0 0 0-10.737 6.734c-.616.462-.038 1.462.577 1z" transform="translate(-328.07 -526.625)" style="fill:#e8e8e8"/>
                </g>
            </g>
            <g data-name="Group 6075">
                <g data-name="Group 6074">
                    <path data-name="Path 11595" d="M1285.757 847.408c3.5-4.118 8.5-6.2 13.43-8.158.693-.269.385-1.385-.308-1.116-5.08 2.039-10.275 4.195-13.93 8.466-.5.577.308 1.385.808.808z" transform="translate(-310.214 -559.377)" style="fill:#e8e8e8"/>
                </g>
            </g>
            <g data-name="Group 6077">
                <g data-name="Group 6076">
                    <path data-name="Path 11596" d="M1133.928 870.653c1.424 9 .231 18.048-1.116 27.015-1.308 8.813-2.617 17.663-3.925 26.476-.115.731 1 1.039 1.116.308 1.385-9.313 2.809-18.625 4.156-27.938 1.27-8.658 2.271-17.432.885-26.129-.154-.77-1.232-.462-1.116.269z" transform="translate(-217.925 -576.589)" style="fill:#e8e8e8"/>
                </g>
            </g>
            <g data-name="Group 6079">
                <g data-name="Group 6078">
                    <path data-name="Path 11597" d="M1122.464 913.384a94.26 94.26 0 0 0 5.31 15.7c.308.693 1.309.077 1-.577a98.277 98.277 0 0 1-5.2-15.431.58.58 0 0 0-1.116.308z" transform="translate(-214.031 -604.448)" style="fill:#e8e8e8"/>
                </g>
            </g>
            <g data-name="Group 6081">
                <g data-name="Group 6080">
                    <path data-name="Path 11598" d="M1146.346 885.428a22.636 22.636 0 0 1-3.81 9.582c-.423.616.577 1.193 1 .577a23.569 23.569 0 0 0 3.925-9.89c.077-.693-1.039-1-1.116-.269z" transform="translate(-226.174 -587.788)" style="fill:#e8e8e8"/>
                </g>
            </g>
            <g data-name="Group 6083">
                <g data-name="Group 6082">
                    <path data-name="Path 11599" d="M1165.017 886.976a328.466 328.466 0 0 1-18.01 47.949c-.308.654.693 1.27 1 .577a332.227 332.227 0 0 0 18.125-48.218.58.58 0 0 0-1.116-.308z" transform="translate(-228.664 -586.832)" style="fill:#e8e8e8"/>
                </g>
            </g>
            <g data-name="Group 6085">
                <g data-name="Group 6084">
                    <path data-name="Path 11600" d="M1185.322 884.923c-.154 3.733-.269 7.427-.423 11.16-.038.731 1.116.731 1.155 0 .154-3.733.269-7.427.423-11.16.038-.731-1.116-.731-1.155 0z" transform="translate(-251.978 -587.379)" style="fill:#e8e8e8"/>
                </g>
            </g>
            <g data-name="Group 6087">
                <g data-name="Group 6086">
                    <path data-name="Path 11601" d="M1162.388 898.132c-2.078 8.7 0 17.779 1.231 26.476.115.731 1.231.423 1.116-.308-1.193-8.466-3.232-17.355-1.231-25.86a.579.579 0 0 0-1.116-.308z" transform="translate(-237.766 -595.165)" style="fill:#e8e8e8"/>
                </g>
            </g>
            <g data-name="Group 6089">
                <g data-name="Group 6088">
                    <path data-name="Path 11602" d="M1158.24 981.57a29.957 29.957 0 0 0 10.314-4.734c.615-.423.038-1.424-.577-1a29.865 29.865 0 0 1-10.044 4.618c-.731.154-.423 1.27.308 1.116z" transform="translate(-235.207 -641.674)" style="fill:#e8e8e8"/>
                </g>
            </g>
            <g data-name="Group 6091">
                <g data-name="Group 6090">
                    <path data-name="Path 11603" d="M325.877 696.54a453.323 453.323 0 0 1 7.2 63.611c.038.731 1.193.731 1.154 0a450.736 450.736 0 0 0-7.235-63.919c-.154-.731-1.27-.423-1.116.308z" transform="translate(266.72 -472.248)" style="fill:#e8e8e8"/>
                </g>
            </g>
            <g data-name="Group 6093">
                <g data-name="Group 6092">
                    <path data-name="Path 11604" d="M314.786 759.491a65.213 65.213 0 0 1 9.736 16.855c.269.693 1.385.385 1.116-.308a67.262 67.262 0 0 0-10.005-17.355c-.462-.577-1.308.231-.847.808z" transform="translate(273.615 -510.991)" style="fill:#e8e8e8"/>
                </g>
            </g>
            <g data-name="Group 6095">
                <g data-name="Group 6094">
                    <path data-name="Path 11605" d="M339.95 723.732a156.929 156.929 0 0 0-3.156 17.394c-.077.731 1.078.731 1.154 0a144.764 144.764 0 0 1 3.117-17.086c.154-.731-.962-1.039-1.116-.308z" transform="translate(259.997 -489.68)" style="fill:#e8e8e8"/>
                </g>
            </g>
            <g data-name="Group 6097">
                <g data-name="Group 6096">
                    <path data-name="Path 11606" d="M370.488 669.823a491.061 491.061 0 0 1-3.694 75.194c-.077.731 1.078.731 1.154 0a491.054 491.054 0 0 0 3.694-75.194c-.038-.731-1.193-.731-1.154 0z" transform="translate(244.053 -455.991)" style="fill:#e8e8e8"/>
                </g>
            </g>
            <g data-name="Group 6099">
                <g data-name="Group 6098">
                    <path data-name="Path 11607" d="M359.515 738.31a84.511 84.511 0 0 1 5.734 20.549c.115.731 1.231.423 1.116-.308A84.509 84.509 0 0 0 360.631 738c-.308-.654-1.424-.385-1.116.308z" transform="translate(246.05 -498.302)" style="fill:#e8e8e8"/>
                </g>
            </g>
            <g data-name="Group 6101">
                <g data-name="Group 6100">
                    <path data-name="Path 11608" d="M369.386 837.423a29.234 29.234 0 0 1 6.542-8.466c.539-.5-.269-1.308-.808-.808a29.688 29.688 0 0 0-6.734 8.7c-.346.654.654 1.232 1 .577z" transform="translate(243.141 -553.252)" style="fill:#e8e8e8"/>
                </g>
            </g>
            <g data-name="Group 6103">
                <g data-name="Group 6102">
                    <path data-name="Path 11609" d="M366.75 680.64c1 3.194 2.117 6.311 3.348 9.428.269.693 1.385.385 1.116-.308a101.56 101.56 0 0 1-3.348-9.428.579.579 0 0 0-1.116.308z" transform="translate(241.586 -463.493)" style="fill:#e8e8e8"/>
                </g>
            </g>
            <g data-name="Group 6105">
                <g data-name="Group 6104">
                    <path data-name="Path 11610" d="M151.1 1071.679a294.165 294.165 0 0 1 75.81 2.386 303.707 303.707 0 0 1 21.05 4.233.579.579 0 0 0 .308-1.116 295.858 295.858 0 0 0-75.387-8c-7.273.192-14.546.616-21.781 1.347-.731.038-.77 1.193 0 1.154z" transform="translate(374.576 -699.112)" style="fill:#e8e8e8"/>
                </g>
            </g>
            <g data-name="Group 6107">
                <g data-name="Group 6106">
                    <path data-name="Path 11611" d="M738.154 1099.615c.039-1.655 4.156-1.963 5.157-1.847a5.664 5.664 0 0 1 4.233 2.463c3.04 4.695-3.117 6.581-6.657 5.426-.693-.231-1 .885-.308 1.116 2.463.847 5.734.731 7.735-1.231 1.693-1.655 1.347-4.31.077-6.119a6.97 6.97 0 0 0-6.2-2.848c-1.693.116-5.157.885-5.2 3.04a.578.578 0 0 0 1.154 0z" transform="translate(19.695 -716.004)" style="fill:#e8e8e8"/>
                </g>
            </g>
            <g data-name="Group 6109">
                <g data-name="Group 6108">
                    <path data-name="Path 11612" d="M737.737 1087.212c2.463-3.463 7.62-5.041 11.468-6.273a52.867 52.867 0 0 1 13.2-2.386c.731-.039.731-1.193 0-1.154a54.044 54.044 0 0 0-14.816 2.848c-3.848 1.347-8.389 2.925-10.852 6.388-.423.616.577 1.193 1 .577z" transform="translate(20.069 -704.216)" style="fill:#e8e8e8"/>
                </g>
            </g>
            <g data-name="Group 6111">
                <g data-name="Group 6110">
                    <path data-name="Path 11613" d="M804.2 1078.949a6.95 6.95 0 0 1 5.926 5.541c.154.731 1.27.423 1.116-.308a8.1 8.1 0 0 0-7.042-6.388c-.77-.077-.731 1.078 0 1.155z" transform="translate(-20.751 -704.458)" style="fill:#e8e8e8"/>
                </g>
            </g>
            <g data-name="Group 6113">
                <g data-name="Group 6112">
                    <path data-name="Path 11614" d="M807.457 1074.325c4.31-2.693 8.5.77 9.39 5.118.154.731 1.27.423 1.116-.308-1.077-5.118-6.157-8.89-11.083-5.811-.616.423-.039 1.424.577 1z" transform="translate(-22.514 -701.027)" style="fill:#e8e8e8"/>
                </g>
            </g>
            <g data-name="Group 6115">
                <g data-name="Group 6114">
                    <path data-name="Path 11615" d="M820.532 1091.57a4.679 4.679 0 0 0 5.772-2.886c.269-.693-.847-1-1.116-.308a3.5 3.5 0 0 1-4.348 2.078.579.579 0 0 0-.308 1.116z" transform="translate(-30.756 -710.729)" style="fill:#e8e8e8"/>
                </g>
            </g>
            <g data-name="Group 6117">
                <g data-name="Group 6116">
                    <path data-name="Path 11616" d="M736.491 1101.262c-2 1.155-1.886 3.887-1.116 5.772a4.52 4.52 0 0 0 5.272 3 .579.579 0 0 0-.308-1.116 3.351 3.351 0 0 1-3.887-2.347c-.5-1.308-.847-3.463.654-4.31a.588.588 0 0 0-.616-1z" transform="translate(20.927 -718.843)" style="fill:#e8e8e8"/>
                </g>
            </g>
            <g data-name="Group 6119">
                <g data-name="Group 6118">
                    <path data-name="Path 11617" d="M738.4 1104.679c-1.155-3.117 4.464-5 6.426-3.232a2.4 2.4 0 0 1-.385 3.81 2.62 2.62 0 0 1-2.04.578c-2.578-.5-.462-3.464.808-1.77.462.577 1.462 0 1-.577-1.5-1.963-4.81-.962-4.195 1.693.654 2.924 4.81 1.886 6.08.077a3.6 3.6 0 0 0-3.079-5.657c-2.771-.039-6.965 1.963-5.7 5.349.231.731 1.347.423 1.078-.27z" transform="translate(19.609 -717.874)" style="fill:#e8e8e8"/>
                </g>
            </g>
            <g data-name="Group 6121">
                <g data-name="Group 6120">
                    <path data-name="Path 11618" d="M763.24 1104.775a79.133 79.133 0 0 0 22.935-8.812.578.578 0 0 0-.577-1 78.777 78.777 0 0 1-22.666 8.7c-.731.154-.423 1.27.308 1.116z" transform="translate(4.361 -714.967)" style="fill:#e8e8e8"/>
                </g>
            </g>
            <g data-name="Group 6123">
                <g data-name="Group 6122">
                    <path data-name="Path 11619" d="M819.2 1047.926c6.542-5.5 13.084-12.045 21.473-14.546a.579.579 0 0 0-.308-1.116c-8.582 2.578-15.277 9.236-21.973 14.854-.577.462.269 1.27.808.808z" transform="translate(-29.392 -676.435)" style="fill:#e8e8e8"/>
                </g>
            </g>
            <g data-name="Group 6125">
                <g data-name="Group 6124">
                    <path data-name="Path 11620" d="M875.776 1034.466a11.7 11.7 0 0 1 7.889 9.851c.077.731 1.232.731 1.155 0a12.83 12.83 0 0 0-8.736-10.967c-.693-.231-1 .885-.308 1.116z" transform="translate(-64.222 -677.099)" style="fill:#e8e8e8"/>
                </g>
            </g>
            <g data-name="Group 6127">
                <g data-name="Group 6126">
                    <path data-name="Path 11621" d="M834.49 1073.475q11.833-5.253 23.513-10.967c.654-.308.077-1.308-.577-1-7.773 3.81-15.624 7.427-23.513 10.967-.693.308-.077 1.308.577 1z" transform="translate(-38.707 -694.404)" style="fill:#e8e8e8"/>
                </g>
            </g>
            <g data-name="Group 6129">
                <g data-name="Group 6128">
                    <path data-name="Path 11622" d="M806.456 1076.487c.269-.193.539-.347.77-.539a.587.587 0 0 0-.616-1c-.269.193-.539.347-.77.539a.573.573 0 0 0-.193.808.607.607 0 0 0 .808.193z" transform="translate(-21.978 -702.65)" style="fill:#e8e8e8"/>
                </g>
            </g>
            <g data-name="Group 6131">
                <g data-name="Group 6130">
                    <path data-name="Path 11623" d="M511.2 1053.424a90.472 90.472 0 0 0 5.772 25.09c.269.693 1.385.385 1.116-.307a88.636 88.636 0 0 1-5.734-24.783c-.039-.731-1.193-.731-1.154 0z" transform="translate(156.521 -689.13)" style="fill:#e8e8e8"/>
                </g>
            </g>
            <g data-name="Group 6133">
                <g data-name="Group 6132">
                    <path data-name="Path 11624" d="M505.54 1097.523a24.254 24.254 0 0 1 6.388 4.81c.5.539 1.308-.269.808-.808a23.905 23.905 0 0 0-6.619-4.964c-.654-.385-1.231.616-.577.962z" transform="translate(160.129 -715.951)" style="fill:#e8e8e8"/>
                </g>
            </g>
            <g data-name="Group 6135">
                <g data-name="Group 6134">
                    <path data-name="Path 11625" d="M524.429 1083.818a11.969 11.969 0 0 0-2.116 8.043c.077.731 1.231.731 1.154 0a11.257 11.257 0 0 1 1.963-7.466c.385-.577-.616-1.155-1-.577z" transform="translate(149.79 -708.018)" style="fill:#e8e8e8"/>
                </g>
            </g>
            <g data-name="Group 6137">
                <g data-name="Group 6136">
                    <path data-name="Path 11626" d="M536.777 1074.784a43.8 43.8 0 0 1 .962 14.508c-.077.731 1.078.731 1.154 0a45.755 45.755 0 0 0-1.039-14.816c-.115-.693-1.231-.385-1.078.308z" transform="translate(140.99 -702.178)" style="fill:#e8e8e8"/>
                </g>
            </g>
            <g data-name="Group 6139">
                <g data-name="Group 6138">
                    <path data-name="Path 11627" d="M532.285 1078.917c.924 1.77 1.847 3.579 2.771 5.349.346.654 1.347.077 1-.577-.924-1.77-1.847-3.579-2.771-5.349-.346-.654-1.347-.077-1 .577z" transform="translate(143.759 -704.618)" style="fill:#e8e8e8"/>
                </g>
            </g>
        </g>
        <g data-name="newsletter bw">
            <g data-name="Group 6430">
                <g data-name="Group 6429">
                    <path data-name="Path 11822" d="M1216.359 762.451a72.844 72.844 0 0 1-16.545-26.837c-.119.237-.277.475-.4.713.91-.2 1.781-.356 2.691-.554a.586.586 0 0 0 .158-1.069c-3.4-1.821-3.8-7.679-4.552-11.044-.99-4.394-1.9-8.787-2.692-13.181q-2.494-13.537-3.839-27.272c-.317.158-.594.356-.911.514a141.18 141.18 0 0 1 18.8 13.26c5.3 4.473 10.608 9.262 14.369 15.12 4.037 6.214 5.977 13.735 7.164 20.939a59.507 59.507 0 0 1-.554 23.947.6.6 0 0 0 1.148.317c2.969-11.993 1.464-24.779-2.335-36.416-3.681-11.123-11.994-19.158-20.9-26.362a144 144 0 0 0-17.059-11.835.614.614 0 0 0-.911.515q1.425 14.665 4.156 29.093c.91 4.79 1.9 9.579 3.048 14.289.752 3.206 1.267 7.4 4.473 9.143a9.918 9.918 0 0 1 .158-1.069c-.91.2-1.781.356-2.691.554a.553.553 0 0 0-.4.713 74.239 74.239 0 0 0 16.862 27.351c.475.554 1.306-.277.752-.831z" transform="translate(-805.579 -430.751)" style="fill:#e8e8e8"/>
                </g>
            </g>
            <g data-name="Group 6432">
                <g data-name="Group 6431">
                    <path data-name="Path 11823" d="M1193.14 685.259a182.117 182.117 0 0 1 28.974 69.071c.158.752 1.306.435 1.148-.317a182.927 182.927 0 0 0-29.133-69.388c-.4-.594-1.425 0-.989.633z" transform="translate(-807.415 -431.813)" style="fill:#e8e8e8"/>
                </g>
            </g>
            <g data-name="Group 6434">
                <g data-name="Group 6433">
                    <path data-name="Path 11824" d="M1204.644 771.025c5.977 1.306 12.271 2.771 16.427 7.639.475.594 1.346-.277.831-.831-4.275-5.027-10.766-6.61-16.941-7.956-.752-.158-1.069.99-.317 1.148z" transform="translate(-814.17 -483.458)" style="fill:#e8e8e8"/>
                </g>
            </g>
            <g data-name="Group 6436">
                <g data-name="Group 6435">
                    <path data-name="Path 11825" d="M1243.11 746.952a33.722 33.722 0 0 1 2.652-16.15c.317-.712-.713-1.306-1.029-.594a34.707 34.707 0 0 0-2.811 16.743c.079.752 1.267.752 1.188 0z" transform="translate(-836.883 -459.306)" style="fill:#e8e8e8"/>
                </g>
            </g>
            <g data-name="Group 6438">
                <g data-name="Group 6437">
                    <path data-name="Path 11826" d="M1267.435 676.3c2.85-17.733 15-31.507 26.639-44.372-.317-.2-.673-.4-.99-.594-2.731 9.777 3.681 18.841 6.016 28.024a70.645 70.645 0 0 1 1.979 15.516c.079 2.573.039 5.185-.04 7.758a20.267 20.267 0 0 1-.317 3.8c-.4 1.7-2.3 4.354-4.315 2.573l-.712.95c3.483 1.821 2.217 7.046 1.662 10.093-.713 4.117-1.9 8.035-4.552 11.36-3.839 4.75-9.341 8.273-11.162 14.368-.238.752.91 1.029 1.148.317 2.256-7.441 10.212-11 13.5-17.891a34.8 34.8 0 0 0 2.81-11.637c.277-2.81 0-6.175-2.81-7.6-.554-.277-1.266.475-.713.95a3.452 3.452 0 0 0 4.315.2c1.544-1.029 2.019-2.929 2.177-4.71a82.357 82.357 0 0 0-.356-18.208 66.3 66.3 0 0 0-4.512-17.02c-2.335-5.858-4.75-12.073-2.969-18.445a.6.6 0 0 0-.99-.594c-11.756 13.023-24.066 27-26.955 44.886-.119.712 1.029 1.029 1.148.277z" transform="translate(-851.667 -399.544)" style="fill:#e8e8e8"/>
                </g>
            </g>
            <g data-name="Group 6440">
                <g data-name="Group 6439">
                    <path data-name="Path 11827" d="M1307.454 641.53a217.339 217.339 0 0 0-15.16 63.609c-.079.752 1.108.752 1.188 0a216.8 216.8 0 0 1 15.12-63.292c.277-.673-.871-.99-1.148-.317z" transform="translate(-867.383 -405.698)" style="fill:#e8e8e8"/>
                </g>
            </g>
            <g data-name="Group 6442">
                <g data-name="Group 6441">
                    <path data-name="Path 11828" d="M1044.147 788.3c9.7 2.1 19.158-2.573 28.5-4.433a84.539 84.539 0 0 1 31.231-.158c.752.119 1.069-.99.317-1.148a86.611 86.611 0 0 0-28.935-.356 127.3 127.3 0 0 0-14.408 3.483c-5.343 1.464-10.845 2.652-16.347 1.464-.792-.158-1.108.95-.356 1.148z" transform="translate(-717.203 -490.284)" style="fill:#e8e8e8"/>
                </g>
            </g>
            <g data-name="Group 6444">
                <g data-name="Group 6443">
                    <path data-name="Path 11829" d="M1349.9 787.652c5.621-1.069 11.162.277 16.585 1.623 5.3 1.266 10.648 2.415 16.07 3.364a242.672 242.672 0 0 0 31.666 3.325c.752.04.752-1.148 0-1.187a239.715 239.715 0 0 1-33.605-3.681c-5.383-.989-10.687-2.216-15.991-3.483-4.948-1.187-9.974-2.058-15.041-1.069-.713.119-.4 1.267.317 1.108z" transform="translate(-901.758 -493.278)" style="fill:#e8e8e8"/>
                </g>
            </g>
            <g data-name="Group 6446">
                <g data-name="Group 6445">
                    <path data-name="Path 11830" d="M219.56 687.906c14.012-3.246 28.024-7.006 42.234-9.064a188.989 188.989 0 0 1 42.828-1.029c27.47 2.375 54.149 9.579 81.064 15.16a331.688 331.688 0 0 0 45.005 6.65c.752.04.752-1.148 0-1.187-27.787-1.9-54.782-8.985-81.935-14.764-27-5.7-54.465-9.816-82.094-6.65-16.031 1.86-31.705 6.1-47.42 9.737-.752.158-.435 1.306.317 1.148z" transform="translate(-218.814 -426.702)" style="fill:#e8e8e8"/>
                </g>
            </g>
            <g data-name="Group 6448">
                <g data-name="Group 6447">
                    <path data-name="Path 11831" d="M503.839 597.577c23.235-2.019 45.995-7.481 68.517-13.339q34.555-9.025 69.111-18.208c23-6.056 45.955-12.27 69.032-18.168 11.479-2.929 23.076-5.581 34.872-6.689a182.8 182.8 0 0 1 34.2.158c26.52 2.454 52.328 9.539 77.938 16.585a.6.6 0 0 0 .317-1.148c-22.522-6.214-45.163-12.429-68.4-15.516a202.311 202.311 0 0 0-34.951-1.86 186.14 186.14 0 0 0-34 4.789c-11.4 2.612-22.681 5.739-34 8.748l-34.675 9.142q-35.03 9.2-70.1 18.445c-25.61 6.729-51.378 13.537-77.859 15.833-.752.119-.752 1.306 0 1.227z" transform="translate(-390.679 -344.13)" style="fill:#e8e8e8"/>
                </g>
            </g>
            <g data-name="Group 6450">
                <g data-name="Group 6449">
                    <path data-name="Path 11832" d="m342.746 856.047 29.014 1.069c9.421.356 18.881.91 28.3.99 9.183.079 18.05-1.7 27.074-3.325a265.65 265.65 0 0 1 28.5-3.6 278.192 278.192 0 0 1 31.983-.475c.752.039.752-1.148 0-1.187a274.759 274.759 0 0 0-55.851 3.285c-9.421 1.544-18.762 3.919-28.3 4.117-9.342.238-18.8-.475-28.143-.831l-32.537-1.19c-.792-.079-.792 1.108-.04 1.148z" transform="translate(-293.353 -531.432)" style="fill:#e8e8e8"/>
                </g>
            </g>
            <g data-name="Group 6452">
                <g data-name="Group 6451">
                    <path data-name="Path 11833" d="M269.729 921.784c.594.435 1.187.831 1.781 1.267.554.4 1.187-.475.712-.95l-5.423-5.66a22.5 22.5 0 0 1-2.494-2.652c-1.029-1.5.04-2.217.277-3.444.277-1.267-.99-1.979-1.7-2.771a17.431 17.431 0 0 1-3.4-6.017c-3.285-8.985-4.433-19.118-4.75-28.618l-.594.594c9.975-.91 15.754 8.51 19.079 16.466 3.721 8.827 7.125 18.049 7.56 27.747.04.752 1.227.752 1.187 0-.475-10.371-4.2-20.424-8.391-29.845-3.483-7.877-9.777-16.466-19.474-15.6a.609.609 0 0 0-.594.594 122 122 0 0 0 1.5 15.2 73.628 73.628 0 0 0 3.6 14.606 19.118 19.118 0 0 0 2.612 4.75c.792.99 2.138 1.86 1.663 3.325-.2.594-.594.91-.554 1.623.079 1.742 1.979 3.166 3.048 4.275l5.977 6.214.712-.95c-.594-.435-1.187-.831-1.781-1.266-.594-.356-1.187.673-.554 1.108z" transform="translate(-239.77 -545.316)" style="fill:#e8e8e8"/>
                </g>
            </g>
            <g data-name="Group 6454">
                <g data-name="Group 6453">
                    <path data-name="Path 11834" d="M311.2 893.323a49 49 0 0 1 17.38-22.483 6.333 6.333 0 0 0-.831-.2 61.369 61.369 0 0 1 4.512 15.833c.119-.238.277-.475.4-.713-.95.277-1.9.554-2.89.831a.6.6 0 0 0-.356.871c1.108 2.652 2.335 5.66 1.108 8.471-1.029 2.335-3.246 4.077-4.789 6.016a45 45 0 0 0-6.65 11.479c-.277.712.871 1.029 1.148.317 2.217-5.581 5.542-10.014 9.46-14.487a8.935 8.935 0 0 0 2.573-5.62c.079-2.375-.91-4.631-1.821-6.769-.119.277-.237.594-.356.871.95-.277 1.9-.554 2.89-.831a.567.567 0 0 0 .4-.712 63.9 63.9 0 0 0-4.631-16.15.581.581 0 0 0-.831-.2 50.593 50.593 0 0 0-17.931 23.2c-.158.673.95.989 1.227.277z" transform="translate(-273.883 -543.81)" style="fill:#e8e8e8"/>
                </g>
            </g>
            <g data-name="Group 6456">
                <g data-name="Group 6455">
                    <path data-name="Path 11835" d="M265.253 888.593a78.934 78.934 0 0 1 18.683 41.284c.119.752 1.306.752 1.187 0a80.63 80.63 0 0 0-19.039-42.155c-.515-.554-1.346.277-.831.871z" transform="translate(-246.773 -554.557)" style="fill:#e8e8e8"/>
                </g>
            </g>
            <g data-name="Group 6458">
                <g data-name="Group 6457">
                    <path data-name="Path 11836" d="M324.9 930.783a86.156 86.156 0 0 1 7.837-18.841.594.594 0 0 0-1.029-.594 88.71 88.71 0 0 0-7.956 19.118.6.6 0 0 0 1.148.317z" transform="translate(-282.195 -568.762)" style="fill:#e8e8e8"/>
                </g>
            </g>
            <g data-name="Group 6460">
                <g data-name="Group 6459">
                    <path data-name="Path 11837" d="M265.36 829.863c13.854-2.691 28.024-3.721 41.957-1.069 6.491 1.227 12.9 2.652 19.474 3.4 6.927.792 13.933 1.108 20.9 1.385.752.04.752-1.148 0-1.187-6.967-.317-13.973-.594-20.9-1.386-7.2-.831-14.25-2.533-21.414-3.76-13.379-2.3-27.114-1.068-40.334 1.5-.752.119-.435 1.266.317 1.108z" transform="translate(-246.485 -517.4)" style="fill:#e8e8e8"/>
                </g>
            </g>
            <g data-name="Group 6462">
                <g data-name="Group 6461">
                    <path data-name="Path 11838" d="M397.26 947.872c7.916-1.267 15.833-2.573 23.829-3.048A98.747 98.747 0 0 1 445 946.486a105.484 105.484 0 0 0 21.77 1.821c7.719-.2 15.516-.554 23.037 1.465a.6.6 0 0 0 .317-1.148c-7.283-1.979-14.764-1.742-22.245-1.544a108.776 108.776 0 0 1-11.914-.159c-4.077-.317-8.114-1.148-12.112-1.86a96.461 96.461 0 0 0-23.156-1.425c-7.956.514-15.873 1.781-23.749 3.048-.752.158-.436 1.306.317 1.188z" transform="translate(-326.176 -588.345)" style="fill:#e8e8e8"/>
                </g>
            </g>
            <g data-name="Group 6464">
                <g data-name="Group 6463">
                    <path data-name="Path 11839" d="M946.96 970.9a368.414 368.414 0 0 1 44.767-3.721c14.606-.317 29.212.277 43.818.594a.6.6 0 0 0 0-1.187c-14.843-.317-29.727-.91-44.609-.554a376.922 376.922 0 0 0-44.292 3.721c-.752.119-.436 1.227.316 1.148z" transform="translate(-658.292 -601.914)" style="fill:#e8e8e8"/>
                </g>
            </g>
            <g data-name="Group 6466">
                <g data-name="Group 6465">
                    <path data-name="Path 11840" d="M1112.922 995.286c5.661-2.415 11.756.514 17.575.237a14.641 14.641 0 0 0 3.681-.633c1.623-.554 3.127-1.425 4.869-1.5 3.008-.158 5.819.99 8.827.515.752-.119.436-1.267-.317-1.148-3.364.554-6.65-1.108-9.975-.356-1.5.317-2.85 1.109-4.314 1.544a16.307 16.307 0 0 1-4.591.435c-5.5-.238-11-2.335-16.387-.04-.633.2-.04 1.227.633.95z" transform="translate(-758.468 -617.788)" style="fill:#e8e8e8"/>
                </g>
            </g>
            <g data-name="Group 6468">
                <g data-name="Group 6467">
                    <path data-name="Path 11841" d="M1315.473 883.919c9.974-2.969 19.949-2.89 30.162-1.662 9.619 1.148 19.316 2.652 28.974.95.752-.119.435-1.267-.317-1.148-10.054 1.781-20.147-.039-30.162-1.148-9.856-1.109-19.475-.99-29.014 1.9a.583.583 0 0 0 .356 1.108z" transform="translate(-880.944 -550.16)" style="fill:#e8e8e8"/>
                </g>
            </g>
            <g data-name="Group 6472">
                <g data-name="Group 6471">
                    <path data-name="Path 11843" d="M351.452 531.868c4.037-3.6 9.7-1.148 12.706 2.494a40.561 40.561 0 0 1 3.642 6.016 5.473 5.473 0 0 0 3.523 3.087 3.385 3.385 0 0 0 3.246-1.187c.554-.633.91-1.465 1.465-2.1 1.188-1.385 2.731-1.227 4-.119 2.771 2.414 2.889 8.391 7.758 7.956.752-.079.752-1.266 0-1.187-5.066.475-4.473-8.035-9.341-8.866a3.507 3.507 0 0 0-3.444 1.5 13.354 13.354 0 0 1-1.623 2.3c-2.058 1.7-3.879-.673-4.71-2.3-2.019-3.721-4-7.6-8-9.539A9.064 9.064 0 0 0 350.621 531c-.554.515.277 1.385.831.871z" transform="translate(-298.338 -337.874)" style="fill:#e8e8e8"/>
                </g>
            </g>
            <g data-name="Group 6474">
                <g data-name="Group 6473">
                    <path data-name="Path 11844" d="M1022.8 363.909c-.792-2.137-1.742-4.671-.317-6.769 1.306-1.86 3.523-.91 5.383-1.5 2.454-.792 3.958-3.206 4.631-5.542.792-2.731-.158-6.294 1.464-8.708 1.979-2.969 6.254.673 8.945-1.148.634-.435.04-1.465-.594-1.029-2.731 1.86-6.452-1.939-9.025 1.108-2.058 2.415-1.108 6.1-1.781 8.945a7.449 7.449 0 0 1-3.4 5.027c-1.623.831-3.483 0-5.106.831-3.483 1.781-2.375 6.214-1.306 9.1.2.673 1.346.4 1.108-.317z" transform="translate(-703.256 -223.193)" style="fill:#e8e8e8"/>
                </g>
            </g>
            <g data-name="Group 6476">
                <g data-name="Group 6475">
                    <path data-name="Path 11845" d="M1034.526 306.1a5.631 5.631 0 0 1 1.148-5.819c1.821-1.979 3.919-1.187 6.175-1.979a4.683 4.683 0 0 0 2.652-2.89c.316-.792.514-1.623.792-2.415a5.092 5.092 0 0 1 .99-1.821c.712-.673 2.414-1.227 2.85.277a.6.6 0 0 0 1.148-.317 2.74 2.74 0 0 0-3.958-1.464c-2.85 1.464-1.821 5.819-4.473 7.283-1.464.792-3.286.317-4.829.95a6.891 6.891 0 0 0-2.533 1.979 6.733 6.733 0 0 0-1.108 6.531c.237.712 1.385.4 1.148-.317z" transform="translate(-710.708 -193.128)" style="fill:#e8e8e8"/>
                </g>
            </g>
            <g data-name="Group 6478">
                <g data-name="Group 6477">
                    <path data-name="Path 11846" d="M1118.177 426.79a4.306 4.306 0 0 1 .713-5.542 3.647 3.647 0 0 1 5.581.99c2.811 4.235-3.4 7.956-6.373 4.433-.514-.594-1.346.277-.831.831a5.478 5.478 0 0 0 7.045.831 4.791 4.791 0 0 0 .95-7.046 4.842 4.842 0 0 0-6.967-1.148 5.463 5.463 0 0 0-1.148 7.2c.436.673 1.465.079 1.029-.554z" transform="translate(-761.031 -271.547)" style="fill:#e8e8e8"/>
                </g>
            </g>
            <g data-name="Group 6480">
                <g data-name="Group 6479">
                    <path data-name="Path 11847" d="M1127.343 441.924c-1.108-1.544-2.494-3.4-2.019-5.383.713-2.929 4.2-2.177 5.779-.435 1.307 1.465 1.781 3.76.119 5.146a3.143 3.143 0 0 1-4.354 0c-.515-.554-1.346.277-.831.831a4.353 4.353 0 0 0 5.977.079c2.019-1.742 1.782-4.631.2-6.571-1.583-1.979-5.185-3.4-7.165-1.148-2.216 2.533-.356 5.819 1.267 8.075.435.633 1.464.04 1.029-.594z" transform="translate(-765.724 -280.11)" style="fill:#e8e8e8"/>
                </g>
            </g>
            <g data-name="Group 6482">
                <g data-name="Group 6481">
                    <path data-name="Path 11848" d="M459.244 661.7a52.712 52.712 0 0 0 13.537 2.3c.752.04.752-1.148 0-1.187a49.752 49.752 0 0 1-13.221-2.256.6.6 0 0 0-.317 1.148z" transform="translate(-363.816 -417.396)" style="fill:#e8e8e8"/>
                </g>
            </g>
            <g data-name="Group 6484">
                <g data-name="Group 6483">
                    <path data-name="Path 11849" d="M1209.039 581.678c26.916-.2 52.249 9.856 77.66 17.3 7.283 2.137 14.646 4.077 22.087 5.541.752.158 1.069-.99.317-1.148-26.4-5.225-51.3-16.427-77.858-20.979a122.779 122.779 0 0 0-22.206-1.9.594.594 0 0 0 0 1.187z" transform="translate(-816.744 -369.041)" style="fill:#e8e8e8"/>
                </g>
            </g>
            <g data-name="Group 6486">
                <g data-name="Group 6485">
                    <path data-name="Path 11850" d="M541.316 148.83c1.385 3.325 3.087 10.687 8.075 7.4 1.662-1.069 4.117-4.2 5.9-1.662 1.069 1.5 1.148 3.483 3.167 4.156.712.237 1.029-.91.317-1.148-1.86-.633-1.86-3.483-3.365-4.631a3 3 0 0 0-3.285-.158c-1.583.752-2.731 2.454-4.394 3.008-2.968.99-4.473-5.383-5.264-7.283-.317-.673-1.465-.4-1.148.317z" transform="translate(-413.63 -107.822)" style="fill:#e8e8e8"/>
                </g>
            </g>
            <g data-name="Group 6488">
                <g data-name="Group 6487">
                    <path data-name="Path 11851" d="M571.2 148.548a4.3 4.3 0 0 1 6.571 1.662c.673 1.623 1.187 2.573 3.087 2.692a22.252 22.252 0 0 1 2.81-.119c1.9.317 1.9 1.979 2.217 3.523s1.029 2.89 2.692 3.087c.752.079.752-1.108 0-1.187-2.177-.237-1.267-4.71-2.969-5.977-1.821-1.346-4.552.435-5.977-1.227-.673-.792-.871-1.86-1.583-2.652a5.052 5.052 0 0 0-2.138-1.465 5.345 5.345 0 0 0-5.264.673c-.673.435-.079 1.465.554.99z" transform="translate(-431.203 -106.827)" style="fill:#e8e8e8"/>
                </g>
            </g>
            <g data-name="Group 6490">
                <g data-name="Group 6489">
                    <path data-name="Path 11852" d="M657.432 231.861a5.063 5.063 0 0 0 5.819-3.6 4.545 4.545 0 0 0-3.167-5.383c-5.264-1.781-8.193 5.462-3.919 8.431.633.435 1.227-.594.594-1.029-3.008-2.1-1.148-7.362 2.692-6.373a3.417 3.417 0 0 1 2.731 3.721 3.81 3.81 0 0 1-4.433 3.048c-.752-.119-1.069 1.029-.317 1.188z" transform="translate(-481.81 -152.813)" style="fill:#e8e8e8"/>
                </g>
            </g>
            <g data-name="Group 6492">
                <g data-name="Group 6491">
                    <path data-name="Path 11853" d="M666.4 240.078a6.584 6.584 0 0 1-2.494-2.81 2.5 2.5 0 0 1 2.894-3.168 2.792 2.792 0 0 1 1.9 3.206 2.911 2.911 0 0 1-3.523 1.9.6.6 0 0 0-.316 1.148 4.179 4.179 0 0 0 4.869-2.335 3.931 3.931 0 0 0-2.1-4.908 3.731 3.731 0 0 0-4.71 1.979c-1.108 2.415.91 4.433 2.691 5.819.515.475 1.386-.356.792-.831z" transform="translate(-486.939 -159.013)" style="fill:#e8e8e8"/>
                </g>
            </g>
            <g data-name="Group 6494">
                <g data-name="Group 6493">
                    <path data-name="Path 11854" d="M468.506 436.038a3.9 3.9 0 0 1-.4-5.9 3.556 3.556 0 0 1 5.3.119c3.048 3.4-1.346 7.837-4.948 5.5-.633-.435-1.227.594-.594 1.029a5.268 5.268 0 0 0 6.729-.99 4.925 4.925 0 0 0-.633-6.689 4.744 4.744 0 0 0-6.689.158 5.091 5.091 0 0 0 .4 7.6c.554.515 1.385-.317.831-.831z" transform="translate(-368.012 -276.798)" style="fill:#e8e8e8"/>
                </g>
            </g>
            <g data-name="Group 6496">
                <g data-name="Group 6495">
                    <path data-name="Path 11855" d="M897.338 144a44.015 44.015 0 0 1 9.46-13.339c.554-.515-.277-1.385-.831-.831a45.354 45.354 0 0 0-9.658 13.616c-.317.633.712 1.267 1.029.554z" transform="translate(-628.104 -96.657)" style="fill:#e8e8e8"/>
                </g>
            </g>
            <g data-name="Group 6498">
                <g data-name="Group 6497">
                    <path data-name="Path 11856" d="M910.015 149.938a66.634 66.634 0 0 1 7.877-8.154c.594-.515-.277-1.346-.831-.831a69.7 69.7 0 0 0-7.877 8.154c-.475.594.356 1.425.831.831z" transform="translate(-635.834 -103.388)" style="fill:#e8e8e8"/>
                </g>
            </g>
            <g data-name="Group 6500">
                <g data-name="Group 6499">
                    <path data-name="Path 11857" d="M917.519 167.282c1.069-.91 2.138-1.781 3.206-2.692.594-.475-.277-1.346-.831-.831-1.069.91-2.137 1.781-3.206 2.692-.594.475.237 1.306.831.831z" transform="translate(-640.33 -117.17)" style="fill:#e8e8e8"/>
                </g>
            </g>
        </g>
        <path data-name="Path 11782" d="M278.4 929.253a11.5 11.5 0 0 0-2.027-3.4 12.93 12.93 0 0 0-3-2.5c-1.412-1.086-1.955-2.425-4.271-12.452-1.086-4.778-1.194-5.321-1.014-6.3.471-2.534 1.81-3.4 2.5-6.66a17.863 17.863 0 0 0 .253-4.778 31.137 31.137 0 0 0-1.52-10.171c-1.194-3.439-2.57-7.24-6.154-8.941-2.5-1.158-4.959-.76-7.167-.362-4.452.8-5.43 2.461-10.063 4.525-2.317 1.014-8.977 3.982-16.868 3.511-3.511-.217-5.466-.977-7.674.362-2.317 1.448-3.294 4.2-4.018 6.3a19.211 19.211 0 0 0-1.122 6.3c-.471 1.557-1.195 3.909-2.027 6.805-2.317 8.253-2.317 9.773-3.909 14.226-1.593 4.525-2.606 7.348-5.031 10.57-.8 1.05-.833.941-8.181 8.036-3.765 3.62-5.755 5.611-6.66 8.941-.362 1.3-.941 3.366.109 4.778.326.4 1.375 1.593 7.782 1.376 2.968-.109 3.366-.362 6.407-.615a59.934 59.934 0 0 1 12.2.253c2.1.217 3.837.543 5.031.76a29.567 29.567 0 0 1 4.923.869c3.656 1.013 4.778 2.136 8.036 3.511A26.373 26.373 0 0 0 246 956.582a21.978 21.978 0 0 0 7.927-1.774 20.189 20.189 0 0 0 6.154 0 23.105 23.105 0 0 0 5.9-1.882c1.882-.832 1.774-1.014 4.163-2.135 4.163-2.027 4.85-1.665 6.045-2.751.869-.8 1.665-2.063 2.136-7.312a55.992 55.992 0 0 0 .075-11.475zm-59.834 9.99c.29 1.991.869 3.584 0 4.452-1.122 1.086-3.041-.47-7.891-.217-.8.036-1.267.109-3.62.29-2.063.145-1.991.109-3.294.217a18.058 18.058 0 0 1-3.149.217c-1.556-.145-2.353-.181-3-.76a4.058 4.058 0 0 1-1.014-3.692c.362-2.244 2.208-3.185 5.5-5.9a54.958 54.958 0 0 0 5.611-5.285c1.339-1.774 2.642-3.62 3.982-5.538.615-.9 1.194-1.773 1.774-2.679a78.044 78.044 0 0 0 1.918-6.045c1.81-6.588 1.846-10.678 2.461-10.714.724 0 1.339 5.357 1.593 8.289a62.666 62.666 0 0 1 .072 8.977 9.059 9.059 0 0 1 1.014 3.366 9.2 9.2 0 0 1-.4 3.837 20.9 20.9 0 0 0-1.559 11.185z" transform="translate(456.984 -605.006)" style="fill:#fff"/>
        <g data-name="Group 6393">
            <g data-name="Group 6392">
                <path data-name="Path 11783" d="M264.911 882.8c-4.814 7.819-1.737 17.013-.362 25.374a36.214 36.214 0 0 1 .507 7.384 18.912 18.912 0 0 0-.072 3.511 30.178 30.178 0 0 0 .8 3.113c.688 2.715-.29 5.466-.832 8.108a40.425 40.425 0 0 0-1.014 6.878c-.145 3.656.76 7.565 3.4 10.208 2.932 2.932 7.2 2.461 10.714 4.307 3.656 1.955 7.095 3.584 11.294 3.982a23.883 23.883 0 0 0 6.226-.254c2.172-.362 4.2-1.411 6.371-1.773 2.063-.326 4.054.4 6.117-.145a42.213 42.213 0 0 0 6.733-2.859c2.244-1.014 4.488-2.063 6.769-3.077 1.484-.688 2.823-1.3 3.185-3.041.471-2.172.217-4.742.253-6.95.072-2.317.253-4.633.109-6.95a11.613 11.613 0 0 0-.9-4.307c-.941-2.1-2.932-2.751-4.235-4.489-2.57-3.547-3.873-8.506-4.6-12.778a50.879 50.879 0 0 1-.471-4.018 7.067 7.067 0 0 1 .9-3.439 19.608 19.608 0 0 0 1.412-5.321 34.381 34.381 0 0 0-.941-12.6c-.832-3.475-1.955-7.348-4.742-9.81-7.312-6.443-16.9 1.122-23.673 4.307a18.607 18.607 0 0 1-7.855 1.919c-2.642 0-5.249-.507-7.891-.326-3.511.217-7.167 1.81-8.362 5.321-.217.652.832.941 1.05.29 1.448-4.235 6.479-4.706 10.28-4.488 4.054.253 7.746.507 11.583-1.013 6.588-2.606 13.429-9.194 21.067-6.878 4.2 1.267 5.973 5.357 7.059 9.266a37.586 37.586 0 0 1 1.556 12.018 22.087 22.087 0 0 1-1.122 5.9 17.844 17.844 0 0 1-1.122 2.57 4.576 4.576 0 0 0-.29 2.715 38.524 38.524 0 0 0 2.5 11.4 39.141 39.141 0 0 0 2.136 4.706c.9 1.593 2.136 2.244 3.4 3.475 2.9 2.751 2.136 7.638 2.027 11.221l-.217 6.841a3.143 3.143 0 0 1-1.665 3.149 28.1 28.1 0 0 1-3.366 1.52c-2.027.941-4.09 1.846-6.117 2.787-2.317 1.05-4.633 2.389-7.276 2.244a14.543 14.543 0 0 0-4.85.181 37.926 37.926 0 0 1-6.262 1.629 22.21 22.21 0 0 1-12.235-1.955c-1.593-.76-3.077-1.774-4.706-2.5a29.078 29.078 0 0 0-5.285-1.375c-4.271-1.014-6.552-5.068-6.914-9.194-.434-4.923 1.448-9.52 2.027-14.334.326-2.425-.941-4.452-1.122-6.841-.145-2.425.253-4.814 0-7.276-.9-9.086-5.43-19.185-.181-27.763.543-.651-.4-1.195-.8-.579z" transform="translate(410.818 -603.76)" style="fill:#161616"/>
            </g>
        </g>
        <g data-name="Group 6395">
            <g data-name="Group 6394">
                <path data-name="Path 11784" d="M270.167 900.641c6.335-.941 11.294 4.126 13.936 9.266 2.534 4.851 3.837 10.244 6.624 14.986 2.353 3.982 5.792 7.312 10.425 8.325a14.867 14.867 0 0 0 11.981-2.5c4.525-3.4 6.479-9.013 7.493-14.37.145-.688-.9-.977-1.05-.289-.941 4.887-2.606 10.135-6.588 13.393a13.762 13.762 0 0 1-14.624 1.629c-9.665-4.814-9.737-17.954-15.891-25.7-3.041-3.837-7.674-6.516-12.669-5.792-.615.109-.326 1.158.362 1.05z" transform="translate(406.249 -621.713)" style="fill:#161616"/>
            </g>
        </g>
        <g data-name="Group 6397">
            <g data-name="Group 6396">
                <path data-name="Path 11785" d="M372.781 975.134c.036.072.072.109.109.181a3.99 3.99 0 0 0 .072-.652l-.181.181a3.982 3.982 0 0 1 .652-.073c-.615-.326-.9-1.7-1.122-2.317a20.4 20.4 0 0 1-.724-2.932c-.109-.76-.615-6.443.977-5.9.471.181.833 2.136.977 2.642a20.818 20.818 0 0 1 .507 3c.109.977.109 1.955.145 2.9 0 .434.036.869.036 1.3a3.935 3.935 0 0 1-.036.652.421.421 0 0 1-.29.543c.072-.688-1.013-.688-1.086 0a1.119 1.119 0 0 0 1.267 1.231c1.05-.109 1.194-1.267 1.194-2.1a32.492 32.492 0 0 0-.326-5.936c-.217-1.593-.543-3.873-1.7-5.1-2.136-2.317-2.86 2.208-2.9 3.439a17.385 17.385 0 0 0 .652 5.647c.326 1.086.8 3.294 1.918 3.873a.546.546 0 0 0 .652-.072l.181-.181a.5.5 0 0 0 .072-.652c-.036-.072-.072-.109-.109-.181a.535.535 0 1 0-.941.507z" transform="translate(341.896 -661.673)" style="fill:#161616"/>
            </g>
        </g>
        <g data-name="Group 6399">
            <g data-name="Group 6398">
                <path data-name="Path 11786" d="M353.1 1051.391a153.562 153.562 0 0 0 1.52 17.3c.109.688 1.158.4 1.05-.29a157.879 157.879 0 0 1-1.484-17.012c-.036-.688-1.122-.688-1.086 0z" transform="translate(352.891 -718.311)" style="fill:#161616"/>
            </g>
        </g>
        <g data-name="Group 6401">
            <g data-name="Group 6400">
                <path data-name="Path 11787" d="M353.334 1033.463c2.57-3.62 7.167-5.14 11.149-6.516a89.994 89.994 0 0 1 13.393-3.511c.688-.109.4-1.158-.29-1.05a89.6 89.6 0 0 0-15.311 4.2c-3.728 1.412-7.529 3-9.918 6.334-.362.579.579 1.122.977.543z" transform="translate(353.415 -700.129)" style="fill:#161616"/>
            </g>
        </g>
        <g data-name="Group 6403">
            <g data-name="Group 6402">
                <path data-name="Path 11788" d="M355.223 1044.5c4.271 2.281 8.434 4.018 13.357 2.715a34.469 34.469 0 0 0 12.778-6.986c.543-.434-.217-1.194-.76-.76a34.253 34.253 0 0 1-11.692 6.552c-4.85 1.484-8.868-.109-13.14-2.425-.615-.362-1.158.579-.543.9z" transform="translate(351.708 -710.953)" style="fill:#161616"/>
            </g>
        </g>
        <g data-name="Group 6405">
            <g data-name="Group 6404">
                <path data-name="Path 11789" d="M402.276 1050c.29 1.412.579 2.86.869 4.271.145.688 1.194.4 1.05-.29-.29-1.412-.579-2.86-.869-4.271-.145-.688-1.195-.4-1.05.29z" transform="translate(321.523 -717.315)" style="fill:#161616"/>
            </g>
        </g>
        <g data-name="Group 6407">
            <g data-name="Group 6406">
                <path data-name="Path 11790" d="M408.994 1047.467c.145 1.339.253 2.679.4 4.018.072.688 1.158.688 1.086 0-.145-1.339-.253-2.678-.4-4.018-.072-.688-1.158-.724-1.086 0z" transform="translate(317.231 -715.799)" style="fill:#161616"/>
            </g>
        </g>
        <g data-name="Group 6409">
            <g data-name="Group 6408">
                <path data-name="Path 11791" d="M271.653 1026.056c-.688 1.991 0 3.8 2.353 3.4a14.919 14.919 0 0 0 1.665-.543 3.163 3.163 0 0 1 1.158-.254c1.846.254.8.869 1.267 1.52a1.969 1.969 0 0 0 1.846 1.086c1.3-.036 3.873-1.267 4.742.326.326.652 0 2.389 0 3.185 0 .941.036 1.882.036 2.823a687.2 687.2 0 0 0 .326 12.343c.036.688 1.122.688 1.086 0-.253-6.335-.362-12.705-.4-19.076a.565.565 0 0 0-.253-.47 6.516 6.516 0 0 0-3.692-.615c-.9.109-1.3.47-2.172-.036-.832-.47-.543-.76-1.05-1.412a2.221 2.221 0 0 0-2.172-.724 8.148 8.148 0 0 0-1.593.507 3.047 3.047 0 0 1-.977.29c-.8-.036-1.375-1.267-1.086-2.027a.569.569 0 0 0-1.086-.326z" transform="translate(405.016 -702.243)" style="fill:#161616"/>
            </g>
        </g>
        <g data-name="Group 6411">
            <g data-name="Group 6410">
                <path data-name="Path 11792" d="M263.586 907.391c.036-4.163 1.376-11.692 7.312-10.244a.545.545 0 0 0 .29-1.05 6.356 6.356 0 0 0-6.516 2.462c-1.955 2.461-2.172 5.792-2.172 8.832a.543.543 0 0 0 1.086 0z" transform="translate(410.695 -619.449)" style="fill:#161616"/>
            </g>
        </g>
        <g data-name="Group 6413">
            <g data-name="Group 6412">
                <path data-name="Path 11793" d="M262.324 920.795c-.8 1.665.326 3.366 1.339 4.742 1.05 1.448 2.642 2.751 4.525 2.353 1.05-.217 1.774-1.158 2.823-1.339 1.158-.253 2.28.76 3.439.724 2.461-.109 3.945-2.462 5.719-3.765.543-.4.036-1.339-.543-.941-1.412 1.014-2.5 2.606-4.126 3.294-1.7.724-2.715-.543-4.344-.434s-2.57 1.774-4.307 1.339c-1.448-.362-4.344-3.692-3.547-5.429.253-.615-.688-1.195-.977-.543z" transform="translate(410.98 -635.134)" style="fill:#161616"/>
            </g>
        </g>
        <g data-name="Group 6415">
            <g data-name="Group 6414">
                <path data-name="Path 11794" d="M215.261 918.8q-2.606 11.4-6.045 22.551a54.029 54.029 0 0 1-3.909 10.425 32.414 32.414 0 0 1-5.973 7.348c-3.982 3.837-8.579 7.457-10.823 12.669-.9 2.1-1.158 4.271.9 5.755 2.28 1.665 5.647 1.593 8.289 1.339 4.054-.4 8.072-1.665 12.162-1.339 3.909.326 7.638 1.918 11.547.76a.545.545 0 0 0-.29-1.05c-3.511 1.05-6.95-.289-10.461-.724a29.9 29.9 0 0 0-8.615.579c-3.4.579-7.24 1.411-10.606.217-2.1-.724-3-2.281-2.244-4.416a15.986 15.986 0 0 1 2.136-3.946c3.077-4.416 7.565-7.6 11.185-11.547 4.054-4.452 5.9-9.773 7.674-15.456q3.475-11.348 6.154-22.913a.559.559 0 0 0-1.086-.253z" transform="translate(458.332 -633.793)" style="fill:#161616"/>
            </g>
        </g>
        <g data-name="Group 6417">
            <g data-name="Group 6416">
                <path data-name="Path 11795" d="M226.68 951.774c-.652 6.841-1.375 13.864-4.742 20.017a29.644 29.644 0 0 1-5.647 7.384c-2.063 1.955-4.452 3.511-6.588 5.357-1.593 1.375-3.873 3.439-4.018 5.719-.145 2.063 1.593 3.692 3.439 4.235 2.968.9 6.552-.181 9.592-.362a70.2 70.2 0 0 1 10.678.29c.688.073.688-1.013 0-1.086a65.215 65.215 0 0 0-9.954-.328 83.95 83.95 0 0 0-4.271.326 17.29 17.29 0 0 1-5.1.253c-2.063-.4-3.837-2.027-2.968-4.271a10.643 10.643 0 0 1 2.751-3.475c1.918-1.81 4.163-3.222 6.117-4.959a31.462 31.462 0 0 0 8.506-11.945c2.208-5.466 2.751-11.4 3.33-17.23.036-.615-1.05-.615-1.122.072z" transform="translate(446.949 -654.747)" style="fill:#161616"/>
            </g>
        </g>
        <g data-name="Group 6419">
            <g data-name="Group 6418">
                <path data-name="Path 11796" d="M289.494 1037.083a76.709 76.709 0 0 0 1.556 9.52c.145.688 1.195.4 1.05-.29a78.479 78.479 0 0 1-1.52-9.266c-.072-.651-1.158-.651-1.086.036z" transform="translate(393.475 -709.179)" style="fill:#161616"/>
            </g>
        </g>
        <g data-name="Group 6421">
            <g data-name="Group 6420">
                <path data-name="Path 11797" d="M314.065 909.844c5.792 4.452 15.13 7.023 21.9 3.258.615-.326.072-1.267-.543-.941-6.443 3.547-15.348.941-20.777-3.258-.615-.434-1.158.507-.579.941z" transform="translate(377.952 -627.658)" style="fill:#161616"/>
            </g>
        </g>
        <g data-name="Group 6423">
            <g data-name="Group 6422">
                <path data-name="Path 11798" d="M263.809 904.142c-.217-2.606.29-5.647 2.1-7.638 1.81-1.955 4.633-1.774 7.095-1.774 4.525.072 9.086.543 13.393-1.05.652-.253.362-1.3-.29-1.05-5.538 2.063-11.221.434-16.9 1.158-4.959.651-6.841 5.864-6.479 10.352.036.688 1.122.724 1.086 0z" transform="translate(410.58 -617.322)" style="fill:#161616"/>
            </g>
        </g>
        <g data-name="Group 6425">
            <g data-name="Group 6424">
                <path data-name="Path 11799" d="M264.536 904.823a17.306 17.306 0 0 1 2.534-6.986 5.891 5.891 0 0 1 2.751-2.642 11.284 11.284 0 0 1 3.982-.29c4.38.072 8.868.217 12.85-1.882.615-.326.072-1.267-.543-.941a18.032 18.032 0 0 1-8.362 1.774c-2.461.036-5.1-.4-7.529.072-4.235.833-6.19 6.914-6.733 10.57-.109.688.941 1.013 1.05.326z" transform="translate(410.071 -616.954)" style="fill:#161616"/>
            </g>
        </g>
        <g data-name="Group 6427">
            <g data-name="Group 6426">
                <path data-name="Path 11800" d="M263.7 895.052c.253-3.294.652-7.529 3.909-9.339 1.774-.977 4.09-.76 6.045-.8 1.7 0 3.4.036 5.14 0a31.716 31.716 0 0 0 9.737-1.412 46.918 46.918 0 0 0 8.506-4.308.543.543 0 0 0-.543-.941c-3.294 1.955-6.66 3.946-10.425 4.814-4.163.977-8.47.724-12.705.76-3.113.036-6.117.036-8.217 2.679-1.919 2.425-2.208 5.574-2.461 8.543-.109.688.977.688 1.013 0z" transform="translate(410.581 -608.124)" style="fill:#161616"/>
            </g>
        </g>
        <path data-name="Path 11801" d="M288.918 892.985c1.556 1.448-.471 4.2.941 6.66 1.846 3.185 7.167 3.584 11.221 3.4-2.136.579-5.393 1.918-7.2 4.923-3.185 5.285-.977 14.117 6.66 20.343.688 5.43 1.375 10.9 2.1 16.325l-6.081 5.321c.072 6.081.109 12.162.181 18.243a17.01 17.01 0 0 1-7.963.941c-3.33-.4-4.09-1.557-10.461-4.163-5.9-2.425-6.769-2.027-8.724-3.8a14.5 14.5 0 0 1-4.38-8.181c-.471-3.33.869-3.765 1.52-10.461a48.156 48.156 0 0 0 .181-7.2c-.145-3.221-.543-4.416-.941-7.963-.507-4.235-.253-5.1-.579-9.122-.8-10.353-2.932-12.235-1.52-17.483.579-2.136 1.267-4.814 3.62-6.262 2.932-1.846 5.068.326 11.221-.181 5.897-.508 8.612-2.897 10.204-1.34z" transform="translate(410.122 -617.241)" style="opacity:.05;fill:#6d6c6c"/>
        <path data-name="Path 11802" d="M268.564 900.565c-4.018.76-6.805 7.058-4.923 10.823a5.488 5.488 0 0 0 3.8 3.041c1.448.181 1.81-.76 3.982-.941 2.208-.181 2.606.688 4.38.362 1.3-.217 3.222-1.122 3.8-2.643 1.013-2.715-2.679-6.008-3.982-7.2-2.062-1.849-4.379-3.949-7.057-3.442z" transform="translate(410.35 -622.36)" style="opacity:.11;fill:#6d6c6c"/>
        <path data-name="Path 11803" d="M270.014 967.4c.869-.145 2.86 11.764 7.022 23.383a107.039 107.039 0 0 0 12.741 24.687 46.614 46.614 0 0 0-7.6-3.041 32.981 32.981 0 0 1-6.66-2.28 22.65 22.65 0 0 1-3.982-2.642 10.76 10.76 0 0 1-2.281-4.923c-.145-.833-.109-1.231.181-4.923a56.2 56.2 0 0 1 .579-6.443c.543-2.968 1.014-2.932 1.122-4.923.145-1.882-.253-2.244-.76-5.9-.434-3.185-.507-5.611-.579-7.2-.072-3.625-.145-5.761.217-5.795z" transform="translate(406.438 -665.05)" style="opacity:.14;fill:#6d6c6c"/>
    </g>
    <g data-name="Group 6554">
        <path data-name="Path 12058" d="M365.651 98.133a2.8 2.8 0 0 0-.869-4.482 2.648 2.648 0 0 0-3.565 2.544c.191 1.858 2.6 3.19 4.059 1.715a2.664 2.664 0 0 0 .75-2.3 1.994 1.994 0 0 0-.534-1.1c-.407-.351-1.26-.343-1.771-.447a.614.614 0 0 0-.678.279 2.88 2.88 0 0 0-.215 2.105.606.606 0 0 0 .877.359 1.651 1.651 0 0 0 .391-2.512.6.6 0 0 0-.845 0c-.654.574-1.356 1.523-.694 2.393a1.14 1.14 0 0 0 1.874 0c.455-.622-.582-1.22-1.037-.606.12-.167.167-.351.279-.518a2.917 2.917 0 0 1 .423-.407h-.845a.43.43 0 0 1-.151.638l.885.351a1.6 1.6 0 0 1 .1-1.188l-.678.279c.447.088 1.324 0 1.444.558a1.443 1.443 0 0 1-.3 1.172c-.758.925-2.169.04-2.145-1.013a1.483 1.483 0 0 1 2.074-1.117 1.6 1.6 0 0 1 .335 2.472c-.518.566.327 1.42.845.845z" transform="translate(-102.58 78.627)" style="fill:#dadada"/>
        <path data-name="Path 12059" d="m366.545 92.942 1.826-16.094c.088-.8-1.117-.8-1.2 0l-1.826 16.118c-.088.758 1.117.758 1.2 0z" transform="translate(-103.418 82.119)" style="fill:#dadada"/>
    </g>
    <path data-name="Path 12060" d="M472.249 220.004c2.01-1.569 3.511-3.8 1.285-5.885a.755.755 0 0 0-.873-.118c-1.413.775-2.991 1.962-2.589 3.845a2.295 2.295 0 0 0 3.011 1.8c1.893-.579 2.462-3.786 2.942-5.3l4.835-14.8-1.236.324a10.387 10.387 0 0 0 10.689 2.178l-.834-1.089a57.066 57.066 0 0 0-4.992 13.525c-.618 2.883-.922 5.728 1.422 7.846a.755.755 0 0 0 .893.118 4.129 4.129 0 0 0 2.315-5.169.745.745 0 0 0-.716-.539 5.051 5.051 0 0 0-3.207 1.373c-.549.451 0 1.51.706 1.226l2.7-1.108-.9-.9-1.422.981a.738.738 0 1 0-.392 1.422 2.314 2.314 0 0 0 3.227-1.962c.078-.481-.324-1.147-.9-.912l-2.677 1.069.716 1.236c-.9.755-.167-4.973-.157-5 .275-1.216.637-2.423.981-3.609a57.768 57.768 0 0 1 3.668-8.827c.265-.53-.186-1.3-.834-1.079a8.945 8.945 0 0 1-9.278-1.746.745.745 0 0 0-1.226.324l-3.305 10.131c-1.187 3.639-1.756 7.169-4.9 9.631-.745.579.294 1.608 1.04 1.04z"/>
    <path data-name="Path 12063" d="M372.722 186.741c1.126-.879 1.967-2.127.72-3.3a.423.423 0 0 0-.489-.066c-.791.434-1.676 1.1-1.451 2.154a1.286 1.286 0 0 0 1.687 1.011c1.061-.324 1.379-2.121 1.649-2.968l2.709-8.293-.693.181a5.82 5.82 0 0 0 5.99 1.215l-.467-.61a31.974 31.974 0 0 0-2.8 7.578c-.346 1.616-.516 3.209.8 4.4a.423.423 0 0 0 .5.066 2.314 2.314 0 0 0 1.3-2.9.418.418 0 0 0-.4-.3 2.83 2.83 0 0 0-1.8.769c-.308.253 0 .846.4.687l1.511-.621-.506-.506-.8.55a.415.415 0 1 0-.22.8 1.3 1.3 0 0 0 1.808-1.1c.044-.269-.181-.643-.506-.511l-1.5.6.4.692c-.506.423-.093-2.786-.088-2.8.154-.681.357-1.357.549-2.022a32.363 32.363 0 0 1 2.055-4.946c.148-.3-.1-.731-.467-.6a5.012 5.012 0 0 1-5.2-.978.418.418 0 0 0-.687.181l-1.855 5.669c-.665 2.039-.984 4.017-2.748 5.4-.418.324.165.9.583.583z"/>
    <g data-name="Group 6553">
        <path data-name="Path 12061" d="M636.719 237.305c-.593-1.013-2.4-2.067-2.184-3.342.207-1.165 1.02-.572 1.475.048a6.031 6.031 0 0 1 1.013 2.412l.5-.655-1.978.062a.517.517 0 1 0 0 1.034l1.978-.062a.524.524 0 0 0 .5-.689c-.255-1.309-2.012-5.375-3.907-3.562a2.419 2.419 0 0 0-.5 2.419c.407 1.144 1.619 1.8 2.212 2.825a.52.52 0 0 0 .9-.524z"/>
        <path data-name="Path 12062" d="M637.353 233.239a106.56 106.56 0 0 1-4.7-13.092l-.944.4c.606 1.013 4.92 10.1 6.925 5.843.283-.593-.613-1.123-.9-.517-.772 1.647-3.176-2.584-3.362-2.894l-1.771-2.956a.524.524 0 0 0-.951.4 107.541 107.541 0 0 0 4.823 13.333c.262.613 1.151.083.889-.517z"/>
    </g>
    <g data-name="Group 6555">
        <path data-name="Path 12061" d="M195.588 204.048c-.593-1.013-2.4-2.067-2.184-3.342.207-1.165 1.02-.572 1.475.048a6.031 6.031 0 0 1 1.013 2.412l.5-.655-1.978.062a.517.517 0 1 0 0 1.034l1.978-.062a.524.524 0 0 0 .5-.689c-.255-1.309-2.012-5.375-3.907-3.562a2.419 2.419 0 0 0-.5 2.419c.407 1.144 1.619 1.8 2.212 2.825a.52.52 0 0 0 .9-.524z"/>
        <path data-name="Path 12062" d="M196.222 199.982a106.56 106.56 0 0 1-4.7-13.092l-.944.4c.606 1.013 4.92 10.1 6.925 5.843.283-.593-.613-1.123-.9-.517-.772 1.647-3.176-2.584-3.362-2.894l-1.771-2.956a.524.524 0 0 0-.951.4 107.541 107.541 0 0 0 4.823 13.333c.262.613 1.151.083.889-.517z"/>
    </g>
    <g data-name="leg right">
        <path data-name="Path 11977" d="M307.058 325.661a36.645 36.645 0 0 0-.807 2.831 39.856 39.856 0 0 0-.76 3.971 19.754 19.754 0 0 1 5.4 2.323 19.379 19.379 0 0 1 2.523 1.862c.658 1.2 1.6 2.912 2.741 4.957 1.776 3.185 2.681 4.808 3.6 6.311 1 1.644 2.451 3.9 4.381 6.516a3.151 3.151 0 0 0 1.584-1.315 4.118 4.118 0 0 0-.1-3.33c-1.64-4.611.79-.875-2.267-8.621a129.8 129.8 0 0 0-5.551-12.139z"/>
        <path data-name="Path 11978" d="m180.38 338.013-3.014-.29a80.654 80.654 0 0 0-18.416-8.77 76.176 76.176 0 0 0-19.342-3.164 17.44 17.44 0 0 0-8.676 1.652 11.882 11.882 0 0 0-5.124 4.453c-.273.448-1.23 2.105-1.58 6.127a24.608 24.608 0 0 0 2.173 14 24.338 24.338 0 0 0 4.342 5.927 32.628 32.628 0 0 0 7.968 6.106c8.04 4.637 12.062 6.96 17.553 9.338 7.058 3.057 12.835 4.872 24.389 8.505a604.199 604.199 0 0 0 9.394 2.861 14.371 14.371 0 0 0 1.2-2.007 14.885 14.885 0 0 0 1.4-5.218c.457-4.7 1.584-9.287 2.331-13.937 1.687-10.5 3.416-10.653 2.754-13.664-.819-3.67-4.495-8.264-17.352-11.919z" transform="translate(112.271 -43.936)" style="fill:#fff"/>
        <path data-name="Path 11979" d="M126.675 336.73a26.559 26.559 0 0 0 .658 6.7 31.558 31.558 0 0 0 4.163 9.33c4.09 6.1 19.018 20.231 44.364 24.552a88.1 88.1 0 0 0 17.506 1.2 70.804 70.804 0 0 1-.555 3.578 78.759 78.759 0 0 1-1.985 8.42 165.29 165.29 0 0 1-10.248-2.327c-12.916-3.377-21.221-7.4-37.827-15.431a40.837 40.837 0 0 1-12.084-8.518 23.779 23.779 0 0 1-4.62-6.494 23.419 23.419 0 0 1-2.079-8.578 24.859 24.859 0 0 1 2.707-12.425z" transform="translate(112.322 -50.215)" style="opacity:.2;fill:#9e9e9e"/>
        <path data-name="Path 11980" d="M289.427 293.066a76.153 76.153 0 0 0-28.51-10.764c-7.519-1.191-19.765-2.229-23.557 6.319-1.772 4-1.533 9.031-.918 13.237a21.4 21.4 0 0 0 5.474 11.5 44.889 44.889 0 0 0 10.478 8 175.07 175.07 0 0 0 14.155 7.536c11.371 5.38 23.651 8.57 35.649 12.225.393.12.564-.5.171-.619-9.56-2.908-19.291-5.517-28.608-9.167a126.173 126.173 0 0 1-25.154-13.13 29.294 29.294 0 0 1-9.146-9.24c-2.378-4.163-2.908-9.116-2.745-13.839.184-5.312 2.165-9.744 7.408-11.669 4.611-1.708 9.688-1.469 14.483-.854a75.449 75.449 0 0 1 30.491 11.002c.35.218.67-.333.32-.555z"/>
        <path data-name="Path 11981" d="M268.002 298.86c11.507 9.078 25.256 14.347 38.856 19.462.389.145.555-.474.171-.619-13.471-5.073-27.143-10.295-38.557-19.3-.32-.252-.777.2-.453.453z"/>
        <path data-name="Path 11982" d="M306.84 318.347c.615 7.553-2.323 14.637-4.027 21.857-.094.4.525.572.619.171 1.708-7.28 4.667-14.415 4.048-22.028-.03-.427-.67-.427-.64 0z"/>
        <path data-name="Path 11983" d="M305.328 332.745a58.856 58.856 0 0 1 5.922 2.583c2.31 1.281 3.16 3.629 4.321 5.863a112.563 112.563 0 0 0 7.622 12.532c.235.333.79 0 .555-.325a112.8 112.8 0 0 1-8.343-13.945 10.343 10.343 0 0 0-3.027-4.18c-1.973-1.388-4.517-2.135-6.725-3.079-.376-.162-.705.393-.325.551z"/>
        <path data-name="Path 11984" d="M306.972 325.969c2.758.8 5.521 1.588 8.279 2.4 2.246.653 3.155 1.96 3.928 4.069l1.563 4.27c1.038 2.839 2.084 5.675 3.117 8.518.521 1.426 3.493 8.894.278 8.9a.32.32 0 0 0 0 .641c5.406 0-1.345-14.313-2.071-16.294l-2.267-6.2c-.427-1.178-.786-2.656-1.81-3.488-1.166-.952-3.044-1.166-4.449-1.571l-6.4-1.853a.321.321 0 0 0-.171.619z"/>
    </g>
    <g data-name="leg left">
        <path data-name="Path 11985" d="m315.581 333.842-8.967 15.038a49.631 49.631 0 0 0 4.061 2.9 37.15 37.15 0 0 0 12.622 5.214c1.281.256 3.779.73 4.1 0 .149-.325-.188-.828-1.734-2.4-2.34-2.383-4.005-3.745-4.005-3.745a423.276 423.276 0 0 0-4.979-4.014l4.8-11.157z"/>
        <path data-name="Path 11986" d="M293.37 379.321a97.164 97.164 0 0 1 2.366-5.085 102.48 102.48 0 0 1 6.657-11.362c4.27-6.375 7.609-11.409 13.339-16.977a56.391 56.391 0 0 1 11.781-8.941 33.2 33.2 0 0 1 11.264-3.484c1.8-.2 3.659-.243 4.983.944a5.057 5.057 0 0 1 1.469 3.241c.256 2.31-.854 4.112-1.785 5.726-4.385 7.485-1.016 3.224-4.633 8.493s-6.085 8.232-11.7 15.491a95.051 95.051 0 0 0-7.558 10.6 73.866 73.866 0 0 0-3.967 7.707 23.256 23.256 0 0 1-2.562.427 24.652 24.652 0 0 1-10.179-.978 24.065 24.065 0 0 1-9.479-5.8z" transform="translate(15.238 -48.283)" style="fill:#fff"/>
        <path data-name="Path 11987" d="M356.474 335.87a137.576 137.576 0 0 1-4.7 8.8 145.585 145.585 0 0 1-36.217 41.87 24.492 24.492 0 0 0 12.728.542c.982-2 2.5-4.927 4.586-8.326a122.917 122.917 0 0 1 8.424-11.853c5.231-6.751 5.905-6.853 9.24-11.7 3.676-5.35.991-2.515 5.6-10.371.854-1.43 2.105-3.535 1.657-6.046a6.772 6.772 0 0 0-1.324-2.921z" transform="translate(2.523 -49.722)" style="opacity:.15;fill:#9e9e9e"/>
        <path data-name="Path 11988" d="M309.039 330.537a140.05 140.05 0 0 1 14.236-23.412c5-6.635 10.764-12.955 17.976-17.216 3.766-2.225 8.168-4.163 12.592-4.355 3.1-.137 6.832.73 6.191 4.616a24.847 24.847 0 0 1-2.391 6.469c-3.318 6.947-8.181 13-12.955 18.984-5.239 6.571-10.5 13.237-13.868 20.986-.162.371.389.7.551.325 6.832-15.713 21.379-26.541 27.912-42.408 1.08-2.622 2.916-6.938-.371-8.779-3.617-2.024-8.924-.465-12.459.918-7.908 3.083-14.406 8.873-19.842 15.26a133.766 133.766 0 0 0-18.125 28.309c-.179.372.376.7.555.325z"/>
        <path data-name="Path 11989" d="M309.219 332.271a25.4 25.4 0 0 0 21.7 5.406c.4-.085.231-.7-.171-.619a24.71 24.71 0 0 1-21.072-5.239c-.314-.265-.773.187-.457.452z"/>
        <path data-name="Path 11990" d="m314.428 335.309-6.879 10.8c-.222.35.333.67.555.325l6.875-10.811c.222-.342-.329-.666-.551-.314z"/>
        <path data-name="Path 11991" d="m319.979 337.681-2.694 5.632c-.427.914-1.571 2.451-1.328 3.565.278 1.281 2.135 2.391 3.053 3.172a61.48 61.48 0 0 0 4.7 3.642c.427.3.854.593 1.281.884.909.606 1.076.367.645 1.622s-.389.982-1.435.713a60.17 60.17 0 0 1-1.456-.4 55.546 55.546 0 0 1-11.729-4.9 15.825 15.825 0 0 1-2.592-1.55 2.581 2.581 0 0 1-1.136-2.216 8.5 8.5 0 0 1 .956-1.87c.188-.367-.363-.692-.551-.324-.576 1.123-1.99 2.686-1.067 3.937a8.523 8.523 0 0 0 2.434 1.627q1.776 1.076 3.629 2.02a56.254 56.254 0 0 0 6.661 2.861c1.981.7 4.727 2 6.866 1.832.854-.064 1.605-.491 1.563-1.43-.064-1.469-2.477-2.472-3.416-3.13q-2.054-1.43-3.988-3.019c-.833-.688-2.78-1.853-3.219-2.848s.09-2.6.529-3.514l.854-1.759 2.024-4.223c.175-.371-.376-.7-.555-.324z"/>
    </g>
    <g data-name="arm right">
        <path data-name="Path 11992" d="M208.225 205.251c-.457.7-1.119 1.746-1.849 3.07-2.767 5.026-3.681 8.915-5.269 15.286-3.685 14.752-4.564 17.02-4.979 23.057a75.924 75.924 0 0 0-.179 5.551 25.679 25.679 0 0 0 15.017-8.441q1.781-3.9 3.74-7.921 1.6-3.266 3.207-6.4a46.191 46.191 0 0 1-9.688-24.219z" transform="translate(71.062 25.137)" style="fill:#fff"/>
        <path data-name="Path 11993" d="M223 236.26a31.876 31.876 0 0 1 .6 5.085c.363 10.4-4.552 18.523-7.575 22.63l6.447-2.43 6.947-14.313z" transform="translate(59.561 7.356)" style="opacity:.21;fill:#9e9e9e"/>
        <path data-name="Path 11994" d="M279.009 230.226c-4.27 6.371-5.978 13.9-7.874 21.221-2.1 8.138-4.022 16.328-4.722 24.718-.034.427.606.427.64 0 .7-8.335 2.617-16.465 4.7-24.547 1.87-7.259 3.582-14.744 7.81-21.067.231-.342-.324-.666-.555-.324z"/>
        <path data-name="Path 11995" d="M287.195 257.83a85.945 85.945 0 0 0-8.207 18.732.32.32 0 0 0 .615.171 85.271 85.271 0 0 1 8.134-18.578.321.321 0 1 0-.555-.324z"/>
    </g>
    <path data-name="Path 11996" d="M224.7 191.364c.077 3.881.282 9.261.854 15.662.734 8.42 1.328 15.226 3.441 23.484a100.389 100.389 0 0 0 7.515 20.038 25.76 25.76 0 0 0 14.56 7.045c11.307 1.388 19.287-5.619 20.5-6.734a213.58 213.58 0 0 0 6.26-40.564c.427-7.4.427-14.368.166-20.833a43.164 43.164 0 0 0-23.962-8.446 43.926 43.926 0 0 0-29.334 10.348z" transform="translate(54.586 39.025)" style="fill:#e6e6e6"/>
    <g data-name="arm left">
        <path data-name="Path 11997" d="M338.353 198.57a37 37 0 0 0-3.992 7.511 38.322 38.322 0 0 0-2.195 18.928 89.64 89.64 0 0 0 1.6 8.967c.931 4.005 1.934 7.062 2.814 9.731a148.877 148.877 0 0 0 2.263 6.328 15.219 15.219 0 0 0 2.583 2.028c2.165 1.345 4.436 1.99 8.074 2.387a39.738 39.738 0 0 0 15.269-.653 24.477 24.477 0 0 0 8.04-3.416 21.35 21.35 0 0 0 3.5-3.053l-6.076-2.293a21.439 21.439 0 0 1-5.389-.572c-3.16-.751-4.385-1.819-7.447-2.519a20.4 20.4 0 0 0-5.862-.448 198.126 198.126 0 0 0-1.631-14.223c-1.025-6.8-1.567-10.286-2.955-14.176a45.236 45.236 0 0 0-8.596-14.527z" transform="translate(-6.791 28.953)" style="fill:#fff"/>
        <path data-name="Path 11998" d="M337.212 202.62a67.8 67.8 0 0 0-1.738 13.4c-.145 4.953-.307 10.5 1.674 16.7 1.255 3.924 4.441 13.868 14.325 18.864 9.475 4.782 18.958 1.913 21.315 1.123a34.584 34.584 0 0 1-14.517 4.441 34.952 34.952 0 0 1-18.318-3.706 58.81 58.81 0 0 1-3.044-6.341 62.3 62.3 0 0 1-3.416-11.9c-1.328-6.909-2.331-12.143-1.281-18.787a39.284 39.284 0 0 1 5-13.794z" transform="translate(-6.769 26.633)" style="opacity:.22;fill:#9e9e9e"/>
        <path data-name="Path 11999" d="M331.336 227.749c11.627 10.888 10.939 27.989 13.16 42.523.064.406.679.235.619-.171-2.237-14.641-1.6-31.823-13.326-42.822-.3-.282-.751.171-.453.453z"/>
        <path data-name="Path 12000" d="M325.055 253.962a94.516 94.516 0 0 0 6.781 24.816c.158.376.713.051.551-.325a93.25 93.25 0 0 1-6.691-24.492c-.056-.4-.696-.405-.641.001z"/>
        <path data-name="Path 12001" d="M343.155 271.605c7.122-2.336 13.967 4.15 21.059 2.728.4-.081.231-.7-.171-.619-3.877.781-8.42-1.281-12.152-2.259-2.963-.781-5.909-1.452-8.907-.47-.383.129-.221.748.171.62z"/>
        <path data-name="Path 12002" d="M331.827 279.227c4.052 4.308 11.529 5 17.079 4.962a40 40 0 0 0 18.971-4.953c.363-.2.038-.752-.32-.555a39.338 39.338 0 0 1-17.933 4.859c-5.551.137-13.3-.457-17.357-4.765-.282-.3-.734.154-.453.453z"/>
    </g>
    <g transform="translate(263.897 238.194)">
        <path data-name="Path 12003" d="M369 256.242q11.529-3.2 23.514-6.832 11.243-3.416 21.964-6.939a8.583 8.583 0 0 1 0-3.651 9.762 9.762 0 0 1 4.415-5.914l-1.2-3.416 2.805-.854 1.14 3.126a9.5 9.5 0 0 1 3.113 1.512c.961.722 1.281 1.281 2.165 1.46a3.614 3.614 0 0 0 2.476-.623c1.862-1.067 1.892-2.455 3.873-4.031a9.444 9.444 0 0 1 1.81-1.123l-.7-3.8 2.336-.777 1.089 3.506a6.165 6.165 0 0 1 2.946-.038 7.162 7.162 0 0 1 5.068 7.43 6.217 6.217 0 0 1-2.271 3.722l.282 2.72a2.873 2.873 0 0 1-2.156.585 2.784 2.784 0 0 1-2.216-2.135 14.135 14.135 0 0 0-3.638 1.225 6.945 6.945 0 0 0-3.044 2.212c-.781 1.166-.427 1.827-1.179 3.19a6.323 6.323 0 0 1-2.105 2.178c.508.764 1.012 1.529 1.52 2.289l-2.861 1.375a3.354 3.354 0 0 0-1.345-2.528c-1.016-.568-1.738.226-3.8 0a11.61 11.61 0 0 1-3.954-1.375 17.95 17.95 0 0 1-1.9-1.072q-10.021 3.843-20.175 7.9-12.237 4.851-24.137 9.757-1.935-4.545-3.835-9.079z" transform="translate(-291.997 -224.03)" style="fill:#fff"/>
        <path data-name="Path 12004" d="m374.18 270.749 47.69-16.793c2.3 2.5 4.048 2.916 5.239 2.81 3.493-.325 3.582-5.307 8.54-7.647 3.775-1.789 6.046 0 8.937-2.088 2.272-1.652 3.074-4.381 3.39-6.52a5.89 5.89 0 0 1 1.046 4.872 6.027 6.027 0 0 1-2.869 3.292c-3.416 2.054-5.653.034-8.143 1.836-1.9 1.375-.956 2.81-3.441 5.5a10.616 10.616 0 0 1-4.7 3.143c-4.488 1.315-8.685-1.772-9.3-2.237l-44.244 17.336z" transform="translate(-294.965 -233.273)" style="opacity:.19;fill:#9e9e9e"/>
        <path data-name="Path 12005" d="M77.063 32.51q23.681-6.742 47.2-14c.393-.124.222-.743-.171-.619q-23.527 7.259-47.2 14a.321.321 0 1 0 .171.619z"/>
        <path data-name="Path 12006" d="M80.915 41.605q23.083-9.654 46.576-18.279c.384-.141.218-.76-.171-.615q-23.485 8.625-46.576 18.279c-.376.154-.209.773.171.615z"/>
        <path data-name="Path 12007" d="M123.421 18.121c-2.28-4.176 2.25-9.714 6.755-9.586 2.729.077 3.843 3.587 6.785 2.135a9.468 9.468 0 0 0 2.805-2.8 11.614 11.614 0 0 1 4.112-3.036c2.135-.965 4.582-1.315 6.635.064a5.666 5.666 0 0 1 2.494 5.107.32.32 0 1 0 .64 0 6.358 6.358 0 0 0-5.615-6.644 9.623 9.623 0 0 0-5.431 1.422c-1.968 1.08-3.014 2.583-4.517 4.176-1.076 1.14-1.751 1.456-3.258.978a6.1 6.1 0 0 1-2.19-1.2 4.411 4.411 0 0 0-1.793-.794 6.853 6.853 0 0 0-4.671 1.281c-3.13 2-5.265 5.64-3.322 9.2.2.363.752.038.555-.324z"/>
        <path data-name="Path 12008" d="M125.765 24.027c3.416 4.069 12.357 3.386 14.394-1.815.453-1.161.615-2.412 1.52-3.352a7.207 7.207 0 0 1 3.275-1.708c1.815-.512 3.74-.619 5.5-1.311 2.43-.952 4.432-3.343 3.249-5.978-.166-.376-.717-.051-.551.32 2.084 4.676-4.974 5.551-7.78 6.208-1.892.453-3.877 1.281-4.9 3.027-.751 1.281-.739 2.895-1.768 4.056a7.683 7.683 0 0 1-3.915 2.135c-2.989.777-6.49.487-8.578-2.011-.265-.316-.713.141-.453.453z"/>
        <path data-name="Path 12009" d="M141.905 1.439a8.8 8.8 0 0 0 1.332 3.16c.231.337.786 0 .555-.324a8.217 8.217 0 0 1-1.281-2.989c-.085-.4-.7-.231-.619.171z"/>
        <path data-name="Path 12010" d="M142.584 1.349a2.528 2.528 0 0 1 2.109-.683l-.312-.235 1.089 3.506c.124.389.743.222.619-.171L145 .26a.333.333 0 0 0-.307-.235 3.108 3.108 0 0 0-2.562.854c-.3.286.154.739.453.453z"/>
        <path data-name="Path 12011" d="M147.802 16.69c.512.231.521.91.786 1.349a1.6 1.6 0 0 0 .914.7 1.845 1.845 0 0 0 2.1-.7c.231-.342-.325-.666-.551-.324a1.183 1.183 0 0 1-1.951-.068c-.307-.559-.32-1.213-.978-1.507-.372-.166-.7.384-.32.555z"/>
        <path data-name="Path 12012" d="M150.846 15.418a3.237 3.237 0 0 0 .743 2.489c.261.32.713-.137.453-.453a2.635 2.635 0 0 1-.555-2.037c.052-.426-.59-.405-.641.001z"/>
        <path data-name="Path 12013" d="M125.611 5.905a8.5 8.5 0 0 0 1 3.121c.2.359.752.038.551-.324a7.725 7.725 0 0 1-.909-2.8c-.053-.398-.693-.403-.642.003z"/>
        <path data-name="Path 12014" d="M125.842 5.738a4.838 4.838 0 0 1 2.643-.8l-.32-.32a5.978 5.978 0 0 0 1.183 3.288c.243.324.8 0 .551-.325a5.346 5.346 0 0 1-1.093-2.963.329.329 0 0 0-.32-.32 5.469 5.469 0 0 0-2.968.888c-.342.223-.025.783.324.552z"/>
        <path data-name="Path 12015" d="M134.562 26.259a4.56 4.56 0 0 0 1.4 2.617c.3.282.751-.171.453-.453a4.01 4.01 0 0 1-1.238-2.336c-.056-.426-.675-.235-.615.172z"/>
        <path data-name="Path 12016" d="M137.157 24.927a3.923 3.923 0 0 0 1.388 2.694c.312.265.769-.184.453-.453a3.305 3.305 0 0 1-1.2-2.242c-.035-.405-.675-.426-.641.001z"/>
        <path data-name="Path 12017" d="M138.72 27.057a2.789 2.789 0 0 1-1.887 1.046c-.4.043-.427.683 0 .64a3.493 3.493 0 0 0 2.442-1.366c.248-.324-.307-.644-.555-.32z"/>
        <path data-name="Path 12018" d="M241.97 274.214a22.421 22.421 0 0 0-14.3 9.872 45.4 45.4 0 0 0-6.832 2.135 22.933 22.933 0 0 0-14.184-1.541 22.6 22.6 0 0 0-17.323 27.25 23.383 23.383 0 0 0 27.494 17.788 22.417 22.417 0 0 0 14.441-10.085 46.848 46.848 0 0 0 5.013-.777q1.392-.295 2.728-.662a22.907 22.907 0 0 0 13.13 1.1 22.63 22.63 0 0 0 17.323-27.25 23.379 23.379 0 0 0-27.49-17.83z" transform="translate(-188.707 -252.301)" style="stroke:#000;stroke-miterlimit:10;fill:#fff"/>
        <ellipse data-name="Ellipse 509" cx="10.564" cy="10.213" rx="10.564" ry="10.213" transform="translate(13.387 44.799)"/>
        <path data-name="Line 38" transform="translate(21.15 8.236)" style="fill:none;stroke:#000;stroke-miterlimit:10" d="M0 43.595 132.224 0"/>
        <path data-name="Line 39" transform="translate(29.642 10.025)" style="fill:none;stroke:#000;stroke-miterlimit:10" d="M0 41.806 123.702 0"/>
        <path data-name="Line 40" transform="translate(31.555 11.242)" style="fill:none;stroke:#000;stroke-miterlimit:10" d="M0 42.997 122.242 0"/>
        <path data-name="Line 41" transform="translate(31.794 12.122)" style="fill:none;stroke:#000;stroke-miterlimit:10" d="M0 45.487 122.242 0"/>
        <path data-name="Path 12019" d="M306.17 330.892a16.647 16.647 0 0 0 3.877.154c1.332-.1 4.833-.534 9.526-3.745 2.383-1.631 13.356-9.142 14.287-22.032a24.912 24.912 0 0 0-.786-8.168 20.95 20.95 0 0 1 3.309 6.883c2.643 9.906-2.34 22.148-11.8 26.9a20.247 20.247 0 0 1-13.373 1.977 17.715 17.715 0 0 1-5.038-1.968z" transform="translate(-255.994 -265.7)" style="opacity:.21;fill:#9e9e9e"/>
        <path data-name="Path 12020" d="M190.2 332.16a28.656 28.656 0 0 0 1.917 7.686c.623 1.533 3.843 9.163 10.944 13.493 7.857 4.8 18.646 4.441 28-.4a21.9 21.9 0 0 1-9.714 8.732c-8.51 3.779-19.214 1.558-25.935-5.06a22.814 22.814 0 0 1-5.212-24.451z" transform="translate(-188.658 -285.79)" style="opacity:.24;fill:#9e9e9e"/>
    </g>
    <g data-name="hand left">
        <path data-name="Path 12021" d="M423.1 285.4a7.686 7.686 0 0 0 2.643-4.351c.252-1.418-.026-2.835.854-4.88.559-1.281.939-1.345 1.068-1.337.47 0 .781.948.986 1.571a10.863 10.863 0 0 1 .427 4.381 3.558 3.558 0 0 0 1.281-.974c.794-.982.82-2.19.7-4.035-.256-3.958-.884-6.307-.1-6.716.248-.128.427.038 1.349-.1a6.609 6.609 0 0 0 1.2-.3 2.089 2.089 0 0 1 1.281 0 2.735 2.735 0 0 1 1.452 1.674 16.65 16.65 0 0 1 1.281 5c.307-2.669 1.1-4.539 2.032-4.611.568-.043 1.08.585 1.238.777a4.2 4.2 0 0 1 .5 3.386 9.782 9.782 0 0 1-1.746 4.044 41.587 41.587 0 0 1-6.678 7.361c-2.673 2.28-4.7 3.514-7.122 4.065a2.9 2.9 0 0 1-2.506-.184c-.963-.771-1.001-2.639-.14-4.771z" transform="translate(-58.747 -11.148)" style="fill:#f9f9f9"/>
        <path data-name="Path 12022" d="M442.765 274a18.645 18.645 0 0 1-1.516 5.944 20.111 20.111 0 0 1-3.732 5.478 42.151 42.151 0 0 1-10.367 8.271 19.817 19.817 0 0 0 4.381-1.422 22.789 22.789 0 0 0 8.54-7.152 23.991 23.991 0 0 0 2.942-4.932c1.371-3.062 1.149-4.27.786-5a3.364 3.364 0 0 0-1.034-1.187z" transform="translate(-61.421 -14.269)" style="opacity:.26;fill:#9e9e9e"/>
        <path data-name="Path 12023" d="M364.581 274.467c1.473-1.307 2.822-2.562 2.737-4.577-.055-1.4-.115-3.693.888-4.868l.32-.564a1.6 1.6 0 0 1 1.217 1.648 8.381 8.381 0 0 1 .111 3.061c-.03.427.611.427.641 0 .055-.747.081-7.135-2.161-5.572-1.025.717-1.541 3.249-1.657 4.355-.111 1.029.286 2.353-.107 3.313a8.878 8.878 0 0 1-2.442 2.75c-.312.275.145.727.453.454z"/>
        <path data-name="Path 12024" d="M370.511 269.902c2.323-1.093 2.263-3.591 1.968-5.807a25.471 25.471 0 0 1-.329-3.467 14.442 14.442 0 0 1 .12-2.011q1.947-.559 2.135 1.371a13.42 13.42 0 0 1 .7 6.358c-.047.427.594.406.64 0a13.745 13.745 0 0 0-.991-7.2c-.346-.769-1-2.233-2.135-1.921-1.281.354-1.114 2.472-1.11 3.416 0 2.7 1.853 7.229-1.324 8.719-.371.175-.047.726.325.555z"/>
        <path data-name="Path 12025" d="M374.632 258.382q1.832-.854 2.455.734l.286.5a8.814 8.814 0 0 1 .854 2.344 9.445 9.445 0 0 1-.192 4.654.321.321 0 0 0 .619.171 9.888 9.888 0 0 0-1.328-8.471c-.888-1.217-3.087-2.079-3.33.068-.047.427.594.427.64 0z"/>
        <path data-name="Path 12026" d="M379.397 264.71c.047-.73.427-4.4 1.4-4.65 1.559-.427 1.076 3.087.961 3.8a14.4 14.4 0 0 1-3.9 7.37c-3.177 3.454-7.43 7.169-12.208 7.874-.427.06-.235.675.167.619 3.531-.521 6.4-2.588 9.056-4.829 2.792-2.348 5.512-5 6.853-8.467.538-1.392 1.9-6.349-.094-7.259-2.088-.944-2.8 4.419-2.874 5.551-.026.427.615.427.64 0z"/>
    </g>
    <g data-name="hand right">
        <path data-name="Path 12027" d="M195.29 303.9a8.168 8.168 0 0 1 4.616-5.29 7.554 7.554 0 0 1 4.552-.243 18.06 18.06 0 0 1 7.818 5.9c2.062 2.805 2.084 4.829 4.321 7.9a20.008 20.008 0 0 0 6.4 5.628c1.281-.269 2.989-.632 5.051-1.029a11.953 11.953 0 0 1 4.428-.3c.636.094 2.3.35 2.4.944.167 1.05-4.65 2.272-4.526 2.733.09.346 3.049.615 5.709-.82 1.234-.666 2.263-1.623 4.27-2.011.854-.167 1.392-.128 1.661.184.478.551-.094 1.708-.2 1.921a4.624 4.624 0 0 1-2.763 2.173 4.428 4.428 0 0 1 2.622.35c1.213.589 2.468 1.956 2.25 3.236a2.28 2.28 0 0 1-.854 1.307c-2.408 2.049-8.706 1.776-9.851 1.708 3.574 2.562 4.112 3.527 3.92 3.941-.295.632-2.447.248-2.643.213a8.539 8.539 0 0 1-3.279-1.439 42.925 42.925 0 0 0-6.136-3.177 21.917 21.917 0 0 0-5.747-1.4c-5.517-.948-9.765-4.223-12.464-6.3A36.253 36.253 0 0 1 195.29 303.9z" transform="translate(71.439 -28.094)" style="fill:#f9f9f9"/>
        <path data-name="Path 12028" d="M196.2 311.18a31.824 31.824 0 0 0 5.068 7 34.439 34.439 0 0 0 6.106 4.957c6.281 4.27 10.675 7.237 17.374 9.394 5.337 1.708 8.006 2.562 11.456 1.746 3.638-.875 6.785-3.3 7.639-2.348.427.461.06 1.49-.265 2.037-.273.461-.978 1.332-3.984 1.836a19.641 19.641 0 0 1-6.319 0c3.753 1.823 4.453 2.758 4.33 3.279-.137.589-1.366.854-2.186.854-1.862.038-3.134-1.089-4.432-2a40.041 40.041 0 0 0-6.426-2.989c-4.445-1.845-5.013-1.05-8.642-2.472-3.518-1.379-5.747-3.207-8.92-5.811-2.784-2.284-5.124-4.2-7.28-7.5a26.555 26.555 0 0 1-3.519-7.983z" transform="translate(70.917 -35.574)" style="opacity:.25;fill:#9e9e9e"/>
        <path data-name="Path 12029" d="M266.4 275.891a35.986 35.986 0 0 0 27.933 23.424c.4.064.576-.555.171-.619a35.341 35.341 0 0 1-27.472-22.976c-.137-.388-.756-.222-.619.171z"/>
        <path data-name="Path 12030" d="M278.744 271.946c4.061 2.814 6.208 6.6 8.326 10.939 1.554 3.2 3.655 5.636 7.079 6.862.389.141.555-.478.171-.619-4.522-1.618-6.038-5.384-8.023-9.342a21.878 21.878 0 0 0-7.233-8.39c-.337-.231-.658.324-.32.55z"/>
        <path data-name="Path 12031" d="M294.196 290.046c2.865-.427 5.739-.961 8.621-1.26.371-.038 3.535-.474 2.447 1.307-.132.213-1.255.329-1.507.427a8.182 8.182 0 0 0-2.178 1.307c-.325.252.132.7.453.453 1.157-.914 2.43-1.016 3.651-1.661.346-.184.606-.2.828-.628.4-.769-.128-1.328-.786-1.644-1.238-.6-2.844-.226-4.138-.038-2.523.367-5.043.751-7.562 1.123-.427.06-.235.679.171.619z"/>
        <path data-name="Path 12032" d="M294.205 299.568c4.88.26 8.185 5.009 12.993 5.265.854.047 1.874-.192 1.674-1.281-.09-.482-.538-.751-.875-1.05a38.2 38.2 0 0 0-3.642-2.562c-.337-.239-.658.316-.325.551a13.4 13.4 0 0 1 2.43 1.708c.854.333.974.969.325 1.913a8.92 8.92 0 0 1-1.14-.29 20.775 20.775 0 0 1-4.206-2.092c-2.289-1.354-4.513-2.673-7.233-2.818-.427-.021-.427.619 0 .64z"/>
        <path data-name="Path 12033" d="M302.044 292.869c2.989.137 5.418-1.392 8.113-2.455a5.071 5.071 0 0 1 1.87-.623c2.784.38.175 2.2-.611 2.7a12.118 12.118 0 0 1-4.6 1.772c-.406.06-.235.675.171.619a12.114 12.114 0 0 0 5.7-2.515c.628-.534 1.883-1.857 1.388-2.805-.687-1.315-3.254-.1-4.095.231-2.63 1.033-5.008 2.562-7.938 2.434a.32.32 0 1 0 0 .64z"/>
        <path data-name="Path 12034" d="M304.303 300.34c3.181.824 9.2.914 11.072-2.562a2.771 2.771 0 0 0-.722-3.467c-1.426-1.281-3.463-1.042-5.2-.815-.4.051-.427.692 0 .641a7.526 7.526 0 0 1 3.8.128c3.232 1.281 1.452 4.009-.649 4.97a12.706 12.706 0 0 1-8.113.474.32.32 0 0 0-.171.615z"/>
        <path data-name="Path 12035" d="M305.601 297.95a19.13 19.13 0 0 0 8.685-1.708c.376-.171.051-.722-.324-.551a18.462 18.462 0 0 1-8.36 1.614.32.32 0 1 0 0 .641z"/>
    </g>
    <path data-name="Path 12036" d="M292.225 213.911a6.1 6.1 0 0 0-1.166 3.027c-.12 2.246 1.426 3.1 1.546 6 0 .316 0 .111-.252 2.758s-.371 4.052-.333 4.543a9.09 9.09 0 0 0 2.878 5.529 10.2 10.2 0 0 0 7.664 2.391 9.744 9.744 0 0 0 5.124-1.554c1.5-1.025 2.318-2.408 3.954-5.184a37.279 37.279 0 0 0 2.284-4.616 16.788 16.788 0 0 0 1.614-5.124c.149-1.746-.312-2.067-1.072-5.589a52.8 52.8 0 0 1-1.2-9.056c-.141-3.728.337-4.086-.209-4.7-2.899-3.209-17.391 6.113-20.832 11.575z"/>
    <path data-name="Path 12037" d="M260.517 156.268c.794.427 1.537.854 2.233 1.307l.307 1.311a33.681 33.681 0 0 1 9.535-8.719 11.1 11.1 0 0 1-.824-4.441c.047-1.665.461-2.135.149-2.831-.854-1.853-5.517-1.832-8.676-1.025a17.243 17.243 0 0 0-9.582 7.114q.538 2.383 1.072 4.769a36.752 36.752 0 0 1 5.786 2.515z" transform="translate(37.992 61.742)" style="fill:#f9f9f9"/>
    <path data-name="Path 12038" d="M304.265 144.619a37.582 37.582 0 0 0 .051 4.876 38.185 38.185 0 0 0 2.792 11.635l1.221-.192a32.358 32.358 0 0 1-2.075-9.355 3.343 3.343 0 0 0 2.434-.376c1.392-.892 1.43-2.69 1.443-3.416 0-.854.047-2.208-.888-2.865s-2.447-.4-3.689.658z" transform="translate(9.027 59.898)" style="fill:#f9f9f9"/>
    <path data-name="Path 12039" d="M291.234 147.751c-.137.2-.478.811-.171 2.656a12.465 12.465 0 0 0 1.388 3.954l1.665-.905a10.182 10.182 0 0 1-.662-1.742 10.558 10.558 0 0 1-.081-5.124 2.883 2.883 0 0 0-2.139 1.161z" transform="translate(16.631 58.739)" style="opacity:.25;fill:#9e9e9e"/>
    <path data-name="Path 12040" d="M309.047 144.954a4.108 4.108 0 0 1 1.174 2.007 4.852 4.852 0 0 1-1.921 4.748 2.532 2.532 0 0 0 1.345.286 3.143 3.143 0 0 0 2.2-1.5 4.835 4.835 0 0 0 .611-3.843 2.46 2.46 0 0 0-.645-1.435c-.975-.899-2.619-.317-2.764-.263z" transform="translate(6.683 59.811)" style="opacity:.2;fill:#9e9e9e"/>
    <path data-name="Path 12041" d="M291.323 210.815q.461 2.408 1.076 4.774a.321.321 0 1 0 .619-.171q-.615-2.37-1.076-4.769c-.077-.426-.7-.235-.619.166z"/>
    <path data-name="Path 12042" d="M298.85 211.755q.769 4.517 1.892 8.967a.324.324 0 0 0 .585.077 17.837 17.837 0 0 0 1.55-3.488c.124-.393-.5-.559-.619-.167a16.979 16.979 0 0 1-1.494 3.3l.589.077q-1.127-4.445-1.892-8.967c-.068-.427-.687-.235-.619.171z"/>
    <path data-name="Path 12043" d="M294.411 213.142a2.5 2.5 0 0 0 2.344 1.9 2 2 0 0 0 1.909-1.874c.026-.427-.615-.427-.64 0a1.358 1.358 0 0 1-1.456 1.23 1.874 1.874 0 0 1-1.537-1.426c-.12-.39-.74-.227-.62.17z"/>
    <path data-name="Path 12044" d="M302.869 212.214c1.96 2.1 4.97.269 5-2.3a.32.32 0 1 0-.64 0c0 2.024-2.336 3.527-3.9 1.849-.289-.299-.741.151-.46.451z"/>
    <path data-name="Path 12045" d="M291.96 213.749a6.776 6.776 0 0 0-1.149 4.953c.427 2.562 2.314 4.347 2.37 7.105a.32.32 0 1 0 .64 0 9.462 9.462 0 0 0-1.247-4.5c-1.328-2.464-1.678-4.808-.06-7.259.226-.342-.325-.666-.555-.324z"/>
    <path data-name="Path 12046" d="M292.19 222.19c.427 2.792-.905 5.465-.427 8.279a10.008 10.008 0 0 0 2.711 5.35 9.849 9.849 0 0 0 11.319 1.674c.371-.179.047-.73-.325-.551a9.119 9.119 0 0 1-11.99-3.488 9.71 9.71 0 0 1-.986-6.669 14.445 14.445 0 0 0 .316-4.744c-.064-.427-.683-.235-.619.171z"/>
    <path data-name="Path 12047" d="M292.382 215.935c3.01.38 5.529 2.024 7.993 3.681.342.231.666-.32.325-.551-2.562-1.738-5.175-3.373-8.318-3.77-.427-.056-.427.589 0 .64z"/>
    <path data-name="Path 12048" d="M302.387 219.107c2.135-2.891 5.551-4.8 8.433-6.866.333-.239 0-.794-.32-.555-2.989 2.135-6.452 4.112-8.668 7.1-.243.333.312.649.555.325z"/>
    <path data-name="Path 12049" d="M310.875 211.831a11.315 11.315 0 0 1-.376-7.173.32.32 0 0 0-.615-.171 11.922 11.922 0 0 0 .371 7.515c.149.38.769.214.619-.171z"/>
    <path data-name="Path 12050" d="M313.01 202.758c-.1 4.172-.192 8.412.88 12.481.534 2.028 1.358 3.988 1.345 6.119a10.2 10.2 0 0 1-2.81 6.832c-.282.3.171.756.453.453a10.9 10.9 0 0 0 2.639-10.1 58.046 58.046 0 0 1-1.734-7.6 63.915 63.915 0 0 1-.132-8.19.32.32 0 0 0-.641 0z"/>
    <path data-name="Path 12051" d="M312.797 227.886c-1.14 1.64-1.281 3.591-2.135 5.35a6.789 6.789 0 0 1-5.179 3.676c-.406.064-.235.679.171.619a7.413 7.413 0 0 0 4.7-2.639c1.588-1.968 1.554-4.637 2.989-6.682.235-.337-.32-.658-.555-.324z"/>
    <path data-name="Path 12052" d="M314.88 205.931a2.08 2.08 0 0 1 2.857-1.1c1.106.453 1.208 1.939 1.076 2.925-.209 1.52-1.025 3.967-3.066 3.689-.4-.055-.576.564-.167.619 2.9.4 4.441-3.582 3.8-5.978a2.669 2.669 0 0 0-5.124-.346c-.162.38.457.547.615.171z"/>
    <path data-name="Path 12053" d="M314.961 211.481a36.314 36.314 0 0 0 1.9 9.035c.132.389.751.222.615-.167a35.808 35.808 0 0 1-1.874-8.868c-.034-.427-.675-.427-.641 0z"/>
    <path data-name="Path 12054" d="M295.581 211.192a3.3 3.3 0 0 1 1.789-.47.32.32 0 1 0 0-.64 3.924 3.924 0 0 0-2.109.555.32.32 0 1 0 .32.555z"/>
    <path data-name="Path 12055" d="M303.112 209.239a4.436 4.436 0 0 1 2.963-.427c.406.081.576-.534.171-.615a5.124 5.124 0 0 0-3.454.491c-.367.192-.043.743.32.555z"/>
    <path data-name="Path 12056" d="M239.5 120.624q-8 7.331-6.832 9.317 2.058 3.523 32.985-9.791c.141-.581 1.652-7.105-2.852-12.165a13.408 13.408 0 0 0-14.09-3.612c-6.135 2.071-10.217 8.847-9.211 16.251z" transform="translate(50.106 83.317)" style="fill:#dadada"/>
</svg>
