<svg xmlns="http://www.w3.org/2000/svg" width="25.113" height="25.113" viewBox="0 0 25.113 25.113">
    <path data-name="Path 12861" d="M27.113 14.557A12.557 12.557 0 1 1 14.557 2a12.557 12.557 0 0 1 12.556 12.557z" transform="translate(-2 -2)" style="fill:#62b554"/>
    <path data-name="Path 12862" d="M19.149 8.33a1.256 1.256 0 0 1 .077 1.774l-6.906 7.534a1.256 1.256 0 0 1-1.851 0L7.33 14.214a1.256 1.256 0 0 1 1.851-1.7l2.214 2.415 5.981-6.524a1.256 1.256 0 0 1 1.773-.075z" transform="translate(-.722 -.466)" style="fill:#fff;fill-rule:evenodd"/>
</svg>
