<svg xmlns="http://www.w3.org/2000/svg" width="269.001" height="219.543" viewBox="0 0 269.001 219.543">
    <g style="mix-blend-mode:luminosity;isolation:isolate">
        <g transform="translate(13.435 -4.76)">
            <g data-name="Group 6557">
                <g data-name="Group 6556">
                    <path data-name="Path 12064" d="M229.035 615.351c.281.964 1.346 1.085 2.19.8.9-.3 1.687-1.306 2.712-.783.542.281.884.884 1.486 1.065 1.265.4 1.828-.964 2.812-1.406 1.386-.623 2.712 1 4.138.763a2.481 2.481 0 0 0 1.306-.8c.864-.783 1.466-.462 2.27.181.723.583 1.507 1.346 2.511 1.165 1.547-.3 1.808-2.35 3.676-1.808 1.185.341 2.27 1.326 3.576 1.1a3.24 3.24 0 0 0 1.647-1.024 2.528 2.528 0 0 1 2.652-.864c1.366.341 2.652 1.205 4.078.562.341-.161.04-.683-.3-.522-1.326.623-2.772-.522-4.1-.723a3.125 3.125 0 0 0-2.752 1.125 2.229 2.229 0 0 1-2.169.8 15.372 15.372 0 0 1-2.049-.884 2.493 2.493 0 0 0-2.631.2c-.5.382-.844 1.045-1.406 1.326-.8.422-1.547-.241-2.129-.723-.623-.5-1.366-1.185-2.25-.984a2.4 2.4 0 0 0-1.125.763c-.844.763-1.587.522-2.551.12s-1.928-.763-2.872-.141c-.643.4-1.125 1.306-1.948 1.205-.7-.08-1.045-.824-1.687-1.1a1.969 1.969 0 0 0-1.647.08c-.583.261-2.431 1.647-2.812.362-.161-.4-.743-.241-.623.141z" transform="translate(-229.019 -503.063)" style="fill:#e8e8e8"/>
                </g>
            </g>
            <g data-name="Group 6559">
                <g data-name="Group 6558">
                    <path data-name="Path 12065" d="M317.055 597.539c.723-1 2.431.884 3.415.763 1.205-.141 1.366-1.687 2.772-1.306.924.241 1.728.944 2.732.884 1.165-.06 1.888-1.406 3.093-1.1.824.2 1.547.964 2.431.864a1.464 1.464 0 0 0 .864-.5c.362-.321.141-.9 1.145-.562.321.121.583.5.8.743.562.643 1.165 1.145 2.049.824a6.277 6.277 0 0 1 2.069-.683 3.679 3.679 0 0 1 2.431.824c.3.241.723-.181.422-.422a4.352 4.352 0 0 0-3.134-.984 6.222 6.222 0 0 0-1.507.442c-1.486.562-1.607-.382-2.511-1.065-.864-.643-1.426-.442-2.089.261-.382.422-.562.583-1.145.4a6.285 6.285 0 0 1-.9-.442 2.9 2.9 0 0 0-1.286-.382c-1.306-.02-1.989 1.426-3.375 1.1-.984-.241-1.908-1.1-2.973-.864a2.13 2.13 0 0 0-1.1.763 1.577 1.577 0 0 1-1.527.462c-.362-.08-.7-.462-1.045-.623a1.6 1.6 0 0 0-2.129.3c-.241.3.281.6.5.3z" transform="translate(-298.919 -489.349)" style="fill:#e8e8e8"/>
                </g>
            </g>
            <g data-name="Group 6561">
                <g data-name="Group 6560">
                    <path data-name="Path 12066" d="M1228.477 99.974c.362-.944 1.627.362 1.969.583a1.729 1.729 0 0 0 1.245.362c.643-.06 1.165-.462 1.808-.5a6.153 6.153 0 0 1 1.808.362 3.55 3.55 0 0 0 2.792.04c.663-.382.984-.884 1.788-.462a3.3 3.3 0 0 0 1.165.562c.984.121 1.788-.562 2.692-.783 1.085-.241 1.466 1 2.571.7.723-.2 1.165-.643 1.969-.643a7.622 7.622 0 0 1 1.888.341 7.354 7.354 0 0 0 3.294.341c.382-.08.221-.663-.161-.583-1.507.281-2.913-.462-4.4-.643a4.016 4.016 0 0 0-1.386.02c-.683.141-1.306.824-2.049.442-.442-.241-.542-.562-1.1-.623a2.8 2.8 0 0 0-1.145.181 13.41 13.41 0 0 1-1.486.583c-.924.221-1.266-.4-2.049-.663-1.085-.362-1.707.9-2.752.924-1.286.02-2.43-.824-3.736-.683-.763.08-1.426.623-2.23.362-.5-.181-.844-.763-1.346-.984a1.242 1.242 0 0 0-1.768.583.325.325 0 0 0 .623.181z" transform="translate(-1027.207 -92.34)" style="fill:#e8e8e8"/>
                </g>
            </g>
            <g data-name="Group 6563">
                <g data-name="Group 6562">
                    <path data-name="Path 12067" d="M1278.909 90.684c.864-.7 2.23.121 3.174.221a2.3 2.3 0 0 0 1.1-.121c.663-.241 1.1-.824 1.868-.844 1.085-.04 1.948.9 3.053.9a4.723 4.723 0 0 0 1.466-.341 2.086 2.086 0 0 1 2.23.181 1.642 1.642 0 0 0 1.908.2c.783-.362 1.225-.583 2.029-.121a11.764 11.764 0 0 0 1.265.763 3.738 3.738 0 0 0 2.993-.341c1.044-.462 2.993-1.286 3.656.221.161.362.683.04.522-.3-1.065-2.431-4.058-.341-5.645-.02-1.547.3-2.31-1.286-3.756-1.225a3.016 3.016 0 0 0-1.245.462c-.984.482-1.326-.281-2.109-.583-1.165-.442-2.17.542-3.314.5-1.245-.02-2.23-1.225-3.535-.884a9.628 9.628 0 0 0-1.406.783 3.17 3.17 0 0 1-2.23-.121 2.528 2.528 0 0 0-2.451.241c-.3.241.12.663.422.422z" transform="translate(-1067.596 -84.537)" style="fill:#e8e8e8"/>
                </g>
            </g>
            <g data-name="Group 6565">
                <g data-name="Group 6564">
                    <path data-name="Path 12068" d="M1263.242 1034.37c.824-1.426 2.893.442 4 .5 1.426.08 2.551-1.466 3.977-.763 1.065.522 1.768 1.165 3.033.984 1.507-.221 2.812-1.286 4.359-1.326a2.345 2.345 0 0 1 1.225.281 5.213 5.213 0 0 0 .723.542 1.036 1.036 0 0 0 1.024-.08 15.6 15.6 0 0 1 1.567-1.225 4.124 4.124 0 0 1 2.069-.422c1.286.06 2.33 1.044 3.636.844.7-.12 1.306-.542 1.989-.723a2.864 2.864 0 0 1 2.491.583c.3.241.6-.281.3-.522a3.463 3.463 0 0 0-3.535-.442 3.429 3.429 0 0 1-3.033.141 5.529 5.529 0 0 0-1.587-.462 4.674 4.674 0 0 0-3.435.984c-.2.161-.4.482-.623.583-.663.321-1.044-.241-1.547-.462a2.981 2.981 0 0 0-1.627-.2c-1.687.181-3.314 1.667-5.042 1.286-1.346-.281-2.029-1.507-3.515-1.085-.643.181-1.185.623-1.848.783-1.025.261-1.768-.422-2.672-.743a1.977 1.977 0 0 0-2.491.6c-.161.362.362.663.562.341z" transform="translate(-1055.022 -838.078)" style="fill:#e8e8e8"/>
                </g>
            </g>
            <g data-name="Group 6567">
                <g data-name="Group 6566">
                    <path data-name="Path 12069" d="M1318.372 1012.343c.442-1.507 2.651-.141 3.555-.08a4.188 4.188 0 0 0 2.431-.884 2.408 2.408 0 0 1 1.788-.5 6.762 6.762 0 0 1 1.707.844 2.8 2.8 0 0 0 2.23.2 18.756 18.756 0 0 0 2.33-1.266c1.366-.683 2.35-.06 3.736.06a2.622 2.622 0 0 0 2.049-.723 3.6 3.6 0 0 1 4.078-.7c.341.161.663-.342.3-.522a4.092 4.092 0 0 0-3.073-.281c-1.386.442-2.049 1.868-3.656 1.567-1.125-.221-2.069-.6-3.194-.161-1.024.4-1.868 1.266-2.953 1.527-1.366.321-2.23-.924-3.475-1.145a3.924 3.924 0 0 0-2.652.884 2.723 2.723 0 0 1-2.39.342 5.482 5.482 0 0 0-1.687-.422 1.689 1.689 0 0 0-1.728 1.125.31.31 0 0 0 .6.141z" transform="translate(-1099.064 -818.943)" style="fill:#e8e8e8"/>
                </g>
            </g>
            <g data-name="Group 6569">
                <g data-name="Group 6568">
                    <path data-name="Path 12070" d="M315.435 300.238a4.708 4.708 0 0 1 4.721-1.486c1.406.382 2.491 1.366 4.017 1 1.386-.341 2.39-1.466 3.736-1.908 1.507-.5 2.973.261 4.359.763a4.7 4.7 0 0 0 3.535.2c.924-.382 1.587-.944 2.652-.743a15.543 15.543 0 0 1 2.049.723c1.748.6 3.294 0 5.042-.2a17.074 17.074 0 0 1 5.886.462.3.3 0 0 0 .161-.583 17.432 17.432 0 0 0-5.685-.522c-.924.08-1.808.261-2.692.422a5.484 5.484 0 0 1-3.154-.4 4.185 4.185 0 0 0-3.957.02c-1.707.864-3.093.241-4.761-.382a5.243 5.243 0 0 0-3.857-.261c-1.386.542-2.611 1.969-4.2 1.888a10.828 10.828 0 0 1-2.692-.984 5.244 5.244 0 0 0-2.089-.241 5.338 5.338 0 0 0-3.5 1.788c-.241.3.181.723.422.442z" transform="translate(-297.682 -250.582)" style="fill:#e8e8e8"/>
                </g>
            </g>
            <g data-name="Group 6571">
                <g data-name="Group 6570">
                    <path data-name="Path 12071" d="M425.364 278.573c1.466-1.748 3.776.422 5.243 1 1.667.663 2.913-.121 4.479-.6 1.165-.362 1.928.06 2.973.542a2.164 2.164 0 0 0 1.828.12c.824-.382 1.406-1.165 2.25-1.567a5.345 5.345 0 0 1 3.355-.341c.382.08.542-.5.161-.583a5.956 5.956 0 0 0-4.881 1.045c-.643.482-1.145 1.165-2.069.944a9.71 9.71 0 0 1-1.386-.663 3.275 3.275 0 0 0-2.39-.08 9.87 9.87 0 0 1-2.993.884c-1.165-.02-2.129-.844-3.093-1.366-1.225-.643-2.913-.984-3.917.221-.241.321.2.743.442.442z" transform="translate(-385.515 -234.541)" style="fill:#e8e8e8"/>
                </g>
            </g>
            <circle data-name="Ellipse 510" cx="1.989" cy="1.989" r="1.989" transform="translate(48.125 66.067)" style="fill:#ec615b"/>
            <circle data-name="Ellipse 512" cx="1.607" cy="1.607" r="1.607" transform="translate(252.352 138.964)" style="fill:#ec615b"/>
            <circle data-name="Ellipse 513" cx="1.527" cy="1.527" r="1.527" transform="translate(142.656 188.438)" style="fill:#ec615b"/>
            <circle data-name="Ellipse 514" cx=".924" cy=".924" r=".924" transform="translate(164.892 5.062)" style="fill:#461eb8"/>
            <circle data-name="Ellipse 515" cx="1.667" cy="1.667" r="1.667" transform="translate(44.128 81.494)" style="fill:#461eb8"/>
            <circle data-name="Ellipse 516" cx="1.446" cy="1.446" r="1.446" transform="translate(245.302 153.467)" style="fill:#461eb8"/>
        </g>
        <path data-name="Path 12072" d="M163.7 337.6a34.242 34.242 0 0 0 6.408 1.969 33.731 33.731 0 0 0 11.309.241c2.571-.341 9.983-1.567 21.112-7.914 10.988-6.247 18.179-13.237 23.582-18.561A151.759 151.759 0 0 0 237.44 300.9c7.493-9.18 9.7-14.121 17.717-21.835 4.821-4.64 7.472-6.187 9.019-6.99 1.507-.783 5.906-2.913 15.648-3.776 6.548-.583 11.229-.2 19.244.482 9.019.763 15.969 1.908 21.473 2.812 6.107 1 11.229 2.009 14.925 2.792a61.3 61.3 0 0 0 4.359-10.285c2.029-6.307 1.888-9.4 4.218-22.879a109.753 109.753 0 0 1 2.451-12.193 59.543 59.543 0 0 1 7.714-16.13c.884 2.37 1.768 4.721 2.672 7.091a22.078 22.078 0 0 1 4.319-4.078 22.41 22.41 0 0 1 5.444-2.852 11.2 11.2 0 0 0 1.507 8.6c.9-.743 1.828-1.507 2.732-2.25l6.749-5.544c.522 1.065 1.024 2.129 1.547 3.194 1 2.089 2.009 4.158 3.033 6.247a109.804 109.804 0 0 0 5.162-5.062 104.5 104.5 0 0 0 2.933-3.214 34.563 34.563 0 0 1 4.158 9.662 20.1 20.1 0 0 1 2.35-3.114 21.6 21.6 0 0 1 9.782-6.006 41.405 41.405 0 0 0-.623 2.993 46.6 46.6 0 0 0-.623 10.787 21.539 21.539 0 0 1 2.21-1.768 22.877 22.877 0 0 1 11.209-4.078 37.324 37.324 0 0 0-4.178 5.725 38.974 38.974 0 0 0-4.118 10.1c-2.23 8.135-2.431 15.005-2.652 24.165-.08 3.334-.06 5.745-.02 10.566.04 3.756.1 10.486.462 17.617.583 11.229 1.326 12.253 2.19 26.254.583 9.4.442 12.213.261 14.443a63.329 63.329 0 0 1-3.614 16.434 42.97 42.97 0 0 1-5.343 10.747c-2.41 3.455-4.781 6.749-9.16 8.537a16.386 16.386 0 0 1-7.513 1.1 142.441 142.441 0 0 1-15.146-.08c-1.928-.12-6.709-.422-12.936-1.326a142.81 142.81 0 0 1-21.775-4.841c-2.049-.643-4.8-1.727-10.285-3.9a19.607 19.607 0 0 1-4.721-2.37 15.5 15.5 0 0 1-5-5.564 16.183 16.183 0 0 1-1.527-4.72 19.166 19.166 0 0 1 .422-7.493 31.541 31.541 0 0 1 2.913-8.2 142.107 142.107 0 0 0-7.774 9.28 136.564 136.564 0 0 0-8.577 12.434c-2.551 4.238-2.872 5.424-7.332 14.443-5.444 11.008-8.216 16.592-11.108 20.449a63.77 63.77 0 0 1-11.55 11.932 60.27 60.27 0 0 1-13.941 8.135 16.305 16.305 0 0 0 2.812-12.354 32 32 0 0 1-15.045 7.633 39.462 39.462 0 0 0 1.446-6.247 40.65 40.65 0 0 0 .281-9.582 32.761 32.761 0 0 1-14.965 10.144 23.418 23.418 0 0 0 2.471-5.825 24.087 24.087 0 0 0 .7-8.758 17.909 17.909 0 0 1-3.817 2.812 19.812 19.812 0 0 1-12.133 2.129 21.271 21.271 0 0 0 2.069-3.7 19.541 19.541 0 0 0 1.527-7.774 23.812 23.812 0 0 1-3.616 3.053 25.178 25.178 0 0 1-13.017 4.279 22.886 22.886 0 0 0 2.31-3.455 22.044 22.044 0 0 0 2.491-7.914 65.6 65.6 0 0 1-5.906 2.872c-4.8 2.049-6.649 2.189-8.256 1.667a6.26 6.26 0 0 1-1.466-.7 42.3 42.3 0 0 0 3.535-4.68 40.992 40.992 0 0 0 4.3-8.879 25.656 25.656 0 0 1-3.776 1.406c-3.214.924-5.725.984-14.262 1.024-2.491.02-4.479.02-5.584.02a35.125 35.125 0 0 0 5.3-3.013 37.579 37.579 0 0 0 7.231-6.388 29.964 29.964 0 0 1-3.033.442 36.03 36.03 0 0 1-17.717-2.631c1.426-.462 2.571-.944 3.395-1.286a17.862 17.862 0 0 0 5-2.772 12.221 12.221 0 0 0 1.948-2.089 33.973 33.973 0 0 1-6.629-2.009A34.609 34.609 0 0 1 163.7 337.6z" transform="translate(-163.386 -188.071)" style="fill:#fff"/>
        <path data-name="Path 12073" d="M913.707 635.469a42.173 42.173 0 0 0-2.33 4.64c-1.647 3.857-3.093 7.231-2.672 11.53a16.366 16.366 0 0 0 1.828 6.066 16.566 16.566 0 0 0 2.752 3.7c3.234 3.294 7.211 4.6 9.823 5.424 9.622 3.033 14.443 4.56 15.688 4.861a149.036 149.036 0 0 0 22.237 3.7 144.153 144.153 0 0 0 20.589.321 10.347 10.347 0 0 1-4.761-1.888c-.5-.362-2.611-1.989-4-6.187a23.762 23.762 0 0 1-.623-11.369c1.165-7.754 3.977-13.559 7.131-19.886 1.928-3.877 2.692-4.881 5.544-10.747A49.05 49.05 0 0 0 989.2 614.4a19.723 19.723 0 0 0 .562-7.834 13.735 13.735 0 0 0-1.888-5.524 13.012 13.012 0 0 0-4.721-4.439 77.943 77.943 0 0 0-10.486.964 80.33 80.33 0 0 0-19.284 5.7c-9.963 4.359-16.411 9.662-22.317 14.583a123.4 123.4 0 0 0-17.359 17.619z" transform="translate(-758.682 -494.696)" style="fill:#9b9797;opacity:.18"/>
        <g data-name="Group 6573">
            <g data-name="Group 6572">
                <path data-name="Path 12074" d="M.916 149.774c14.242 6.93 31.155-.723 43.268-8.7 12.836-8.477 23.442-19.866 33.144-31.7 2.491-3.033 4.921-6.107 7.332-9.18 2.471-3.154 4.881-6.408 7.633-9.341a31.081 31.081 0 0 1 9.642-7.091 39.059 39.059 0 0 1 11.671-3.013c8.437-.944 17.094-.281 25.511.542a252.977 252.977 0 0 1 26.857 4.2c17.757 3.7 35.153 8.959 52.408 14.5l6.508 2.109c.362.121.522-.462.161-.583-17.235-5.6-34.55-11.068-52.227-15.146-17.054-3.937-34.771-6.87-52.327-6.649-7.533.1-15.387 1.125-21.935 5.1-6.689 4.058-11.169 10.887-15.929 16.913-9.541 12.093-19.565 24.024-31.7 33.626a90.957 90.957 0 0 1-19.766 12.072c-7.432 3.274-15.969 5.424-24.085 3.776a24.7 24.7 0 0 1-5.906-2.009c-.3-.121-.623.4-.261.562z"/>
            </g>
        </g>
        <g data-name="Group 6575">
            <g data-name="Group 6574">
                <path data-name="Path 12075" d="M.093 149.731a40.642 40.642 0 0 0 17.456 9.622.302.302 0 0 0 .161-.583 39.853 39.853 0 0 1-17.195-9.461c-.281-.261-.7.161-.422.422z"/>
            </g>
        </g>
        <g data-name="Group 6577">
            <g data-name="Group 6576">
                <path data-name="Path 12076" d="M17.126 159.252c-2.511 3.013-6.327 4.218-9.963 5.3a.307.307 0 0 0 0 .583 36.4 36.4 0 0 0 21.072 2.149c-.121-.141-.221-.3-.341-.442-2.852 4.6-7.854 7.051-12.575 9.32a.3.3 0 0 0 .161.562c4.439-.02 8.9.1 13.318-.12a23.549 23.549 0 0 0 11.169-2.852c.341-.2.02-.723-.3-.522-3.5 2.089-7.533 2.652-11.55 2.792-4.2.161-8.417.08-12.635.08.06.181.1.382.161.562 4.821-2.31 9.883-4.841 12.8-9.541a.308.308 0 0 0-.341-.442 36.154 36.154 0 0 1-20.75-2.149v.583c3.716-1.1 7.653-2.35 10.224-5.464.221-.281-.2-.7-.442-.4z"/>
            </g>
        </g>
        <g data-name="Group 6579">
            <g data-name="Group 6578">
                <path data-name="Path 12077" d="M38.861 174.098a31.305 31.305 0 0 1-4.3 8.638 45.681 45.681 0 0 1-2.973 3.555c-.522.6-.964 1.446-.121 1.989.9.583 2.491.2 3.475.08a28.072 28.072 0 0 0 4.258-.864 26.842 26.842 0 0 0 8.3-4.078c.321-.221.02-.743-.3-.522a26.783 26.783 0 0 1-7.352 3.756 27.168 27.168 0 0 1-3.817.944c-.763.12-1.527.221-2.29.281-.462.04-1.607.281-1.989-.121-.562-.583.783-1.627 1.165-2.029.4-.462.8-.944 1.185-1.426a29.936 29.936 0 0 0 2.069-2.953 32.048 32.048 0 0 0 3.254-7.111c.121-.362-.442-.522-.562-.141z"/>
            </g>
        </g>
        <g data-name="Group 6581">
            <g data-name="Group 6580">
                <path data-name="Path 12078" d="M46.795 183.619a22.069 22.069 0 0 1-4.962 11.249.314.314 0 0 0 .221.522 25.684 25.684 0 0 0 17.134-7.633c.281-.281-.161-.7-.422-.422a25 25 0 0 1-16.713 7.473c.08.181.141.341.221.522a22.563 22.563 0 0 0 5.122-11.51c.04-.422-.542-.6-.6-.2z"/>
            </g>
        </g>
        <g data-name="Group 6583">
            <g data-name="Group 6582">
                <path data-name="Path 12079" d="M58.224 188.078a18.792 18.792 0 0 1-3.395 10.968.3.3 0 0 0 .181.442c5.966 1.727 11.912-1.386 16.492-4.982.3-.241-.121-.663-.422-.422-4.419 3.475-10.164 6.488-15.909 4.821.06.141.121.3.181.442a19.313 19.313 0 0 0 3.475-11.269c-.02-.382-.623-.382-.6 0z"/>
            </g>
        </g>
        <g data-name="Group 6585">
            <g data-name="Group 6584">
                <path data-name="Path 12080" d="M71.021 195.088a26.227 26.227 0 0 1-3.395 13.6.3.3 0 0 0 .341.442 32.918 32.918 0 0 0 15.002-10.145c.241-.3-.181-.723-.422-.422a32.5 32.5 0 0 1-14.744 9.983c.121.141.221.3.341.442a26.5 26.5 0 0 0 3.475-13.9c-.02-.382-.623-.382-.6 0z"/>
            </g>
        </g>
        <g data-name="Group 6587">
            <g data-name="Group 6586">
                <path data-name="Path 12081" d="M82.671 199.106a42.584 42.584 0 0 1-1.848 15.327.294.294 0 0 0 .362.362 28.114 28.114 0 0 0 14.583-7.412c.281-.261-.141-.7-.422-.422a27.535 27.535 0 0 1-14.322 7.251l.362.362a42.533 42.533 0 0 0 1.868-15.487c-.02-.362-.623-.362-.583.02z"/>
            </g>
        </g>
        <g data-name="Group 6589">
            <g data-name="Group 6588">
                <path data-name="Path 12082" d="M96.11 207.2a20.993 20.993 0 0 1-2.993 11.892c-.161.261.161.542.422.422 5.524-2.832 11.068-5.745 15.929-9.662a52.973 52.973 0 0 0 10.646-11.952c6.086-9.14 10.024-19.444 15.086-29.127 5.785-11.068 13.8-20.77 22.056-30.071 8.276-9.361 17.416-18.139 28.062-24.747 10.546-6.548 22.678-11.028 35.193-11.309a56.8 56.8 0 0 1 4.52.08c.382.02.382-.583 0-.6-12.273-.683-24.406 2.752-35.153 8.5-10.907 5.825-20.328 14.021-28.765 22.96-4.319 4.58-8.4 9.381-12.374 14.262a129.909 129.909 0 0 0-11.189 15.467c-5.665 9.541-9.562 19.987-15.065 29.609a63.116 63.116 0 0 1-9.722 13.177c-4.459 4.479-9.863 7.814-15.407 10.767a268.744 268.744 0 0 1-4.138 2.149l.422.422a21.638 21.638 0 0 0 3.073-12.193c-.02-.422-.623-.422-.6-.04z"/>
            </g>
        </g>
        <g data-name="Group 6591">
            <g data-name="Group 6590">
                <path data-name="Path 12083" d="M224.325 102.144a12.188 12.188 0 0 1 6.267 8.617c.944 4.5-.221 9.16-1.768 13.4-3.033 8.176-7.834 15.527-11.37 23.482-3.274 7.372-5.584 15.628-3.957 23.723.643 3.194 1.989 6.589 4.861 8.4 2.973 1.868 6.79 1.547 9.963.382 6.448-2.37 10.807-8.3 13.639-14.3a65.061 65.061 0 0 0 5.865-23.964c.5-9.039-1.527-17.817-2.129-26.8-.6-9.28-.8-18.621-.944-27.921a202.79 202.79 0 0 1 .763-25.671c.823-7.392 2.591-14.885 6.609-21.252a31.322 31.322 0 0 1 3.435-4.5c.261-.281-.161-.723-.422-.422-10.2 11.189-10.847 27.52-11.008 41.862-.1 9.18.2 18.38.522 27.56.161 4.58.3 9.16.723 13.74.422 4.479 1.225 8.919 1.647 13.418a66.781 66.781 0 0 1-2.571 25.732c-2.129 6.99-5.363 14.3-11.168 19a16.112 16.112 0 0 1-10.064 3.877c-4.3-.06-7.171-2.893-8.477-6.81-2.712-8.115-.422-17.114 2.812-24.707 3.294-7.714 7.874-14.8 11.068-22.578 2.792-6.83 4.9-15.467-.261-21.775a11.058 11.058 0 0 0-3.716-2.953c-.362-.241-.663.281-.321.462z"/>
            </g>
        </g>
        <g data-name="Group 6593">
            <g data-name="Group 6592">
                <path data-name="Path 12084" d="M153.62 142.721c-2.631 5.484-5.243 11.992-3.154 18.1 1.707 5 6.227 8.176 10.827 10.325a102.743 102.743 0 0 0 18 5.966 145.656 145.656 0 0 0 43.67 4.218c.382-.02.382-.623 0-.6a145.244 145.244 0 0 1-39.311-3.194 134.941 134.941 0 0 1-18.581-5.444c-4.761-1.788-9.883-4.258-12.7-8.7-4.078-6.388-1.185-14.121 1.788-20.328.141-.4-.382-.7-.542-.341z"/>
            </g>
        </g>
        <g data-name="Group 6595">
            <g data-name="Group 6594">
                <path data-name="Path 12085" d="M172.34 86.456c8.617-14.885 6.749-32.883 12.093-48.832a41.1 41.1 0 0 1 6.609-12.595c.241-.3-.181-.723-.422-.422-10.727 13.539-9.622 31.778-13.479 47.747a51.4 51.4 0 0 1-5.3 13.8.293.293 0 1 0 .5.3z"/>
            </g>
        </g>
        <g data-name="Group 6597">
            <g data-name="Group 6596">
                <path data-name="Path 12086" d="M190.801 24.848a30.2 30.2 0 0 0 2.431 7.211.316.316 0 0 0 .482.06 22.2 22.2 0 0 1 9.642-6.83l-.362-.362a11.727 11.727 0 0 0 1.547 8.818.316.316 0 0 0 .482.06c3.154-2.591 6.328-5.2 9.481-7.794l-.482-.06c1.527 3.154 3.053 6.287 4.58 9.441a.314.314 0 0 0 .482.06 108.26 108.26 0 0 0 8.075-8.276l-.482-.06a35.3 35.3 0 0 1 4.138 9.582.3.3 0 0 0 .542.08 20.6 20.6 0 0 1 11.952-8.979l-.362-.362a48.829 48.829 0 0 0-1.266 13.88.32.32 0 0 0 .522.221 22.545 22.545 0 0 1 13.217-5.765c.382-.04.382-.643 0-.6a23.462 23.462 0 0 0-13.639 5.946c.181.08.341.141.522.221a47.07 47.07 0 0 1 1.245-13.72.289.289 0 0 0-.362-.362 21.448 21.448 0 0 0-12.314 9.26 5.044 5.044 0 0 1 .542.08 36.627 36.627 0 0 0-4.2-9.722.3.3 0 0 0-.482-.06 108.324 108.324 0 0 1-8.075 8.276l.482.06c-1.527-3.154-3.053-6.287-4.58-9.441a.316.316 0 0 0-.482-.06c-3.154 2.591-6.328 5.2-9.481 7.794l.482.06a11.024 11.024 0 0 1-1.486-8.356c.04-.2-.141-.462-.362-.362a22.773 22.773 0 0 0-9.9 6.99l.482.06a30.2 30.2 0 0 1-2.37-7.071c-.14-.462-.723-.3-.643.08z"/>
            </g>
        </g>
        <g data-name="Group 6599">
            <g data-name="Group 6598">
                <path data-name="Path 12087" d="M186.1 55.803q13.89 2.23 27.8 4.439c.382.06.542-.522.161-.583q-13.89-2.23-27.8-4.439c-.382-.06-.542.522-.161.583z"/>
            </g>
        </g>
        <g data-name="Group 6601">
            <g data-name="Group 6600">
                <path data-name="Path 12088" d="M231.899 59.499a33.359 33.359 0 0 0-.6 5.1c-.02.382.583.382.6 0a33.831 33.831 0 0 1 .583-4.941c.06-.382-.522-.542-.583-.161z"/>
            </g>
        </g>
        <g data-name="Group 6603">
            <g data-name="Group 6602">
                <path data-name="Path 12089" d="M234.712 60.544a1.718 1.718 0 0 1 1.165-.683 4.616 4.616 0 0 0-.382-.281 4.518 4.518 0 0 1-1.828 4.279.326.326 0 0 0-.141.341 2 2 0 0 0 1.748 1.667 1.4 1.4 0 0 0 1.446-1.527c-.04-.382-.643-.382-.6 0-.121.261-.261.542-.382.8a.87.87 0 0 1-1.145-.241 1.487 1.487 0 0 1-.482-.884c-.04.121-.1.221-.141.341a5.16 5.16 0 0 0 2.129-4.8.3.3 0 0 0-.382-.281 2.1 2.1 0 0 0-1.446.824c-.221.321.2.763.442.442z"/>
            </g>
        </g>
        <g data-name="Group 6605">
            <g data-name="Group 6604">
                <path data-name="Path 12090" d="M241.561 60.986a1.412 1.412 0 0 0-1.928-.864c-.683.261-1.948 1.426-1.567 2.25a1.028 1.028 0 0 0 .783.482c.783.2 1.366.221 1.687 1.085.763 2.129-2.451 2.591-2.832.6-.08-.382-.643-.221-.583.161.342 1.828 3.234 2.511 3.977.6a2.322 2.322 0 0 0-.522-2.41 2.447 2.447 0 0 0-1.085-.562c-.482-.161-.884-.221-.623-.783.281-.623 1.708-1.587 2.089-.4.141.382.723.221.6-.161z"/>
            </g>
        </g>
        <g data-name="Group 6607">
            <g data-name="Group 6606">
                <path data-name="Path 12091" d="M239.172 57.832c.1.824.221 1.667.321 2.491.04.382.643.382.6 0-.1-.824-.221-1.667-.321-2.491-.04-.382-.663-.382-.6 0z"/>
            </g>
        </g>
        <g data-name="Group 6609">
            <g data-name="Group 6608">
                <path data-name="Path 12092" d="M238.93 67.092a4.677 4.677 0 0 1-.221 2.169c-.121.362.462.522.583.161a5.124 5.124 0 0 0 .241-2.33c-.04-.382-.643-.382-.6 0z"/>
            </g>
        </g>
        <g data-name="Group 6611">
            <g data-name="Group 6610">
                <path data-name="Path 12093" d="M183.428 69.463a39.733 39.733 0 0 1 9.923 1.989c.362.121.522-.462.161-.583a40.28 40.28 0 0 0-10.084-2.009c-.4-.04-.4.562 0 .6z"/>
            </g>
        </g>
        <g data-name="Group 6613">
            <g data-name="Group 6612">
                <path data-name="Path 12094" d="M198.616 72.134a195.06 195.06 0 0 0 20.308 4.279c.382.06.542-.522.161-.582a204.823 204.823 0 0 1-20.308-4.279.302.302 0 0 0-.161.583z"/>
            </g>
        </g>
        <g data-name="Group 6615">
            <g data-name="Group 6614">
                <path data-name="Path 12095" d="M229.81 77.759a3.46 3.46 0 0 1 .462-2.591c.341-.522 1.265-1.045 1.687-.362a3.008 3.008 0 0 1 .342 1.306c.04.783-.161 1.808-.964 2.129-.683.281-1.687-.08-1.687-.9a.3.3 0 0 0-.6 0 1.726 1.726 0 0 0 2.129 1.567c1.386-.241 1.828-1.828 1.687-3.053-.12-1.024-.783-2.591-2.109-1.989-1.426.663-1.828 2.652-1.547 4.038a.309.309 0 0 0 .6-.141z"/>
            </g>
        </g>
        <g data-name="Group 6617">
            <g data-name="Group 6616">
                <path data-name="Path 12096" d="M233.988 78.901a.3.3 0 0 0 0-.6.3.3 0 0 0 0 .6z"/>
            </g>
        </g>
        <g data-name="Group 6619">
            <g data-name="Group 6618">
                <path data-name="Path 12097" d="M234.069 78.361c0-.04.02 0 0 0-.06.08-.04.08-.1.121-.02.02 0 .02-.02 0-.04-.02 0 0 .02 0l.04.02s-.06-.06-.04-.02c.02.02-.02 0 0-.02v.04a.448.448 0 0 1-.06.1.752.752 0 0 1-.261.241h.422a.323.323 0 0 1-.08-.321.345.345 0 0 0-.1-.422.322.322 0 0 0-.422.1.956.956 0 0 0 .181 1.065.31.31 0 0 0 .422 0 1.456 1.456 0 0 0 .462-.583.593.593 0 0 0-.181-.663c-.322-.261-.924-.161-.9.341.04.382.643.382.623 0z"/>
            </g>
        </g>
        <g data-name="Group 6621">
            <g data-name="Group 6620">
                <path data-name="Path 12098" d="M236.821 74.665a5.45 5.45 0 0 1 2.35.161.302.302 0 0 0 .161-.583 6.011 6.011 0 0 0-2.672-.161c-.382.06-.221.643.161.583z"/>
            </g>
        </g>
        <g data-name="Group 6623">
            <g data-name="Group 6622">
                <path data-name="Path 12099" d="M236.459 74.846a7.491 7.491 0 0 1-.241 1.888.3.3 0 0 0 .281.382c.864.02 2.109.743 1.808 1.808a1.144 1.144 0 0 1-1.868.5c-.261-.281-.683.141-.422.422a1.741 1.741 0 0 0 2.812-.583c.643-1.486-.984-2.732-2.31-2.752a4.65 4.65 0 0 1 .281.382 7.009 7.009 0 0 0 .281-2.049c-.04-.382-.643-.382-.623 0z"/>
            </g>
        </g>
        <g data-name="Group 6625">
            <g data-name="Group 6624">
                <path data-name="Path 12100" d="M180.355 80.571a296.413 296.413 0 0 1 33.3 8.256c.362.121.522-.462.161-.583a292.1 292.1 0 0 0-33.3-8.256c-.382-.06-.542.522-.161.583z"/>
            </g>
        </g>
        <g data-name="Group 6627">
            <g data-name="Group 6626">
                <path data-name="Path 12101" d="M229.77 90.694a6.831 6.831 0 0 0 .261-2.109.3.3 0 0 0-.6 0v4.039a.3.3 0 0 0 .6 0v-4.037h-.6a5.954 5.954 0 0 1-.241 1.969.3.3 0 0 0 .583.141z"/>
            </g>
        </g>
        <g data-name="Group 6629">
            <g data-name="Group 6628">
                <path data-name="Path 12102" d="M233.909 92.801a2.789 2.789 0 0 1-.623-1.928c.06-.864.643-2.23 1.728-1.848 1.045.362.964 1.727.7 2.591-.241.8-1.366 2.39-2.25 1.185-.221-.3-.743 0-.522.3a1.723 1.723 0 0 0 2.812-.161c.763-1.024 1.125-2.893.241-3.937a1.666 1.666 0 0 0-2.772.2 3.351 3.351 0 0 0 .161 3.9c.241.3.763 0 .522-.3z"/>
            </g>
        </g>
        <g data-name="Group 6631">
            <g data-name="Group 6630">
                <path data-name="Path 12103" d="M238.729 87.943c.161.5.3 1 .462 1.507.12.362.7.221.583-.161-.161-.5-.3-1-.462-1.507-.12-.362-.7-.2-.583.161z"/>
            </g>
        </g>
        <g data-name="Group 6633">
            <g data-name="Group 6632">
                <path data-name="Path 12104" d="M241.039 90.133c0-1.687-2.41-.924-2.812.181-.221.623.362.9.864 1.024.542.12 1.1.482.9 1.145a.862.862 0 0 1-1.487.181c-.261-.3-.683.141-.422.422a1.453 1.453 0 0 0 2.551-.683 1.489 1.489 0 0 0-.663-1.406c-.261-.181-.6-.141-.864-.281-.281-.02-.321-.141-.1-.4a3.5 3.5 0 0 1 .3-.261c.261-.2 1.165-.663 1.165.08-.04.382.563.382.563 0z"/>
            </g>
        </g>
        <g data-name="Group 6635">
            <g data-name="Group 6634">
                <path data-name="Path 12105" d="M238.95 93.868v1.245a.3.3 0 0 0 .6 0v-1.245a.3.3 0 0 0-.6 0z"/>
            </g>
        </g>
        <g data-name="Group 6637">
            <g data-name="Group 6636">
                <path data-name="Path 12106" d="M119.993 85.995a211.049 211.049 0 0 1 28.544 6.709c.362.121.522-.462.161-.583a213.389 213.389 0 0 0-28.544-6.709c-.382-.06-.542.522-.161.583z"/>
            </g>
        </g>
        <g data-name="Group 6639">
            <g data-name="Group 6638">
                <path data-name="Path 12107" d="M164.286 97.062a89.533 89.533 0 0 1 10.566 3.576c.362.141.522-.442.161-.583a89.546 89.546 0 0 0-10.566-3.576.302.302 0 0 0-.161.583z"/>
            </g>
        </g>
        <g data-name="Group 6641">
            <g data-name="Group 6640">
                <path data-name="Path 12108" d="M186.362 101.059q.271-.452.6 0c.583.221.482.542-.3.944a1.8 1.8 0 0 1-.924.08.3.3 0 0 0-.08.583 1.179 1.179 0 0 1 .623 1.888 2.449 2.449 0 0 1-1.466.9c-1.266.321-3.435-.5-2.611-2.149.181-.341-.341-.643-.522-.3-1.125 2.27 1.707 3.576 3.555 2.953a2.589 2.589 0 0 0 1.888-1.948 1.726 1.726 0 0 0-1.346-1.948c-.02.2-.06.4-.08.583.964.04 2.35-.4 2.129-1.627a1.215 1.215 0 0 0-.643-.9c-.562-.261-.864.12-1.286.462a.335.335 0 0 0 .462.482z"/>
            </g>
        </g>
        <g data-name="Group 6643">
            <g data-name="Group 6642">
                <path data-name="Path 12109" d="M193.392 100.798a1.061 1.061 0 0 1-.623.824.312.312 0 0 0-.1.422.3.3 0 0 0 .422.1 1.618 1.618 0 0 0 .9-1.165.316.316 0 0 0-.6-.181z"/>
            </g>
        </g>
        <g data-name="Group 6645">
            <g data-name="Group 6644">
                <path data-name="Path 12110" d="M194.699 102.888a3.006 3.006 0 0 0-4.56.04.3.3 0 0 0 .141.5 4.687 4.687 0 0 1 2.009 1.145 2.207 2.207 0 0 1-.04-.362 2.583 2.583 0 0 1-2.993.944c-.362-.12-.522.462-.161.583a3.183 3.183 0 0 0 3.656-1.225.3.3 0 0 0-.04-.362 5.6 5.6 0 0 0-2.27-1.306 4.707 4.707 0 0 0 .141.5 2.426 2.426 0 0 1 3.716-.04c.221.3.643-.12.4-.422z"/>
            </g>
        </g>
        <g data-name="Group 6647">
            <g data-name="Group 6646">
                <path data-name="Path 12111" d="M189.717 105.178c-.6.562-1.225 1.125-1.828 1.667-.281.261.141.683.422.422.6-.562 1.225-1.125 1.828-1.667.3-.261-.121-.683-.422-.422z"/>
            </g>
        </g>
        <g data-name="Group 6649">
            <g data-name="Group 6648">
                <path data-name="Path 12112" d="M90.947 108.03q19.555 7.382 39.391 13.9 5.6 1.838 11.249 3.616c.362.12.522-.462.161-.583q-19.916-6.267-39.572-13.418-5.544-2.019-11.088-4.118c-.341-.121-.5.462-.141.6z"/>
            </g>
        </g>
        <g data-name="Group 6651">
            <g data-name="Group 6650">
                <path data-name="Path 12113" d="M79.779 125.526q23.2 7.262 45.96 15.789c.362.141.522-.442.161-.583q-22.779-8.527-45.98-15.789c-.362-.12-.522.462-.141.583z"/>
            </g>
        </g>
        <g data-name="Group 6653">
            <g data-name="Group 6652">
                <path data-name="Path 12114" d="M139.899 140.17a9.381 9.381 0 0 0-5.765 2.571c-.9.884-1.386 2.792.141 3.355 1.125.422 3.194-.2 3.174-1.627a1.657 1.657 0 0 0-1.065-1.426 3.6 3.6 0 0 0-2.893.422c-.362.161-.04.683.3.522a3.3 3.3 0 0 1 2.169-.462c.723.2.944.7.663 1.527a1.88 1.88 0 0 1-.743.442 1.818 1.818 0 0 1-1.727-.161 1.479 1.479 0 0 1 .2-1.928 8.259 8.259 0 0 1 2.39-1.667 7.026 7.026 0 0 1 3.154-.944c.382-.02.382-.623 0-.623z"/>
            </g>
        </g>
        <g data-name="Group 6655">
            <g data-name="Group 6654">
                <path data-name="Path 12115" d="M144.159 141.455c-.5.5-1 1-1.487 1.507-.281.281.161.7.422.422.5-.5 1-1 1.487-1.506.261-.261-.161-.683-.422-.422z"/>
            </g>
        </g>
        <g data-name="Group 6657">
            <g data-name="Group 6656">
                <path data-name="Path 12116" d="M144.58 144.107a5.111 5.111 0 0 0-3.254-.723c-.643.08-1.928.3-2.23 1-.341.763.663 1.145 1.125 1.487.723.5 1.647 1.547.522 2.25-.984.623-2.029-.2-2.651-.9-.261-.281-.683.141-.422.422a3.03 3.03 0 0 0 2.832 1.225 1.737 1.737 0 0 0 1.406-1.808c-.141-1.1-1.145-1.326-1.808-2.009-.4-.422-.241-.643.281-.824a4.39 4.39 0 0 1 1.426-.281 4.456 4.456 0 0 1 2.471.683c.321.2.623-.321.3-.522z"/>
            </g>
        </g>
        <g data-name="Group 6659">
            <g data-name="Group 6658">
                <path data-name="Path 12117" d="m138.655 148.747-1.506 1.748c-.261.3.181.723.422.422l1.507-1.748c.261-.3-.161-.723-.422-.422z"/>
            </g>
        </g>
        <g data-name="Group 6661">
            <g data-name="Group 6660">
                <path data-name="Path 12118" d="M50.026 144.549a221.375 221.375 0 0 0 51.464 29.327c5.2 2.109 10.486 4 15.829 5.7.362.121.522-.462.161-.583a220.663 220.663 0 0 1-53.553-25.37 222.037 222.037 0 0 1-13.6-9.6c-.3-.221-.6.3-.3.522z"/>
            </g>
        </g>
        <g data-name="Group 6663">
            <g data-name="Group 6662">
                <path data-name="Path 12119" d="M43.622 154.091a69.612 69.612 0 0 0 16.773 12.615c.341.181.643-.341.3-.522a68.456 68.456 0 0 1-16.652-12.514c-.261-.281-.7.141-.422.422z"/>
            </g>
        </g>
        <g data-name="Group 6665">
            <g data-name="Group 6664">
                <path data-name="Path 12120" d="M99.002 180.244c1.326.362 2.651.723 3.977 1.065a.302.302 0 0 0 .161-.583 292.47 292.47 0 0 0-3.977-1.065.302.302 0 0 0-.161.583z"/>
            </g>
        </g>
        <g data-name="Group 6667">
            <g data-name="Group 6666">
                <path data-name="Path 12121" d="M98.761 180.063a15.884 15.884 0 0 0-1.466 2.772c-.1.261.241.442.442.341 1.085-.583 1.266.824 1.125 1.406a1.989 1.989 0 0 1-.864 1.185 2.057 2.057 0 0 1-2.812-.562c-.221-.3-.763 0-.522.3a2.686 2.686 0 0 0 4.4.06 2.277 2.277 0 0 0 .221-2.431 1.327 1.327 0 0 0-1.848-.482c.141.12.3.221.442.341a14.224 14.224 0 0 1 1.406-2.611c.221-.341-.3-.643-.522-.321z"/>
            </g>
        </g>
        <g data-name="Group 6669">
            <g data-name="Group 6668">
                <path data-name="Path 12122" d="M105.45 182.894a20.445 20.445 0 0 0-2.33 1.848c-.261.281-.4.583-.121.9a3.823 3.823 0 0 0 1.788.743 7.148 7.148 0 0 0 2.531.141c.382-.04.382-.643 0-.6a5.634 5.634 0 0 1-3.535-.522c-.281-.2-.281-.06-.121-.341.121-.2.462-.362.643-.5.522-.4 1.024-.824 1.547-1.225.341-.261-.1-.683-.4-.442z"/>
            </g>
        </g>
        <g data-name="Group 6671">
            <g data-name="Group 6670">
                <path data-name="Path 12123" d="M108.362 184.022c-1.667 2.009-3.334 4-5 6.006-.241.3.181.723.422.422 1.667-2.009 3.334-4 5-6.006.241-.281-.181-.723-.422-.422z"/>
            </g>
        </g>
        <g data-name="Group 6673">
            <g data-name="Group 6672">
                <path data-name="Path 12124" d="M114.128 184.041c-.5.583-.984 1.185-1.486 1.768-.241.3.181.723.422.422.5-.583.984-1.185 1.486-1.768.261-.3-.161-.723-.422-.422z"/>
            </g>
        </g>
        <g data-name="Group 6675">
            <g data-name="Group 6674">
                <path data-name="Path 12125" d="M114.791 187.275a3.465 3.465 0 0 0-2.973-.984c-.7.1-2.25.683-2.19 1.607a.665.665 0 0 0 .482.6c.9.422 2.109.181 1.989 1.667-.181 2.27-3.314 2.23-4.419.763-.221-.3-.743 0-.522.3 1.386 1.848 4.841 1.888 5.5-.663a2.021 2.021 0 0 0-1.507-2.491c-.321-.06-.944.02-.683-.522.2-.382.984-.583 1.386-.663a2.789 2.789 0 0 1 2.511.8.3.3 0 0 0 .422-.422z"/>
            </g>
        </g>
        <g data-name="Group 6677">
            <g data-name="Group 6676">
                <path data-name="Path 12126" d="M108.021 192.175c-.181.5-.362 1-.522 1.486-.12.362.462.522.583.161.181-.5.362-1 .522-1.486a.302.302 0 0 0-.583-.161z"/>
            </g>
        </g>
        <g data-name="Group 6679">
            <g data-name="Group 6678">
                <path data-name="Path 12127" d="M60.937 161.884a268.744 268.744 0 0 0 24.185 15.668.301.301 0 0 0 .3-.522 268.739 268.739 0 0 1-24.185-15.668c-.321-.221-.623.3-.3.522z"/>
            </g>
        </g>
        <g transform="translate(78.832 -13.868)">
            <ellipse data-name="Ellipse 517" cx="37.468" cy="41.693" rx="37.468" ry="41.693" transform="translate(0 58.859)" style="stroke:#000;stroke-miterlimit:10;stroke-width:2px;fill:#fff"/>
            <ellipse data-name="Ellipse 518" cx="37.468" cy="41.693" rx="37.468" ry="41.693" transform="translate(8.449 58.859)" style="stroke:#000;stroke-miterlimit:10;stroke-width:2px;fill:#fff"/>
            <g data-name="Group 6681">
                <g data-name="Group 6680">
                    <path data-name="Path 12128" d="M45.183 71.165c0 3.857 0 7.714.092 11.663a1.379 1.379 0 0 0 2.755 0c0-3.857 0-7.714-.092-11.663a1.379 1.379 0 0 0-2.755 0z"/>
                </g>
            </g>
            <g data-name="Group 6683">
                <g data-name="Group 6682">
                    <path data-name="Path 12129" d="M57.58 82.184c-6.336-1.561-13.316-1.561-18.643 2.755-3.949 3.214-7.254 9.551-3.581 14.143 4.5 5.51 12.214 2.2 18.091 3.673 8.541 2.112 5.051 10.653-.918 13.592a12.77 12.77 0 0 1-13.592-1.01c-1.377-1.1-2.755 1.286-1.377 2.388 4.959 3.765 11.571 3.582 16.9.735 4.592-2.48 9.183-8.081 6.428-13.5-3.031-5.877-10.194-5.051-15.7-5.143-2.479 0-6.979-.275-8.173-3.031-1.562-3.673 1.01-7.53 3.765-9.734 4.592-3.673 10.653-3.582 16.071-2.2a1.382 1.382 0 0 0 .735-2.663z"/>
                </g>
            </g>
            <g data-name="Group 6685">
                <g data-name="Group 6684">
                    <path data-name="Path 12130" d="M47.387 120.296v8.357a1.379 1.379 0 0 0 2.755 0v-8.357a1.379 1.379 0 0 0-2.755 0z"/>
                </g>
            </g>
        </g>
    </g>
</svg>
