<svg xmlns="http://www.w3.org/2000/svg" width="20" height="20" viewBox="0 0 20 20">
    <g transform="translate(0 .425)">
        <circle cx="10" cy="10" r="10" transform="translate(0 -.425)" style="opacity:.244"/>
        <path data-name="close" d="m10.915 9.854 2.846 2.846a.816.816 0 0 1 .219.342.591.591 0 0 1 0 .348.816.816 0 0 1-.219.342l-.03.03a.816.816 0 0 1-.342.219.591.591 0 0 1-.348 0 .816.816 0 0 1-.342-.219l-2.845-2.847-2.846 2.846a.816.816 0 0 1-.342.219.591.591 0 0 1-.348 0 .816.816 0 0 1-.342-.219l-.03-.03a.816.816 0 0 1-.219-.342.591.591 0 0 1 0-.348.816.816 0 0 1 .219-.342l2.846-2.845-2.845-2.846a.816.816 0 0 1-.219-.342.591.591 0 0 1 0-.348.816.816 0 0 1 .219-.342l.03-.03a.816.816 0 0 1 .342-.219.591.591 0 0 1 .348 0 .816.816 0 0 1 .342.219l2.845 2.846L12.7 5.947a.816.816 0 0 1 .342-.219.591.591 0 0 1 .348 0 .816.816 0 0 1 .342.219l.03.03a.816.816 0 0 1 .219.342.591.591 0 0 1 0 .348.816.816 0 0 1-.219.342z" transform="translate(.345 -.228)" style="fill-rule:evenodd"/>
    </g>
</svg>
