<svg xmlns="http://www.w3.org/2000/svg" width="23.126" height="23.127" viewBox="0 0 23.126 23.127">

    <g id="building" transform="translate(-1.22 -1.24)">
        <path id="Path_12885" data-name="Path 12885" class="cls-1" d="M13.347 24.366H4.295a3.058 3.058 0 0 1-3.075-3.031V5.379a4.043 4.043 0 0 1 1.731-3.623 4.117 4.117 0 0 1 4.107.065l4.774 2.344a4.472 4.472 0 0 1 2.322 3.709V23.56a.812.812 0 0 1-.807.806zM4.811 2.864a1.87 1.87 0 0 0-1.011.268 2.516 2.516 0 0 0-.968 2.247v15.956a1.441 1.441 0 0 0 1.462 1.419h8.246V7.874a2.836 2.836 0 0 0-1.43-2.258L6.337 3.272a3.533 3.533 0 0 0-1.526-.408z"/>
        <path id="Path_12886" data-name="Path 12886" class="cls-1" d="M19.34 23.733h-6.784a.812.812 0 0 1-.806-.806V10.476a.779.779 0 0 1 .3-.624.8.8 0 0 1 .677-.161l.505.108 7.031 1.57a3.723 3.723 0 0 1 3.279 3.87.886.886 0 0 1 .011.226v4.064c-.009 2.752-1.46 4.204-4.213 4.204zm-5.977-1.613h5.977c1.892 0 2.591-.7 2.591-2.591v-4.15a2.211 2.211 0 0 0-2.021-2.441l-6.548-1.462z" transform="translate(.791 .634)"/>
        <path id="Path_12887" data-name="Path 12887" class="cls-1" d="M9.287 9.863H5.556a.806.806 0 0 1 0-1.613h3.731a.806.806 0 1 1 0 1.613z" transform="translate(.265 .527)"/>
        <path id="Path_12888" data-name="Path 12888" class="cls-1" d="M9.287 13.863H5.556a.806.806 0 0 1 0-1.613h3.731a.806.806 0 1 1 0 1.613z" transform="translate(.265 .827)"/>
        <path id="Path_12889" data-name="Path 12889" class="cls-1" d="M15.445 18.35a3.235 3.235 0 0 1-3.225-3.225v-4.548a.816.816 0 0 1 .3-.634.778.778 0 0 1 .677-.161l4.838 1.086a.815.815 0 0 1 .634.785v3.462a3.23 3.23 0 0 1-3.224 3.235zm-1.613-6.763v3.537a1.613 1.613 0 0 0 3.225 0v-2.816z" transform="translate(.826 .64)"/>
        <path id="Path_12890" data-name="Path 12890" class="cls-1" d="M19.945 18.274a3.235 3.235 0 0 1-3.225-3.225v-3.463a.779.779 0 0 1 .3-.624.813.813 0 0 1 .68-.162l2.183.484a3.723 3.723 0 0 1 3.279 3.87v.065a3.214 3.214 0 0 1-3.217 3.055zm-1.613-5.687v2.462a1.609 1.609 0 0 0 3.215.118 2.16 2.16 0 0 0-2.011-2.312z" transform="translate(1.165 .717)"/>
    </g>
</svg>
