<svg xmlns="http://www.w3.org/2000/svg" width="18" height="23" viewBox="0 0 18 23">
  <path id="_25-hot" data-name="25-hot" d="M10.6,1.2a1,1,0,0,0-1.588.648,12.638,12.638,0,0,1-3.142,6.37l-.031.039C4.46,10.012,3,11.877,3,15a9,9,0,0,0,18,0,9.443,9.443,0,0,0-2.049-5.766,11.358,11.358,0,0,0-1.39-1.5c-.191-.172-.352-.3-.468-.4-.058-.046-.105-.082-.14-.107l-.042-.03L16.9,7.187l0,0,0,0a1,1,0,0,0-1.574.849v.023c0,.023,0,.061,0,.112,0,.1-.009.257-.027.452a8.634,8.634,0,0,1-.282,1.541A6.326,6.326,0,0,1,12.993,13.4a15.425,15.425,0,0,0,.946-5.726A8.3,8.3,0,0,0,10.6,1.2Zm6.482,8.9c-.042.191-.09.391-.148.6a8.168,8.168,0,0,1-3.218,4.659,1.733,1.733,0,0,1-2.272-.237,2.062,2.062,0,0,1-.426-2.131,13.688,13.688,0,0,0,.924-5.21,6.531,6.531,0,0,0-1.353-3.832A15.729,15.729,0,0,1,7.482,9.4l-.071.09C6.04,11.238,5,12.623,5,15a7,7,0,0,0,14,0,7.446,7.446,0,0,0-1.634-4.547C17.271,10.329,17.176,10.212,17.082,10.1Z" transform="translate(-3 -1)" fill="currentColor" fill-rule="evenodd"/>
</svg>
