<svg xmlns="http://www.w3.org/2000/svg" width="20" height="20" viewBox="0 0 20 20">
  <g id="calendar-schedule-ou-lc" transform="translate(-3 -3)">
    <path id="Path_13244" data-name="Path 13244" d="M18,23a5,5,0,1,0-5-5A5,5,0,0,0,18,23Zm1-7a1,1,0,0,0-2,0v2a1,1,0,0,0,.293.707l1,1a1,1,0,0,0,1.414-1.414L19,17.586Z" fill="currentColor" fill-rule="evenodd"/>
    <path id="Path_13245" data-name="Path 13245" d="M15.241,5H8.759c-.8,0-1.469,0-2.011.044a4.09,4.09,0,0,0-1.564.392A4,4,0,0,0,3.436,7.184a4.09,4.09,0,0,0-.392,1.564C3,9.289,3,9.954,3,10.759v4.483c0,.805,0,1.469.044,2.011a4.09,4.09,0,0,0,.392,1.564,4,4,0,0,0,1.748,1.748,4.089,4.089,0,0,0,1.564.392C7.289,21,7.954,21,8.759,21H10a1,1,0,0,0,0-2H8.8c-.857,0-1.439,0-1.889-.038a2.158,2.158,0,0,1-.819-.18,2,2,0,0,1-.874-.874,2.158,2.158,0,0,1-.18-.819C5,16.639,5,16.057,5,15.2V10.8c0-.857,0-1.439.038-1.889a2.158,2.158,0,0,1,.18-.819,2,2,0,0,1,.874-.874,2.158,2.158,0,0,1,.819-.18C7.361,7,7.943,7,8.8,7h6.4c.857,0,1.439,0,1.889.038a2.158,2.158,0,0,1,.819.18,2,2,0,0,1,.874.874,2.158,2.158,0,0,1,.18.819C19,9.361,19,10,19,10a1,1,0,0,0,2,0s0-.711-.044-1.252a4.089,4.089,0,0,0-.392-1.564,4,4,0,0,0-1.748-1.748,4.09,4.09,0,0,0-1.564-.392C16.711,5,16.046,5,15.241,5Z" fill="currentColor"/>
    <path id="Path_13246" data-name="Path 13246" d="M9,4A1,1,0,0,0,7,4V6A1,1,0,0,0,9,6Z" fill="currentColor"/>
    <path id="Path_13247" data-name="Path 13247" d="M17,4a1,1,0,0,0-2,0V6a1,1,0,0,0,2,0Z" fill="currentColor"/>
  </g>
</svg>
