<svg xmlns="http://www.w3.org/2000/svg" width="24" height="24" viewBox="0 0 24 24">
    <path data-name="Path 12903" d="m9.542 16.172 3.314-9.944a.703.703 0 0 0-1.334-.445l-3.315 9.944a.703.703 0 1 0 1.334.445z"/>
    <path data-name="Path 12904" d="M14.509 13.088a2.109 2.109 0 1 0-2.109-2.109 2.112 2.112 0 0 0 2.109 2.109zm0-2.812a.7.7 0 1 1-.7.7.7.7 0 0 1 .7-.701z"/>
    <path data-name="Path 12905" d="M6.554 8.866a2.109 2.109 0 1 0 2.109 2.109 2.112 2.112 0 0 0-2.109-2.109zm0 2.812a.7.7 0 1 1 .7-.7.7.7 0 0 1-.7.703z"/>
    <path data-name="Path 12906" d="M23.859 8.719 21.407 5.45l.1-.67a.7.7 0 0 0-.2-.6l-1.494-1.488L21.3 1.2a.701.701 0 1 0-.99-.994L18.818 1.7 17.327.206a.7.7 0 0 0-.6-.2L9.77 1a.7.7 0 0 0-.4.2L.754 9.818a2.581 2.581 0 0 0 0 3.646l7.292 7.292a2.572 2.572 0 0 0 .485.381v.285A2.581 2.581 0 0 0 11.109 24h10.313A2.581 2.581 0 0 0 24 21.422V9.141a.7.7 0 0 0-.141-.422zM1.748 12.47a1.173 1.173 0 0 1 0-1.657L10.2 2.361l6.38-.911 1.243 1.243-.994.994-.5-.5a.703.703 0 1 0-.994.994l1.989 1.989a.703.703 0 1 0 .994-.994l-.5-.5.994-.994 1.243 1.243-.912 6.38-8.443 8.457a1.172 1.172 0 0 1-1.657 0zm20.845 8.952a1.173 1.173 0 0 1-1.172 1.172H11.109a1.173 1.173 0 0 1-1.168-1.085 2.568 2.568 0 0 0 1.751-.752l8.618-8.618a.7.7 0 0 0 .2-.4l.617-4.322 1.468 1.957z"/>
</svg>
