<svg stroke="currentColor" width="22.5" height="22.5" viewBox="0 0 22.5 22.5">
    <path data-name="Path 12785" d="M13.75 21.5h-6C2.32 21.5 0 19.18 0 13.75v-6C0 2.32 2.32 0 7.75 0h6c5.43 0 7.75 2.32 7.75 7.75v6c0 .24 0 .49-.02.72a.764.764 0 0 1-.53.65.744.744 0 0 1-.8-.25 3.751 3.751 0 1 0-5.28 5.28.761.761 0 0 1 .25.8.752.752 0 0 1-.65.53c-.23.02-.48.02-.72.02zm-6-20C3.14 1.5 1.5 3.14 1.5 7.75v6C1.5 18.36 3.14 20 7.75 20h5.02a5.228 5.228 0 0 1-.77-2.75 5.17 5.17 0 0 1 1.98-4.1 5.388 5.388 0 0 1 6.02-.38V7.75c0-4.61-1.64-6.25-6.25-6.25z"/>
    <path data-name="Path 12786" d="M20.23 6.61H1.27a.75.75 0 0 1 0-1.5h18.96a.75.75 0 0 1 0 1.5z"/>
    <path data-name="Path 12787" d="M7.27 6.47a.755.755 0 0 1-.75-.75V.86a.75.75 0 0 1 1.5 0v4.86a.755.755 0 0 1-.75.75z"/>
    <path data-name="Path 12788" d="M14.231 6.02a.755.755 0 0 1-.75-.75V.86a.75.75 0 1 1 1.5 0v4.41a.743.743 0 0 1-.75.75z"/>
    <path data-name="Path 12789" d="M17.25 22.5a5.244 5.244 0 1 1 5.25-5.25 5.25 5.25 0 0 1-5.25 5.25zm0-9a3.745 3.745 0 0 0-2.34.82 3.692 3.692 0 0 0-1.41 2.93 3.731 3.731 0 0 0 1.37 2.9 3.753 3.753 0 0 0 6.13-2.9 3.762 3.762 0 0 0-3.75-3.75z"/>
    <path data-name="Path 12790" d="M16.129 19.13a.747.747 0 0 1-.379-1.39l1.04-.62v-1.26a.75.75 0 0 1 1.5 0v1.69a.751.751 0 0 1-.36.64l-1.41.84a.94.94 0 0 1-.391.1z"/>
</svg>
