<svg xmlns="http://www.w3.org/2000/svg" width="36" height="36" viewBox="0 0 36 36" class="icon_filler v-icon__component theme--light" style="font-size: 28px; height: 28px; width: 28px;"><path fill="none" d="M0 0H36V36H0z"></path> <circle cx="13.5" cy="13.5" r="13.5" fill="currentColor" opacity="0.3" transform="translate(5 5)"></circle> <path fill="currentColor" fill-rule="evenodd" d="M16.1 29.994A13.5 13.5 0 0 1 3 16.5q0-.187.005-.373c.988.095 2.779.309 2.864 1 .117.961 0 2.162.818 2.522s1.052-1.441 1.753-.961 2.571.943 2.571 1.792-.351 2.171 0 2.411a9.507 9.507 0 0 1 1.753 2.162c0 .24.494 1.462.347 1.929a6.617 6.617 0 0 1-1.335 2.136 13.113 13.113 0 0 0 4.328.872zM10.924 4.2a13.514 13.514 0 0 1 17.631 6.214 6.866 6.866 0 0 0 .3 2.533c1.316 1.841-3.2 3.107-2.518 5.892.3 1.228-3.007.839-3.815 1.989s-2.785.377-3.243.156-2.213.515-2.06-.736 1.22-1.326 2.365-1.841 2.8-2.227 1.984-2.451a8.088 8.088 0 0 1-5.122-4.739c-.229-.044-.172-2.606-1.163-2.68s-1.527.295-2.976 0-1.144-1.252-1.373-3.314a3.818 3.818 0 0 1-.01-1.023zM30 16.316v.184A13.5 13.5 0 0 1 16.634 30 13.705 13.705 0 0 0 30 16.316z" opacity="0.3" transform="translate(1.5 1.5)"></path></svg>