<svg xmlns="http://www.w3.org/2000/svg" width="19.098" height="24.555" viewBox="0 0 19.098 24.555">
    <path d="m11.867 7.057-.509.641zm-.272 0 .509.641zM8.812 9.268l-.509-.641zm5.84 0 .509-.641zM18.28 24.55a.819.819 0 0 0 0-1.637zM9.55 1.637h4.365V0H9.55zm4.638.273v7.187h1.637V1.91zM9.276 9.097V1.91H7.639v7.187zm5.884-.47-2.784-2.211-1.018 1.282 2.784 2.211zm-4.073-2.211L8.303 8.627l1.018 1.282 2.784-2.211zm1.29 0a1.037 1.037 0 0 0-1.29 0l1.018 1.282a.6.6 0 0 1-.746 0zM7.639 9.097a1.037 1.037 0 0 0 1.682.812L8.303 8.627a.6.6 0 0 1 .973.47zm6.548 0a.6.6 0 0 1 .973-.47l-1.018 1.282a1.037 1.037 0 0 0 1.682-.812zm-.273-7.46a.273.273 0 0 1 .273.273h1.637A1.91 1.91 0 0 0 13.914 0zM9.55 0a1.91 1.91 0 0 0-1.91 1.91h1.637a.273.273 0 0 1 .273-.273zm7.912 5.184v12.55h1.637V5.184zM3.001 24.55h13.642v-1.632H3.001zm13.641 0h1.638v-1.632h-1.637zm0-6H3.001v1.637h13.642zM0 4.092V21.55h1.637V4.092zm16.643 19.644c.579.579.579.578.58.578l.008-.008.018-.019.043-.05a1.861 1.861 0 0 0 .111-.15 2.823 2.823 0 0 0 .267-.517 5.4 5.4 0 0 0 .331-2.009H16.37a3.8 3.8 0 0 1-.214 1.4 1.2 1.2 0 0 1-.109.217l-.013.018.009-.01.009-.009.006-.006s.006-.014.585.565zm1.364-2.186a5.4 5.4 0 0 0-.331-2.009 2.823 2.823 0 0 0-.267-.517 1.862 1.862 0 0 0-.111-.15l-.043-.05-.018-.019-.008-.008-.58.578-.58.578-.006-.006-.009-.009-.009-.01.013.018a1.2 1.2 0 0 1 .109.217 3.8 3.8 0 0 1 .214 1.4zM0 21.55a3 3 0 0 0 3 3v-1.632a1.364 1.364 0 0 1-1.363-1.368zm1.637 0a1.364 1.364 0 0 1 1.364-1.364V18.55a3 3 0 0 0-3 3zm15.824-3.82a.819.819 0 0 1-.818.818v1.637a2.456 2.456 0 0 0 2.455-2.455zm1.637-12.55a4.092 4.092 0 0 0-4.092-4.092v1.64a2.455 2.455 0 0 1 2.455 2.455zM1.637 4.092a1.364 1.364 0 0 1 1.364-1.364V1.091a3 3 0 0 0-3 3zm1.364-1.364h5.457V1.091H3.001z"/>
</svg>
