<svg xmlns="http://www.w3.org/2000/svg" width="23" height="23" viewBox="0 0 23 23">
    <path data-name="24-close" d="M12 1.5A10.5 10.5 0 1 0 22.5 12 10.5 10.5 0 0 0 12 1.5zM.5 12A11.5 11.5 0 1 1 12 23.5 11.5 11.5 0 0 1 .5 12zm7.146-4.354a.5.5 0 0 1 .707 0L12 11.293l3.646-3.646a.5.5 0 1 1 .707.707L12.707 12l3.646 3.646a.5.5 0 0 1-.707.707L12 12.707l-3.646 3.647a.5.5 0 0 1-.707-.707L11.293 12 7.646 8.354a.5.5 0 0 1 0-.708z" transform="translate(-.5 -.5)" style="fill:#e7404d;fill-rule:evenodd"/>
</svg>
