<svg xmlns="http://www.w3.org/2000/svg" width="18" height="20">
    <defs>
        <style>
            .cls-xls{fill:#007934}
        </style>
    </defs>
    <g id="icons8-xls" transform="translate(-2 -2)">
        <path id="Path_11806" data-name="Path 11806" class="cls-xls" d="M18 22H6a2.006 2.006 0 0 1-2-2v-3h2v3h12V7.8L14.2 4H6v6H4V4a2.006 2.006 0 0 1 2-2h9l5 5v13a2.006 2.006 0 0 1-2 2z"/>
        <path id="Path_11807" data-name="Path 11807" class="cls-xls" d="M18.5 8H14V3.5z"/>
        <path id="Path_11808" data-name="Path 11808" d="M13.6 3H6a.945.945 0 0 0-1 1v6h12v7H5v3a.945.945 0 0 0 1 1h12a.945.945 0 0 0 1-1V8.4z" style="opacity:.3;fill:#007934"/>
        <path id="Path_11809" data-name="Path 11809" class="cls-xls" d="M4 9a2.006 2.006 0 0 0-2 2v5a2.006 2.006 0 0 0 2 2h15V9zm2.7 7L6 14.3 5.3 16H4l1.3-2.5L4 11h1.2l.8 1.7.7-1.7H8l-1.3 2.5L8 16zm5.3 0H9v-5h1v4h2zm2.7-2.9c.2.1 1.3.6 1.3 1.6a1.436 1.436 0 0 1-1.5 1.4 1.539 1.539 0 0 1-1.7-1.6h1c0 .1 0 .9.7.8a.467.467 0 0 0 .5-.5c0-.4-.3-.6-.7-.8-.5-.3-1.3-.6-1.4-1.5a1.342 1.342 0 0 1 1.5-1.4 1.454 1.454 0 0 1 1.5 1.5h-1c0-.1 0-.7-.6-.7a.466.466 0 0 0-.5.6 2.361 2.361 0 0 0 .9.6z"/>
    </g>
</svg>
