<svg xmlns="http://www.w3.org/2000/svg" width="24.302" height="22.815" viewBox="0 0 24.302 22.815">
    <defs>
        <style>
            .cls-1{stroke-width:.5px}
        </style>
    </defs>
    <g id="rating" transform="translate(.25 .25)" stroke="currentColor">
        <path id="Path_12907" data-name="Path 12907" class="cls-1" d="M247.009 380.5a.5.5 0 1 1-.5-.5.5.5 0 0 1 .5.5zm0 0" transform="translate(-234.603 -362.4)"/>
        <path id="Path_12908" data-name="Path 12908" class="cls-1" d="M365.054 243.027a3.027 3.027 0 1 0-3.027 3.027 3.03 3.03 0 0 0 3.027-3.027zm-3.027 2.018a2.018 2.018 0 1 1 2.018-2.018 2.02 2.02 0 0 1-2.018 2.018zm0 0" transform="translate(-342.917 -229.16)"/>
        <path id="Path_12909" data-name="Path 12909" class="cls-1" d="M19.479 341.009a4.364 4.364 0 0 0-3.135 1.383 5.32 5.32 0 0 0-8.884 0 4.366 4.366 0 0 0-3.136-1.383A4.5 4.5 0 0 0 0 345.55v1.009a.486.486 0 0 0 .465.5h22.872a.486.486 0 0 0 .465-.5v-1.009a4.5 4.5 0 0 0-4.323-4.541zM.93 345.55a3.511 3.511 0 0 1 3.394-3.532 3.43 3.43 0 0 1 2.623 1.253 6.474 6.474 0 0 0-.624 2.783H.93zm10.97-4.541a4.858 4.858 0 0 1 4.649 5.045h-9.3a4.863 4.863 0 0 1 4.651-5.045zm10.971 5.045H17.48a6.474 6.474 0 0 0-.624-2.783 3.43 3.43 0 0 1 2.623-1.253 3.511 3.511 0 0 1 3.394 3.532zm0 0" transform="translate(0 -324.748)"/>
        <path id="Path_12910" data-name="Path 12910" class="cls-1" d="M39.054 243.027a3.027 3.027 0 1 0-3.027 3.027 3.03 3.03 0 0 0 3.027-3.027zm-3.027 2.018a2.018 2.018 0 1 1 2.018-2.018 2.02 2.02 0 0 1-2.018 2.018zm0 0" transform="translate(-31.335 -229.16)"/>
        <path id="Path_12911" data-name="Path 12911" class="cls-1" d="M184.072 184.036a4.036 4.036 0 1 0-4.036 4.036 4.041 4.041 0 0 0 4.036-4.036zm-4.036 3.027a3.027 3.027 0 1 1 3.027-3.027 3.03 3.03 0 0 1-3.027 3.027zm0 0" transform="translate(-168.135 -171.989)"/>
        <path id="Path_12912" data-name="Path 12912" class="cls-1" d="M183.7 2.934a.5.5 0 0 0-.407-.343l-2.176-.316-.977-1.992a.5.5 0 0 0-.906 0l-.974 1.992-2.176.316a.5.5 0 0 0-.28.861l1.576 1.536-.372 2.169a.5.5 0 0 0 .732.532l1.947-1.024 1.948 1.024a.5.5 0 0 0 .732-.532l-.372-2.169 1.576-1.536a.5.5 0 0 0 .129-.518zm-2.6 1.516a.5.5 0 0 0-.145.447l.244 1.423-1.277-.672a.5.5 0 0 0-.47 0l-1.277.672.244-1.423a.5.5 0 0 0-.145-.447l-1.034-1.008 1.428-.207a.5.5 0 0 0 .381-.278l.638-1.3.638 1.3a.5.5 0 0 0 .381.278l1.428.207zm0 0" transform="translate(-167.802)"/>
        <path id="Path_12913" data-name="Path 12913" class="cls-1" d="M371.461 92.175a.5.5 0 0 0-.407-.343l-1.474-.214-.659-1.336a.5.5 0 0 0-.452-.281.5.5 0 0 0-.452.281l-.66 1.336-1.474.214a.5.5 0 0 0-.28.86l1.067 1.04-.252 1.468a.5.5 0 0 0 .732.532l1.319-.693 1.319.693a.5.5 0 0 0 .732-.532l-.252-1.468 1.067-1.04a.5.5 0 0 0 .126-.517zm-2.089 1.02a.5.5 0 0 0-.145.446l.124.722-.649-.341a.5.5 0 0 0-.469 0l-.649.341.124-.722a.5.5 0 0 0-.145-.446l-.525-.512.725-.105a.5.5 0 0 0 .38-.276l.324-.657.324.657a.5.5 0 0 0 .38.276l.725.105zm0 0" transform="translate(-349.041 -85.928)"/>
        <path id="Path_12914" data-name="Path 12914" class="cls-1" d="M31.461 92.175a.5.5 0 0 0-.407-.343l-1.474-.214-.659-1.336a.5.5 0 0 0-.9 0l-.66 1.336-1.474.214a.5.5 0 0 0-.28.86l1.067 1.04-.257 1.468a.5.5 0 0 0 .732.532l1.319-.693 1.319.693a.5.5 0 0 0 .732-.532l-.252-1.468 1.067-1.04a.5.5 0 0 0 .127-.517zM29.372 93.2a.5.5 0 0 0-.145.446l.124.722-.649-.341a.5.5 0 0 0-.469 0l-.649.341.124-.722a.5.5 0 0 0-.145-.446l-.525-.512.726-.105a.5.5 0 0 0 .38-.276l.324-.657.324.657a.5.5 0 0 0 .38.276l.725.105zm0 0" transform="translate(-24.166 -85.928)"/>
        <path id="Path_12915" data-name="Path 12915" class="cls-1" d="M285.109 391.532a.5.5 0 1 0-.554.843 3.045 3.045 0 0 1 1.078 1.235.5.5 0 0 0 .911-.434 4.052 4.052 0 0 0-1.435-1.644zm0 0" transform="translate(-271.218 -373.602)"/>
    </g>
</svg>
