<svg xmlns="http://www.w3.org/2000/svg" width="20" height="20" viewBox="0 0 20 20" class="v-icon__component theme--light" style="font-size: 28px; height: 28px; width: 28px;"><circle cx="10" cy="10" r="10" fill="currentColor" opacity="0.25"></circle> <path fill="currentColor" d="M11.5 21.988a.481.481 0 0 0 .5-.488V14h2a1 1 0 0 0 0-2h-2v-2a1 1 0 0 1 1-1h1a1 1 0 0 0 0-2h-1a3 3 0 0 0-3 3v2H9a1 1 0 0 0 0 2h1v7.391a.483.483 0 0 0 .4.482 10.039 10.039 0 0 0 1.1.115z" transform="translate(-2 -2)"></path></svg>