<svg data-name="Icons-/-Files-/-Selected-file" xmlns="http://www.w3.org/2000/svg" width="62.891" height="64.285" viewBox="0 0 62.891 64.285">
    <path d="M62.891 0H0v62.89h62.891z" transform="translate(0 1.394)" style="fill:none;fill-rule:evenodd"/>
    <path d="M42.061 3H21.413a3.931 3.931 0 0 0-2.538.93L6.392 14.488a3.931 3.931 0 0 0-1.392 3v32.9c0 4.692.054 5.022 4.867 5.022h32.194c4.813 0 4.867-.331 4.867-5.022V8.023C46.927 3.331 46.873 3 42.061 3zm-2.995 23.584a2.62 2.62 0 1 1 0 5.241H20.723a2.62 2.62 0 1 1 0-5.241zm0 10.482a2.62 2.62 0 1 1 0 5.241H31.2a2.62 2.62 0 1 1 0-5.241z" transform="translate(2.861 6.256)" style="fill:#0a66d2"/>
    <path d="M4.867 52.409h18.026a3.931 3.931 0 0 0 2.538-.93l12.483-10.558a3.931 3.931 0 0 0 1.392-3V5.023C39.307.331 39.253 0 34.44 0H4.867C.054 0 0 .331 0 5.023v42.363c0 4.692.054 5.023 4.867 5.023zM13.1 23.584a2.62 2.62 0 1 1 0-5.241h18.345a2.62 2.62 0 1 1 0 5.241zm0-10.482a2.62 2.62 0 1 1 0-5.241h7.861a2.62 2.62 0 1 1 0 5.241z" transform="scale(-1) rotate(10.02 307.707 -321.107)" style="opacity:.3;fill:#0a66d2"/>
</svg>
