<svg xmlns="http://www.w3.org/2000/svg" width="24" height="24" viewBox="0 0 24 24">
    <path data-name="Path 13379" d="M0 0h24v24H0z" style="fill:none"/>
    <path data-name="Path 13380" d="M11.9 19.6h2.2v-2.2h-2.2zM13 2a11 11 0 1 0 11 11A11 11 0 0 0 13 2zm0 19.8a8.8 8.8 0 1 1 8.8-8.8 8.812 8.812 0 0 1-8.8 8.8zm0-15.4a4.4 4.4 0 0 0-4.4 4.4h2.2a2.2 2.2 0 0 1 4.4 0c0 2.2-3.3 1.925-3.3 5.5h2.2c0-2.475 3.3-2.75 3.3-5.5A4.4 4.4 0 0 0 13 6.4z" transform="translate(-1 -1)" style="fill:#191d26"/>
</svg>
