<svg xmlns="http://www.w3.org/2000/svg" width="21.188" height="19" viewBox="0 0 21.188 19">
    <defs >
        <style>
            .cls-1{fill:none;stroke-linecap:round;stroke-linejoin:round;stroke-width:1.5px}
        </style>
    </defs>
    <g id="dashboard" transform="translate(-2.25 -3.25)" stroke="currentColor">
        <path id="Path_12916" data-name="Path 12916" class="cls-1" d="M13.938 7.474c0 3.088-.547 3.088-5.469 3.088S3 10.563 3 7.281 3.547 4 8.469 4s5.469 0 5.469 3.474z"/>
        <path id="Path_12917" data-name="Path 12917" class="cls-1" d="M11 17.088C11 14 11.547 14 16.469 14s5.469 0 5.469 3.281-.547 3.281-5.469 3.281S11 20.563 11 17.088z" transform="translate(.75 .938)"/>
        <path id="Path_12918" data-name="Path 12918" class="cls-1" d="M21.375 7.474c0 3.088-.437 3.088-2.187 3.088S17 10.563 17 7.281 17.438 4 19.188 4c1.912 0 2.187 0 2.187 3.474z" transform="translate(1.313)"/>
        <path id="Path_12919" data-name="Path 12919" class="cls-1" d="M3 17.088C3 14 3.438 14 5.188 14s2.188 0 2.188 3.281-.437 3.281-2.187 3.281C3.273 20.563 3 20.563 3 17.088z" transform="translate(0 .938)"/>
    </g>
</svg>
