<svg xmlns="http://www.w3.org/2000/svg" width="20" height="20" viewBox="0 0 20 20">
  <g id="instagram" transform="translate(-2 -2)">
    <path id="Path_12947" data-name="Path 12947" d="M7,2A5,5,0,0,0,2,7V17a5,5,0,0,0,5,5H17a5,5,0,0,0,5-5V7a5,5,0,0,0-5-5Zm5,13a3,3,0,1,0-3-3A3,3,0,0,0,12,15Z" fill="currentColor" fill-rule="evenodd" opacity="0.25"/>
    <path id="Path_12948" data-name="Path 12948" d="M18.119,7.237A1.119,1.119,0,1,0,17,6.119,1.119,1.119,0,0,0,18.119,7.237Z" transform="translate(-0.237)" fill="currentColor"/>
    <path id="Path_12949" data-name="Path 12949" d="M17,12a5,5,0,1,1-5-5A5,5,0,0,1,17,12Zm-2,0a3,3,0,1,1-3-3A3,3,0,0,1,15,12Z" fill="currentColor" fill-rule="evenodd"/>
  </g>
</svg>
