<svg xmlns="http://www.w3.org/2000/svg" width="20.5" height="17.5" viewBox="0 0 20.5 17.5">
    <path data-name="Path 13369" d="M16.5 20.75h-9a12.077 12.077 0 0 1-1.77-.1C2.41 20.29 1.75 18.3 1.75 15V9c0-3.3.66-5.29 4.01-5.66a13.109 13.109 0 0 1 1.74-.09h9a12.077 12.077 0 0 1 1.77.1c3.32.36 3.98 2.35 3.98 5.65v6c0 3.3-.66 5.29-4.01 5.66a13.109 13.109 0 0 1-1.74.09zm-9-16a12.151 12.151 0 0 0-1.55.08c-2.03.23-2.7.86-2.7 4.17v6c0 3.31.67 3.94 2.67 4.17a11.262 11.262 0 0 0 1.58.08h9a12.151 12.151 0 0 0 1.55-.08c2.03-.22 2.7-.86 2.7-4.17V9c0-3.31-.67-3.94-2.67-4.17a11.262 11.262 0 0 0-1.58-.08z" style="fill:#292d32" transform="translate(-1.75 -3.25)"/>
    <path data-name="Path 13370" d="M17 10.75h-3.5a.75.75 0 0 1 0-1.5H17a.75.75 0 0 1 0 1.5z" style="fill:#292d32" transform="translate(-1.75 -3.25)"/>
    <path data-name="Path 13371" d="M10.1 11a1 1 0 0 1 0-2h.01a1 1 0 1 1-.01 2z" style="fill:#292d32" transform="translate(-1.75 -3.25)"/>
    <path data-name="Path 13372" d="M7.1 11a1 1 0 1 1 1-1 1 1 0 0 1-1 1z" style="fill:#292d32" transform="translate(-1.75 -3.25)"/>
    <path data-name="Path 13373" d="M17 16.25H7.02a.764.764 0 0 1-.76-.75.747.747 0 0 1 .74-.75h10a.75.75 0 1 1 0 1.5z" style="fill:#292d32" transform="translate(-1.75 -3.25)"/>
</svg>
