<svg xmlns="http://www.w3.org/2000/svg" width="21.5" height="19.501" viewBox="0 0 21.5 19.501">
    <path data-name="Path 13358" d="M17 16.25a.75.75 0 0 0 0 1.5zM14.25 15a.75.75 0 0 0 1.5 0zM5.115 7.513A.75.75 0 0 0 4.885 9zm3.614 2.474a.75.75 0 1 0 .541-1.4zm4.021-3.934a.75.75 0 0 0-1.5 0zM12 21v.75a.75.75 0 0 0 .75-.75zM3.994 3.011l.084-.745zm7.322 2.413.43-.614zM3.994 18.372l.084-.745zm7.322 2.413.43-.614zm8.69-17.774-.084-.745zm-7.323 2.413-.43-.614zM21.25 14a.75.75 0 0 0 1.5 0zM5.115 11.514A.75.75 0 1 0 4.885 13zm1.7 1.872a.75.75 0 0 0 .367-1.455zM18.25 15A1.25 1.25 0 0 1 17 16.25v1.5A2.75 2.75 0 0 0 19.75 15zm-2.5 0A1.25 1.25 0 0 1 17 13.75v-1.5A2.75 2.75 0 0 0 14.25 15zM17 13.75A1.25 1.25 0 0 1 18.25 15h1.5A2.75 2.75 0 0 0 17 12.25zM4.885 9a18.838 18.838 0 0 1 3.844.992l.541-1.4a20.331 20.331 0 0 0-4.155-1.079zm6.365-2.947V21h1.5V6.053zm-7.34-2.3a15.932 15.932 0 0 1 6.976 2.282l.861-1.228a17.385 17.385 0 0 0-7.668-2.541zm0 15.361a15.931 15.931 0 0 1 6.976 2.286l.861-1.228a17.384 17.384 0 0 0-7.669-2.544zM1.25 4.935V16.2h1.5V4.935zm2.829 12.692A1.475 1.475 0 0 1 2.75 16.2h-1.5a2.975 2.975 0 0 0 2.66 2.918zm0-15.361A2.6 2.6 0 0 0 1.25 4.935h1.5a1.1 1.1 0 0 1 1.16-1.178zm15.843 0a17.385 17.385 0 0 0-7.669 2.544l.861 1.228a15.931 15.931 0 0 1 6.976-2.281zm1.328 2.669V14h1.5V4.935zm-1.16-1.178a1.1 1.1 0 0 1 1.16 1.179h1.5a2.6 2.6 0 0 0-2.829-2.669zm-9.2 2.282a1.945 1.945 0 0 0 2.227 0l-.864-1.229a.445.445 0 0 1-.506 0zm0 15.361a1.94 1.94 0 0 0 1.11.35v-1.5a.44.44 0 0 1-.253-.079zm-6-8.4c.619.1 1.273.224 1.931.39l.367-1.455a22.581 22.581 0 0 0-2.069-.418z" style="fill:#28303f" transform="translate(-1.25 -2.249)"/>
    <path data-name="Path 13359" d="M18 20a1 1 0 1 1-1-1 1 1 0 0 1 1 1z" style="fill:#28303f" transform="translate(-1.25 -2.249)"/>
</svg>
