<svg xmlns="http://www.w3.org/2000/svg" width="20" height="20" viewBox="0 0 20 20">
  <g id="linkedin" transform="translate(-2 -2)">
    <path id="Path_12937" data-name="Path 12937" d="M2,5A3,3,0,0,1,5,2H19a3,3,0,0,1,3,3V19a3,3,0,0,1-3,3H5a3,3,0,0,1-3-3Z" fill="currentColor" opacity="0.25"/>
    <path id="Path_12938" data-name="Path 12938" d="M7,8A1,1,0,1,0,6,7,1,1,0,0,0,7,8Z" fill="currentColor"/>
    <path id="Path_12939" data-name="Path 12939" d="M7,10a1,1,0,0,0-1,1v6a1,1,0,0,0,2,0V11A1,1,0,0,0,7,10Z" fill="currentColor"/>
    <path id="Path_12940" data-name="Path 12940" d="M14,12a2,2,0,0,0-2,2v3a1,1,0,0,1-2,0V11a1,1,0,0,1,1.911-.412A4,4,0,0,1,18,14v3a1,1,0,0,1-2,0V14A2,2,0,0,0,14,12Z" fill="currentColor"/>
  </g>
</svg>
