<svg xmlns="http://www.w3.org/2000/svg" width="25" height="25" viewBox="0 0 25 25">
    <path stroke="currentColor" data-name="20-account" d="M12 2a10 10 0 0 0-7.434 16.688A5 5 0 0 1 9 16h6a5 5 0 0 1 4.434 2.688A10 10 0 0 0 12 2zm5.863 18.1A3 3 0 0 0 15 18H9a3 3 0 0 0-2.863 2.1 10 10 0 0 0 11.727 0zM0 12a12 12 0 1 1 4.4 9.283A12 12 0 0 1 0 12zm12-5a3 3 0 1 0 3.018 3A3.009 3.009 0 0 0 12 7zm-5.018 3A5.018 5.018 0 1 1 12 15a5.009 5.009 0 0 1-5.018-5z" transform="translate(.5 .5)" style="stroke:transparent;stroke-miterlimit:10;fill-rule:evenodd"/>
</svg>
