<svg xmlns="http://www.w3.org/2000/svg" width="22" height="21.59" viewBox="0 0 22 21.59">
    <path data-name="13-message" d="M4 3a1 1 0 0 0-1 1v12.586l2.293-2.293A1 1 0 0 1 6 14h10a1 1 0 0 0 1-1V4a1 1 0 0 0-1-1zM1 4a3 3 0 0 1 3-3h12a3 3 0 0 1 3 3v3h1a3 3 0 0 1 3 3v10.586A2 2 0 0 1 19.586 22l-2-2H10a3 3 0 0 1-3-3v-1h-.586l-2 2A2 2 0 0 1 1 16.586zm8 12v1a1 1 0 0 0 1 1h8a1 1 0 0 1 .707.293L21 20.586V10a1 1 0 0 0-1-1h-1v4a3 3 0 0 1-3 3zM5 7a1 1 0 0 1 1-1h3a1 1 0 0 1 0 2H6a1 1 0 0 1-1-1zm0 4a1 1 0 0 1 1-1h8a1 1 0 0 1 0 2H6a1 1 0 0 1-1-1z" transform="translate(-1 -1)" style="fill-rule:evenodd"/>
</svg>
