<svg xmlns="http://www.w3.org/2000/svg" width="21.5" height="21.5" viewBox="0 0 21.5 21.5">
    <path data-name="5-money" d="M3 4.061a.651.651 0 0 0-.25.439.651.651 0 0 0 .25.439 3.338 3.338 0 0 0 1.048.637A10.666 10.666 0 0 0 8 6.25a10.666 10.666 0 0 0 3.954-.675A3.339 3.339 0 0 0 13 4.939a.651.651 0 0 0 .25-.439.651.651 0 0 0-.25-.439 3.339 3.339 0 0 0-1.048-.637A10.666 10.666 0 0 0 8 2.75a10.666 10.666 0 0 0-3.954.675A3.338 3.338 0 0 0 3 4.061zm10.25 2.546a6.174 6.174 0 0 1-.719.353A12.14 12.14 0 0 1 8 7.75a12.139 12.139 0 0 1-4.531-.79 6.174 6.174 0 0 1-.719-.353V8.5a.651.651 0 0 0 .25.439 3.338 3.338 0 0 0 1.048.637A10.666 10.666 0 0 0 8 10.25a10.666 10.666 0 0 0 3.954-.675A3.339 3.339 0 0 0 13 8.939a.651.651 0 0 0 .25-.439zm0 4a6.161 6.161 0 0 1-.719.353A12.139 12.139 0 0 1 8 11.75a12.139 12.139 0 0 1-4.531-.79 6.161 6.161 0 0 1-.719-.353V12.5a.651.651 0 0 0 .25.439 3.338 3.338 0 0 0 1.048.637A10.667 10.667 0 0 0 8 14.25a13.091 13.091 0 0 0 1.818-.124 4.406 4.406 0 0 1 1.5-1.022 9.323 9.323 0 0 1 1.931-.593zm1.5 1.694V4.5a2.122 2.122 0 0 0-.7-1.507 4.8 4.8 0 0 0-1.524-.953A12.139 12.139 0 0 0 8 1.25a12.139 12.139 0 0 0-4.531.79 4.8 4.8 0 0 0-1.524.953A2.122 2.122 0 0 0 1.25 4.5v12a2.122 2.122 0 0 0 .7 1.507 4.8 4.8 0 0 0 1.524.953A12.139 12.139 0 0 0 8 19.75c.431 0 .852-.018 1.261-.052a2.189 2.189 0 0 0 .685 1.31 4.8 4.8 0 0 0 1.524.953 12.139 12.139 0 0 0 4.53.789 12.139 12.139 0 0 0 4.531-.79 4.8 4.8 0 0 0 1.524-.953 2.122 2.122 0 0 0 .7-1.507v-4a2.122 2.122 0 0 0-.7-1.507 4.8 4.8 0 0 0-1.524-.953A12.139 12.139 0 0 0 16 12.25c-.427 0-.845.018-1.25.05zm6.5 5.306V19.5a.651.651 0 0 1-.248.439 3.339 3.339 0 0 1-1.048.637A10.667 10.667 0 0 1 16 21.25a10.667 10.667 0 0 1-3.954-.674A3.339 3.339 0 0 1 11 19.939a.651.651 0 0 1-.248-.439v-1.893a6.161 6.161 0 0 0 .719.353 12.139 12.139 0 0 0 4.529.79 12.139 12.139 0 0 0 4.531-.79 6.161 6.161 0 0 0 .719-.353zm-12-1.907v2.494c-.4.038-.819.057-1.25.057a10.667 10.667 0 0 1-3.954-.674A3.338 3.338 0 0 1 3 16.939a.651.651 0 0 1-.25-.439v-1.893a6.161 6.161 0 0 0 .719.353A12.139 12.139 0 0 0 8 15.75c.427 0 .845-.018 1.25-.05zm1.5-.2a.651.651 0 0 0 .248.439 3.339 3.339 0 0 0 1.048.637A10.667 10.667 0 0 0 16 17.25a10.667 10.667 0 0 0 3.954-.674A3.339 3.339 0 0 0 21 15.939a.512.512 0 0 0 0-.878 3.339 3.339 0 0 0-1.048-.637A10.667 10.667 0 0 0 16 13.75a13.024 13.024 0 0 0-1.891.134 8.538 8.538 0 0 0-2.181.591 2.558 2.558 0 0 0-1.083.767.46.46 0 0 0-.095.258z" transform="translate(-1.25 -1.25)" style="fill:#293644;fill-rule:evenodd"/>
</svg>
