<svg xmlns="http://www.w3.org/2000/svg" width="19.147" height="19.147" viewBox="0 0 19.147 19.147">
    <path data-name="10-message" d="M10.516 2.733A7.8 7.8 0 0 0 3.868 14.6l.235.382-1.467 3.427 3.422-1.467.382.235a7.8 7.8 0 1 0 4.076-14.444zm-9.529 7.8a9.525 9.525 0 1 1 4.941 8.354L3.318 20a1.733 1.733 0 0 1-2.275-2.275l1.118-2.61a9.49 9.49 0 0 1-1.175-4.586zM6.184 8.8a.866.866 0 0 1 .866-.87h2.6a.866.866 0 0 1 0 1.733h-2.6a.866.866 0 0 1-.866-.863zm0 3.465a.866.866 0 0 1 .866-.865h6.93a.866.866 0 1 1 0 1.733H7.05a.866.866 0 0 1-.866-.871z" transform="translate(-.898 -1)" style="fill:#200e32;fill-rule:evenodd"/>
</svg>
