<svg xmlns="http://www.w3.org/2000/svg" width="18" height="20">
    <defs>
        <style>
            .pdf{fill:#ee4937}
        </style>
    </defs>
    <g id="icons8-pdf" transform="translate(-2 -2)">
        <path id="Path_11810" data-name="Path 11810" class="pdf" d="M18 22H6a2.006 2.006 0 0 1-2-2v-3h2v3h12V7.8L14.2 4H6v6H4V4a2.006 2.006 0 0 1 2-2h9l5 5v13a2.006 2.006 0 0 1-2 2z"/>
        <path id="Path_11811" data-name="Path 11811" class="pdf" d="M18.5 8H14V3.5z"/>
        <path id="Path_11812" data-name="Path 11812" d="M13.6 3H6a.945.945 0 0 0-1 1v6h12v7H5v3a.945.945 0 0 0 1 1h12a.945.945 0 0 0 1-1V8.4z" style="opacity:.3;fill:#ee4937"/>
        <path id="Path_11813" data-name="Path 11813" class="pdf" d="M5.5 12H5v1h.5a.5.5 0 0 0 0-1zm4.1 0H9v3h.6c.6 0 1.4-.2 1.4-1.1v-.8c0-.9-.7-1.1-1.4-1.1z"/>
        <path id="Path_11814" data-name="Path 11814" class="pdf" d="M4 9a2.006 2.006 0 0 0-2 2v5a2.006 2.006 0 0 0 2 2h15V9zm1.5 5H5v2H4v-5h1.5a1.5 1.5 0 0 1 0 3zm6.5-.1c0 1.2-.8 2.1-2.4 2.1H8v-5h1.6a2.139 2.139 0 0 1 2.4 2.1zm4-1.9h-2v1h1.6v1H14v2h-1v-5h3z"/>
    </g>
</svg>