<svg xmlns="http://www.w3.org/2000/svg" width="11.553" height="11.553" viewBox="0 0 11.553 11.553">
    <path data-name="Path 13652" d="m3.69 11.5-.318.318a1.271 1.271 0 0 0-.372.9V15a1.272 1.272 0 0 0 1.272 1.272h2.28a1.271 1.271 0 0 0 .9-.372l.318-.318z" transform="translate(-3 -4.715)" style="fill-rule:evenodd;fill:#121319"/>
    <path data-name="Path 13653" d="M5.5 7.869 9.369 4l4.078 4.078-3.869 3.869z" transform="translate(-3.911 -1.983)" style="fill-rule:evenodd;fill:#121319"/>
    <path data-name="Path 13654" d="M16.256 1.387a1.907 1.907 0 0 0-2.7 0L13 1.946l4.078 4.078.559-.559a1.907 1.907 0 0 0 0-2.7z" transform="translate(-6.642 -.828)" style="fill:#191213;opacity:.25;fill-rule:evenodd"/>
</svg>
