<svg xmlns="http://www.w3.org/2000/svg" width="18" height="20">
    <defs>
        <style>
            .ptt{fill:#ff671b}
        </style>
    </defs>
    <g id="icons8-ppt" transform="translate(-2 -2)">
        <path id="Path_11815" data-name="Path 11815" class="ptt" d="M18 22H6a2.006 2.006 0 0 1-2-2v-3h2v3h12V7.8L14.2 4H6v6H4V4a2.006 2.006 0 0 1 2-2h9l5 5v13a2.006 2.006 0 0 1-2 2z"/>
        <path id="Path_11816" data-name="Path 11816" class="ptt" d="M18.5 8H14V3.5z"/>
        <path id="Path_11817" data-name="Path 11817" d="M13.6 3H6a.945.945 0 0 0-1 1v6h11v7H5v3a.945.945 0 0 0 1 1h12a.945.945 0 0 0 1-1V8.4z" style="opacity:.3;fill:#ff671b"/>
        <path id="Path_11818" data-name="Path 11818" class="ptt" d="M9.5 12H9v1h.5a.5.5 0 0 0 0-1zm-4 0H5v1h.5a.5.5 0 0 0 0-1z"/>
        <path id="Path_11819" data-name="Path 11819" class="ptt" d="M9.5 12H9v1h.5a.5.5 0 0 0 0-1z"/>
        <path id="Path_11820" data-name="Path 11820" class="ptt" d="M4 9a2.006 2.006 0 0 0-2 2v5a2.006 2.006 0 0 0 2 2h11a2.006 2.006 0 0 0 2-2v-5a2.006 2.006 0 0 0-2-2zm1.5 5H5v2H4v-5h1.5a1.5 1.5 0 0 1 0 3zm4 0H9v2H8v-5h1.5a1.5 1.5 0 0 1 0 3zm5.5-2h-1v4h-1v-4h-1v-1h3z"/>
    </g>
</svg>