<svg xmlns="http://www.w3.org/2000/svg" width="21.6" height="21.6" viewBox="0 0 21.6 21.6">
    <path data-name="46-rocket" d="M9.584 6.9a12.007 12.007 0 0 1 11.785-5.735 1.688 1.688 0 0 1 1.466 1.466A12.006 12.006 0 0 1 17.1 14.416l-1.348.809v2.814a2.75 2.75 0 0 1-1.032 2.147l-2.625 2.1a1.75 1.75 0 0 1-2.845-1.367v-1.853a2.75 2.75 0 0 1-2.885-.64l-.792-.792a2.75 2.75 0 0 1-.64-2.885H3.081a1.75 1.75 0 0 1-1.367-2.843l2.1-2.625A2.75 2.75 0 0 1 5.961 8.25h2.814zM7.875 9.75H5.961a1.25 1.25 0 0 0-.976.469l-2.1 2.625a.25.25 0 0 0 .2.406h2.69zm2.875 8.475v2.695a.25.25 0 0 0 .406.2l2.625-2.1a1.25 1.25 0 0 0 .469-.976v-1.919zM21.183 2.654a10.507 10.507 0 0 0-10.313 5.02l-4.423 7.373a1.25 1.25 0 0 0 .188 1.527l.792.792a1.25 1.25 0 0 0 1.527.188l7.373-4.424a10.507 10.507 0 0 0 5.02-10.313.188.188 0 0 0-.164-.163zM18.53 5.47a.75.75 0 0 1 0 1.061l-1 1a.75.75 0 1 1-1.06-1.061l1-1a.75.75 0 0 1 1.06 0zm-14 14a.75.75 0 0 1 0 1.061l-1 1a.75.75 0 0 1-1.06-1.061l1-1a.75.75 0 0 1 1.06 0z" transform="translate(-1.327 -1.072)" style="fill:#293644;fill-rule:evenodd"/>
</svg>
