<svg xmlns="http://www.w3.org/2000/svg" width="122.056" height="39.352" viewBox="0 0 122.056 39.352">
    <defs>
        <clipPath id="clip-path">
            <path id="Path_55" data-name="Path 55" d="M394.111 51.5a3.468 3.468 0 0 0-5.479-.574l-8.9 9.419a3.468 3.468 0 0 0 4.186 5.424l6.292-3.447L395.649 67a3.468 3.468 0 0 0 5.219-4.439z" transform="translate(-378.749 -49.843)" style="clip-rule:evenodd;isolation:isolate;mix-blend-mode:color-dodge;fill:#ffc879"/>
        </clipPath>
        <clipPath id="clip-path-2">
            <path id="Path_57" data-name="Path 57" d="M385.974 46.815a3.426 3.426 0 0 0 5.413.567l8.8-9.3a3.426 3.426 0 0 0-4.135-5.358l-6.218 3.405-5.38-4.629a3.426 3.426 0 0 0-5.156 4.385z" transform="translate(-378.764 -30.644)" style="mix-blend-mode:hard-light;fill:#3bc4f0;clip-rule:evenodd;isolation:isolate"/>
        </clipPath>
        <style>
            .cls-11{fill:#20314d}
        </style>
    </defs>
    <g id="Logo" transform="translate(-211 -92.173)">
        <g id="Group_36" data-name="Group 36" transform="translate(211 92.173)">
            <g id="Group_27" data-name="Group 27">
                <path id="Path_1" data-name="Path 1" d="M389.494 48.885a2.882 2.882 0 0 0 .853 4.5l9.625 4.834a2.882 2.882 0 0 0 3.315-4.629l-4.247-4.19 8.8-13.684a2.882 2.882 0 0 0-4.779-3.093z" transform="translate(-365.829 -29.005)" style="fill-rule:evenodd;fill:#e93e58"/>
                <path id="Path_2" data-name="Path 2" d="M387.158 49.232a2.883 2.883 0 0 0-.853-4.5l-9.626-4.832a2.882 2.882 0 0 0-3.315 4.628l4.249 4.184-8.8 13.685a2.881 2.881 0 0 0 4.779 3.092z" transform="translate(-368.541 -29.439)" style="fill:#20314d;fill-rule:evenodd;isolation:isolate"/>
                <path id="Path_3" data-name="Path 3" d="M384.828 44.247a2.882 2.882 0 0 0 4.553.477l7.4-7.827a2.882 2.882 0 0 0-3.481-4.507l-5.23 2.864-4.521-3.887a2.882 2.882 0 0 0-4.337 3.689z" transform="translate(-368.412 -28.005)" style="fill:#189ac4;fill-rule:evenodd;isolation:isolate"/>
                <path id="Path_4" data-name="Path 4" d="M391.515 51.222a2.882 2.882 0 0 0-4.553-.477l-7.4 7.827a2.882 2.882 0 0 0 3.478 4.507l5.229-2.864 4.523 3.887a2.882 2.882 0 0 0 4.337-3.689z" transform="translate(-365.391 -28.521)" style="fill:#eca339;fill-rule:evenodd;isolation:isolate"/>
                <g id="Mask_Group_5" data-name="Mask Group 5" transform="translate(10.957 21.322)" style="clip-path:url(#clip-path)">
                    <path id="Path_54" data-name="Path 54" d="M389.633 52.14a3.426 3.426 0 0 0 1.014 5.348l11.442 5.747a3.427 3.427 0 0 0 3.941-5.5l-5.05-4.974 10.464-16.271a3.426 3.426 0 0 0-5.682-3.678z" transform="translate(-377.396 -54.722)" style="fill-rule:evenodd;fill:#ffc879"/>
                </g>
                <g id="Mask_Group_6" data-name="Mask Group 6" transform="translate(9.247)" style="clip-path:url(#clip-path-2)">
                    <path id="Path_56" data-name="Path 56" d="M390.673 51.057a3.427 3.427 0 0 0-1.014-5.348l-11.444-5.747a3.426 3.426 0 0 0-3.941 5.5l5.051 4.974-10.462 16.272a3.425 3.425 0 0 0 5.682 3.676z" transform="translate(-381.426 -30.664)" style="fill-rule:evenodd;fill:#3bc4f0;isolation:isolate"/>
                </g>
            </g>
            <path id="Path_58" data-name="Path 58" class="cls-11" d="M13.922-33.168a6.006 6.006 0 0 1-1.265 3.779l1.063 1.147-2.109 1.873-1.164-1.248a6.2 6.2 0 0 1-2.716.607 6.006 6.006 0 0 1-4.395-1.78 5.922 5.922 0 0 1-1.8-4.378 5.922 5.922 0 0 1 1.8-4.378 6.006 6.006 0 0 1 4.395-1.78 6.006 6.006 0 0 1 4.395 1.78 5.922 5.922 0 0 1 1.796 4.378zm-6.191 3.206A4.642 4.642 0 0 0 8.22-30l-1.585-1.7 2.125-1.856 1.805 1.923a3.385 3.385 0 0 0 .354-1.535 3.1 3.1 0 0 0-.911-2.3 3.105 3.105 0 0 0-2.277-.9 3.105 3.105 0 0 0-2.277.9 3.1 3.1 0 0 0-.911 2.3 3.1 3.1 0 0 0 .911 2.3 3.105 3.105 0 0 0 2.277.906zm10.054-.489a1.811 1.811 0 0 0 1.889 1.029 2.149 2.149 0 0 0 1.535-.59l2.025 1.412a4.36 4.36 0 0 1-3.627 1.569 4.71 4.71 0 0 1-3.433-1.257 4.251 4.251 0 0 1-1.291-3.18 4.358 4.358 0 0 1 1.265-3.188 4.334 4.334 0 0 1 3.222-1.282 4.17 4.17 0 0 1 3.121 1.265 4.364 4.364 0 0 1 1.233 3.173 4.448 4.448 0 0 1-.118 1.046zm-.034-1.94h3.239a1.5 1.5 0 0 0-1.59-1.181 1.555 1.555 0 0 0-1.648 1.18zM34.065-35.7h2.969l-2.581 8.435H31.72l-1.215-4.285-1.215 4.285h-2.732L23.977-35.7h2.969l1.113 4.589 1.265-4.589h2.362l1.265 4.589zm9.548 0h2.8v8.435h-2.8v-.776a2.974 2.974 0 0 1-2.4 1.012 3.638 3.638 0 0 1-2.821-1.271 4.6 4.6 0 0 1-1.139-3.18 4.6 4.6 0 0 1 1.139-3.18 3.638 3.638 0 0 1 2.826-1.274 2.974 2.974 0 0 1 2.4 1.012zm-3.053 5.55a1.7 1.7 0 0 0 1.282.506 1.7 1.7 0 0 0 1.282-.506 1.837 1.837 0 0 0 .489-1.333 1.837 1.837 0 0 0-.489-1.333 1.7 1.7 0 0 0-1.282-.506 1.7 1.7 0 0 0-1.282.506 1.836 1.836 0 0 0-.489 1.333 1.837 1.837 0 0 0 .489 1.335zm17.156-5.786a2.98 2.98 0 0 1 2.32.936 3.68 3.68 0 0 1 .852 2.573v5.162H58.07V-32.1q0-1.181-1.046-1.181a1.033 1.033 0 0 0-.869.38 1.649 1.649 0 0 0-.3 1.037v4.605h-2.8V-32.1q0-1.181-1.063-1.181a1.033 1.033 0 0 0-.869.38 1.649 1.649 0 0 0-.3 1.037v4.605h-2.8V-35.7h2.8v.793a2.675 2.675 0 0 1 2.277-1.029 2.4 2.4 0 0 1 2.159 1.08 2.976 2.976 0 0 1 2.457-1.078zm14.44 8.671h-3.374L66.927-30.4l-1.856 3.138H61.68l3.559-6.022-3.425-5.786h3.391l1.721 2.918 1.721-2.918h3.391l-3.425 5.8z" transform="translate(49.555 46.33)"/>
        </g>
        <path id="Path_59" data-name="Path 59" class="cls-11" d="M1.5-14.213a.422.422 0 0 1-.309.129.427.427 0 0 1-.312-.132.427.427 0 0 1-.132-.312.432.432 0 0 1 .129-.312.424.424 0 0 1 .316-.132.424.424 0 0 1 .316.132.432.432 0 0 1 .129.312.433.433 0 0 1-.137.315zM.843-10.38v-3.22h.7v3.221zm3.079-3.3a1.187 1.187 0 0 1 .9.354 1.343 1.343 0 0 1 .341.973v1.977h-.7v-1.907a.75.75 0 0 0-.193-.554.714.714 0 0 0-.528-.193.8.8 0 0 0-.593.229.96.96 0 0 0-.225.7v1.726h-.7V-13.6h.7v.412a1.1 1.1 0 0 1 .997-.497zm3.562 0a1.187 1.187 0 0 1 .9.354 1.343 1.343 0 0 1 .341.973v1.977h-.7v-1.907a.75.75 0 0 0-.193-.554.714.714 0 0 0-.528-.193.8.8 0 0 0-.593.229.96.96 0 0 0-.225.7v1.726h-.7V-13.6h.7v.412a1.1 1.1 0 0 1 .997-.497zm3.387 3.38a1.651 1.651 0 0 1-1.2-.49 1.626 1.626 0 0 1-.5-1.2 1.626 1.626 0 0 1 .5-1.2 1.651 1.651 0 0 1 1.2-.49 1.648 1.648 0 0 1 1.208.49 1.632 1.632 0 0 1 .493 1.2 1.632 1.632 0 0 1-.493 1.2 1.648 1.648 0 0 1-1.208.49zm-.715-.966a.971.971 0 0 0 .715.29.971.971 0 0 0 .715-.29.987.987 0 0 0 .29-.728.987.987 0 0 0-.29-.728.971.971 0 0 0-.715-.29.971.971 0 0 0-.715.29.987.987 0 0 0-.29.728.987.987 0 0 0 .29.731zm4.986-2.334h.76l-1.256 3.22h-.805l-1.256-3.22h.76l.9 2.448zm3.5 0h.7v3.221h-.7v-.464a1.3 1.3 0 0 1-1.127.547 1.51 1.51 0 0 1-1.134-.493 1.675 1.675 0 0 1-.47-1.2 1.672 1.672 0 0 1 .47-1.2 1.515 1.515 0 0 1 1.134-.49 1.308 1.308 0 0 1 1.127.541zM16.9-11.25a.987.987 0 0 0 .728.29.981.981 0 0 0 .728-.293 1.006 1.006 0 0 0 .29-.738 1.006 1.006 0 0 0-.29-.738.981.981 0 0 0-.728-.293.981.981 0 0 0-.728.293 1.006 1.006 0 0 0-.29.738 1.017 1.017 0 0 0 .29.741zm4.934-1.681h-.8v1.546a.385.385 0 0 0 .09.287.4.4 0 0 0 .267.1 4.4 4.4 0 0 0 .441 0v.625a1.736 1.736 0 0 1-1.147-.138.972.972 0 0 1-.348-.866v-1.546h-.593v-.67h.593v-.7l.7-.206v.9h.8zm1.172-1.282a.422.422 0 0 1-.309.129.427.427 0 0 1-.312-.132.427.427 0 0 1-.132-.312.432.432 0 0 1 .129-.312.424.424 0 0 1 .316-.132.424.424 0 0 1 .316.132.432.432 0 0 1 .129.312.433.433 0 0 1-.136.315zm-.656 3.833v-3.22h.7v3.221zm2.9.084a1.651 1.651 0 0 1-1.2-.49 1.626 1.626 0 0 1-.5-1.2 1.626 1.626 0 0 1 .5-1.2 1.651 1.651 0 0 1 1.2-.49 1.648 1.648 0 0 1 1.208.49 1.632 1.632 0 0 1 .493 1.2 1.632 1.632 0 0 1-.493 1.2 1.648 1.648 0 0 1-1.204.486zm-.715-.966a.971.971 0 0 0 .715.29.971.971 0 0 0 .715-.29.987.987 0 0 0 .29-.728.987.987 0 0 0-.29-.728.971.971 0 0 0-.715-.29.971.971 0 0 0-.715.29.987.987 0 0 0-.29.728.987.987 0 0 0 .295.727zm4.625-2.422a1.187 1.187 0 0 1 .9.354 1.343 1.343 0 0 1 .341.973v1.977h-.7v-1.907a.75.75 0 0 0-.193-.554.714.714 0 0 0-.528-.193.8.8 0 0 0-.593.229.96.96 0 0 0-.225.7v1.726h-.7V-13.6h.7v.412a1.1 1.1 0 0 1 1.002-.497zm6.879 0a1.158 1.158 0 0 1 .882.354 1.331 1.331 0 0 1 .335.953v2h-.7v-1.952a.742.742 0 0 0-.167-.519.588.588 0 0 0-.457-.184.653.653 0 0 0-.512.213.931.931 0 0 0-.19.638v1.8h-.7v-1.952a.772.772 0 0 0-.158-.519.558.558 0 0 0-.448-.184.67.67 0 0 0-.515.216.9.9 0 0 0-.2.634v1.8h-.7V-13.6h.7v.386a1.03 1.03 0 0 1 .921-.47.986.986 0 0 1 .915.509 1.086 1.086 0 0 1 .998-.51zm4.4.084h.7v3.221h-.7v-.464a1.3 1.3 0 0 1-1.127.547 1.51 1.51 0 0 1-1.134-.493 1.675 1.675 0 0 1-.47-1.2 1.672 1.672 0 0 1 .47-1.2 1.515 1.515 0 0 1 1.134-.49 1.308 1.308 0 0 1 1.127.541zM38.7-11.25a.987.987 0 0 0 .728.29.981.981 0 0 0 .728-.293 1.006 1.006 0 0 0 .29-.738 1.006 1.006 0 0 0-.29-.738.981.981 0 0 0-.728-.293.981.981 0 0 0-.728.293 1.006 1.006 0 0 0-.29.738 1.017 1.017 0 0 0 .29.741zm4.831-2.435a1.187 1.187 0 0 1 .9.354 1.343 1.343 0 0 1 .341.973v1.977h-.7v-1.907a.75.75 0 0 0-.193-.554.714.714 0 0 0-.528-.193.8.8 0 0 0-.593.229.96.96 0 0 0-.225.7v1.726h-.7v-3.22h.7v.412a1.1 1.1 0 0 1 .995-.497zm4.419.084h.7v3.221h-.7v-.464a1.3 1.3 0 0 1-1.127.547 1.51 1.51 0 0 1-1.134-.493 1.675 1.675 0 0 1-.47-1.2 1.672 1.672 0 0 1 .47-1.2 1.515 1.515 0 0 1 1.134-.49 1.308 1.308 0 0 1 1.127.541zM46.2-11.25a.987.987 0 0 0 .728.29.981.981 0 0 0 .728-.293 1.006 1.006 0 0 0 .29-.738 1.006 1.006 0 0 0-.29-.738.981.981 0 0 0-.728-.293.981.981 0 0 0-.728.293 1.006 1.006 0 0 0-.29.738 1.017 1.017 0 0 0 .29.741zm5.7-2.35h.683v3.072A1.369 1.369 0 0 1 52.1-9.4a1.8 1.8 0 0 1-1.172.393 1.569 1.569 0 0 1-1.528-.781l.6-.348a.955.955 0 0 0 .94.5 1 1 0 0 0 .705-.235.846.846 0 0 0 .254-.654v-.393a1.287 1.287 0 0 1-1.121.56 1.542 1.542 0 0 1-1.153-.486 1.63 1.63 0 0 1-.47-1.176 1.63 1.63 0 0 1 .47-1.176 1.542 1.542 0 0 1 1.153-.486 1.287 1.287 0 0 1 1.121.56zm-1.758 2.3a1.009 1.009 0 0 0 .734.29 1 1 0 0 0 .731-.29.974.974 0 0 0 .293-.721.974.974 0 0 0-.293-.721 1 1 0 0 0-.731-.29 1 1 0 0 0-.731.29.974.974 0 0 0-.293.721.979.979 0 0 0 .291.721zm3.684-.393a.884.884 0 0 0 .354.564 1.139 1.139 0 0 0 .676.2.944.944 0 0 0 .831-.4l.573.335a1.594 1.594 0 0 1-1.411.7 1.722 1.722 0 0 1-1.269-.48 1.64 1.64 0 0 1-.483-1.214 1.657 1.657 0 0 1 .477-1.208 1.639 1.639 0 0 1 1.224-.486 1.506 1.506 0 0 1 1.163.5 1.719 1.719 0 0 1 .454 1.2 2.152 2.152 0 0 1-.026.29zm-.006-.567h1.894a.929.929 0 0 0-.325-.593.937.937 0 0 0-.6-.2.978.978 0 0 0-.644.213.959.959 0 0 0-.324.579zm6.609-1.423a1.158 1.158 0 0 1 .882.354 1.331 1.331 0 0 1 .335.953v2h-.7v-1.952a.742.742 0 0 0-.167-.519.588.588 0 0 0-.457-.184.653.653 0 0 0-.512.213.931.931 0 0 0-.19.638v1.8h-.7v-1.952a.772.772 0 0 0-.158-.519.558.558 0 0 0-.448-.184.67.67 0 0 0-.515.216.9.9 0 0 0-.2.634v1.8h-.7V-13.6h.7v.386a1.03 1.03 0 0 1 .921-.47.986.986 0 0 1 .915.509 1.086 1.086 0 0 1 .995-.51zm2.4 1.99a.884.884 0 0 0 .354.564 1.139 1.139 0 0 0 .676.2.944.944 0 0 0 .831-.4l.57.329a1.594 1.594 0 0 1-1.411.7 1.722 1.722 0 0 1-1.269-.48 1.64 1.64 0 0 1-.483-1.214 1.657 1.657 0 0 1 .477-1.208 1.639 1.639 0 0 1 1.224-.486 1.506 1.506 0 0 1 1.163.5 1.72 1.72 0 0 1 .454 1.2 2.154 2.154 0 0 1-.026.29zm-.006-.567h1.894a.929.929 0 0 0-.325-.593.937.937 0 0 0-.6-.2.978.978 0 0 0-.644.213.959.959 0 0 0-.329.579zm4.786-1.423a1.187 1.187 0 0 1 .9.354 1.343 1.343 0 0 1 .341.973v1.977h-.7v-1.907a.75.75 0 0 0-.193-.554.714.714 0 0 0-.528-.193.8.8 0 0 0-.593.229.96.96 0 0 0-.225.7v1.726h-.7V-13.6h.7v.412a1.1 1.1 0 0 1 .994-.497zm3.665.754h-.8v1.546a.385.385 0 0 0 .09.287.4.4 0 0 0 .267.1 4.4 4.4 0 0 0 .441 0v.625a1.736 1.736 0 0 1-1.147-.138.972.972 0 0 1-.348-.866v-1.546h-.593v-.67h.593v-.7l.7-.206v.9h.8zM1.467-6.884a.283.283 0 0 0 .177.254 2.07 2.07 0 0 0 .432.161q.254.068.512.158a.967.967 0 0 1 .435.306.829.829 0 0 1 .177.544.855.855 0 0 1-.357.728 1.471 1.471 0 0 1-.9.264 1.593 1.593 0 0 1-.818-.2 1.171 1.171 0 0 1-.5-.554l.6-.348a.683.683 0 0 0 .715.464q.547 0 .547-.361a.286.286 0 0 0-.177-.251 1.951 1.951 0 0 0-.432-.164q-.254-.068-.512-.158a.987.987 0 0 1-.435-.3.794.794 0 0 1-.177-.531.87.87 0 0 1 .346-.715 1.3 1.3 0 0 1 .841-.271 1.418 1.418 0 0 1 .712.177 1.205 1.205 0 0 1 .48.493l-.586.328a.608.608 0 0 0-.605-.367.607.607 0 0 0-.335.087.284.284 0 0 0-.14.256zm3.665 2.415a1.651 1.651 0 0 1-1.2-.49 1.626 1.626 0 0 1-.5-1.2 1.626 1.626 0 0 1 .5-1.2 1.651 1.651 0 0 1 1.2-.49 1.648 1.648 0 0 1 1.208.49 1.632 1.632 0 0 1 .493 1.2 1.632 1.632 0 0 1-.493 1.2 1.648 1.648 0 0 1-1.208.49zm-.715-.966a.971.971 0 0 0 .715.29.971.971 0 0 0 .715-.29.987.987 0 0 0 .29-.728.987.987 0 0 0-.29-.728.971.971 0 0 0-.715-.29.971.971 0 0 0-.715.29.987.987 0 0 0-.29.728.987.987 0 0 0 .29.728zm4.5-3.04q-.76-.071-.76.638v.064h.76v.67H8.16v2.551h-.7V-7.1h-.49v-.67h.49v-.064a1.31 1.31 0 0 1 .37-1.008 1.4 1.4 0 0 1 1.085-.3zm2.2 1.372h-.8v1.546a.385.385 0 0 0 .09.287.4.4 0 0 0 .267.1 4.4 4.4 0 0 0 .441 0v.625a1.736 1.736 0 0 1-1.147-.138.972.972 0 0 1-.348-.866V-7.1h-.584v-.67h.593v-.7l.7-.206v.9h.8zm4.258-.67h.734L15.1-4.553h-.68l-.67-2.171-.676 2.171h-.683l-1.011-3.22h.734l.625 2.222.676-2.222h.663l.67 2.222zm3.556 0h.7v3.221h-.7v-.464a1.3 1.3 0 0 1-1.127.547 1.51 1.51 0 0 1-1.134-.493 1.675 1.675 0 0 1-.47-1.2 1.672 1.672 0 0 1 .47-1.2 1.515 1.515 0 0 1 1.134-.49 1.308 1.308 0 0 1 1.127.541zM17.19-5.422a.987.987 0 0 0 .728.29.981.981 0 0 0 .728-.293 1.006 1.006 0 0 0 .29-.738 1.006 1.006 0 0 0-.29-.738.981.981 0 0 0-.728-.293.981.981 0 0 0-.728.293 1.006 1.006 0 0 0-.29.738 1.017 1.017 0 0 0 .29.741zm3.832-1.81a.985.985 0 0 1 .992-.6v.754a1.031 1.031 0 0 0-.7.19.821.821 0 0 0-.3.712v1.623h-.7v-3.22h.7zm1.791 1.366a.884.884 0 0 0 .354.564 1.139 1.139 0 0 0 .676.2.944.944 0 0 0 .831-.4l.573.335a1.594 1.594 0 0 1-1.411.7 1.722 1.722 0 0 1-1.269-.48 1.64 1.64 0 0 1-.483-1.214 1.657 1.657 0 0 1 .477-1.208 1.639 1.639 0 0 1 1.224-.486 1.506 1.506 0 0 1 1.163.5 1.72 1.72 0 0 1 .454 1.2 2.151 2.151 0 0 1-.026.29zm-.006-.567H24.7a.929.929 0 0 0-.325-.593.937.937 0 0 0-.6-.2.978.978 0 0 0-.644.213.959.959 0 0 0-.324.579z" transform="translate(261.786 130.105)"/>
        <path id="Path_60" data-name="Path 60" d="M1.762-14.213a.422.422 0 0 1-.309.129.427.427 0 0 1-.312-.132.427.427 0 0 1-.132-.312.432.432 0 0 1 .129-.312.424.424 0 0 1 .316-.132.424.424 0 0 1 .316.132.432.432 0 0 1 .129.312.433.433 0 0 1-.137.315zM1.1-10.38v-3.22h.7v3.221zm3.079-3.3a1.187 1.187 0 0 1 .9.354 1.343 1.343 0 0 1 .341.973v1.977h-.7v-1.907a.75.75 0 0 0-.193-.554.714.714 0 0 0-.527-.197.8.8 0 0 0-.593.229.96.96 0 0 0-.225.7v1.726h-.7V-13.6h.7v.412a1.1 1.1 0 0 1 1.001-.497zm3.562 0a1.187 1.187 0 0 1 .9.354 1.343 1.343 0 0 1 .341.973v1.977h-.7v-1.907a.75.75 0 0 0-.193-.554.714.714 0 0 0-.528-.193.8.8 0 0 0-.593.229.96.96 0 0 0-.225.7v1.726h-.7V-13.6h.7v.412a1.1 1.1 0 0 1 1.002-.497zm3.392 3.38a1.651 1.651 0 0 1-1.2-.49 1.626 1.626 0 0 1-.5-1.2 1.626 1.626 0 0 1 .5-1.2 1.651 1.651 0 0 1 1.2-.49 1.648 1.648 0 0 1 1.208.49 1.632 1.632 0 0 1 .493 1.2 1.632 1.632 0 0 1-.493 1.2 1.648 1.648 0 0 1-1.208.49zm-.715-.966a.971.971 0 0 0 .715.29.971.971 0 0 0 .715-.29.987.987 0 0 0 .29-.728.987.987 0 0 0-.29-.728.971.971 0 0 0-.715-.29.971.971 0 0 0-.715.29.987.987 0 0 0-.29.728.987.987 0 0 0 .291.731zM15.4-13.6h.76l-1.252 3.22H14.1l-1.253-3.22h.76l.9 2.448zm3.5 0h.7v3.221h-.7v-.464a1.3 1.3 0 0 1-1.127.547 1.51 1.51 0 0 1-1.134-.493 1.675 1.675 0 0 1-.47-1.2 1.672 1.672 0 0 1 .47-1.2 1.515 1.515 0 0 1 1.134-.49 1.308 1.308 0 0 1 1.127.541zm-1.738 2.35a.987.987 0 0 0 .728.29.981.981 0 0 0 .728-.293 1.006 1.006 0 0 0 .29-.738 1.006 1.006 0 0 0-.29-.738.981.981 0 0 0-.728-.293.981.981 0 0 0-.728.293 1.006 1.006 0 0 0-.29.738 1.017 1.017 0 0 0 .29.741zm4.938-1.681h-.8v1.546a.385.385 0 0 0 .09.287.4.4 0 0 0 .267.1 4.4 4.4 0 0 0 .441 0v.625a1.736 1.736 0 0 1-1.147-.138.972.972 0 0 1-.348-.866v-1.546h-.593v-.67h.59v-.7l.7-.206v.9h.8zm1.172-1.282a.422.422 0 0 1-.309.129.427.427 0 0 1-.312-.132.427.427 0 0 1-.132-.312.432.432 0 0 1 .129-.312.424.424 0 0 1 .316-.132.424.424 0 0 1 .316.132.432.432 0 0 1 .129.312.433.433 0 0 1-.14.315zm-.657 3.832V-13.6h.7v3.221zm2.9.084a1.651 1.651 0 0 1-1.2-.49 1.626 1.626 0 0 1-.5-1.2 1.626 1.626 0 0 1 .5-1.2 1.651 1.651 0 0 1 1.2-.49 1.648 1.648 0 0 1 1.208.49 1.632 1.632 0 0 1 .493 1.2 1.632 1.632 0 0 1-.493 1.2 1.648 1.648 0 0 1-1.206.487zm-.715-.966a.971.971 0 0 0 .715.29.971.971 0 0 0 .715-.29.987.987 0 0 0 .29-.728.987.987 0 0 0-.29-.728.971.971 0 0 0-.715-.29.971.971 0 0 0-.715.29.987.987 0 0 0-.29.728.987.987 0 0 0 .29.728zm4.625-2.422a1.187 1.187 0 0 1 .9.354 1.343 1.343 0 0 1 .341.973v1.977h-.7v-1.907a.75.75 0 0 0-.193-.554.714.714 0 0 0-.528-.193.8.8 0 0 0-.593.229.96.96 0 0 0-.225.7v1.726h-.7v-3.22h.7v.412a1.1 1.1 0 0 1 .999-.497z" transform="translate(261.524 130.105)" style="fill:#5d6a7e"/>
    </g>
</svg>
