<svg xmlns="http://www.w3.org/2000/svg" width="71.474" height="31.745" viewBox="0 0 71.474 31.745">
    <defs>
        <linearGradient id="linear-gradient" y1=".5" x2="1" y2=".5" gradientUnits="objectBoundingBox">
            <stop offset="0" stop-color="#ed254e"/>
            <stop offset=".999" stop-color="#f44e66"/>
        </linearGradient>
        <linearGradient id="linear-gradient-2" y1=".5" x2="1" y2=".5" gradientUnits="objectBoundingBox">
            <stop offset="0" stop-color="#2ec7bc"/>
            <stop offset="1" stop-color="#29ec9e"/>
        </linearGradient>
        <style>
            .cls-1{fill:#41456e}
        </style>
    </defs>
    <g id="Logo" transform="rotate(180 976.732 1262.783)">
        <g id="Group_3738" data-name="Group 3738" transform="rotate(-180 978.489 1262.783)">
            <g id="Group_3677" data-name="Group 3677">
                <g id="Group_23" data-name="Group 23" transform="translate(0 -3.803)">
                    <path id="Path_78" data-name="Path 78" class="cls-1" d="M0 7.536a3.2 3.2 0 0 1 .2-1.171 2.79 2.79 0 0 1 .473-.826 2.472 2.472 0 0 1 .593-.505 3.084 3.084 0 0 1 .609-.289 2.456 2.456 0 0 1-.224-.593 3.672 3.672 0 0 1-.1-.914A3.471 3.471 0 0 1 1.8 1.924 2.822 2.822 0 0 1 2.5.906 3.256 3.256 0 0 1 3.608.24 4.318 4.318 0 0 1 5.1 0a4.917 4.917 0 0 1 .84.08q.457.08.89.176t.9.224v3.993a4.48 4.48 0 0 1-.08.85 1.823 1.823 0 0 1-.321.745 1.633 1.633 0 0 1-.673.521 2.838 2.838 0 0 1-1.138.192 5.617 5.617 0 0 1-.658-.04q-.336-.04-.665-.112a6.022 6.022 0 0 1-.617-.168 2.59 2.59 0 0 1-.481-.208 3.088 3.088 0 0 0-.433.136 1.487 1.487 0 0 0-.4.232 1.316 1.316 0 0 0-.313.393 1.132 1.132 0 0 0-.136.553 6.218 6.218 0 0 0 .048.8q.048.368.088.657t.089.537l.08.409a.715.715 0 0 1-.032.425.6.6 0 0 1-.353.313 2.065 2.065 0 0 1-.553.128l-.633.08a4.189 4.189 0 0 1-.112-.409q-.08-.329-.168-.786T.088 8.7A7.576 7.576 0 0 1 0 7.536zM5.933 1.8q-.177-.048-.377-.088a2.259 2.259 0 0 0-.441-.04 1.819 1.819 0 0 0-1.339.417 1.745 1.745 0 0 0-.408 1.267 1.532 1.532 0 0 0 .569 1.291 2.273 2.273 0 0 0 1.435.441.65.65 0 0 0 .4-.121.459.459 0 0 0 .16-.393z" transform="translate(3.511 16.942)"/>
                    <path id="Path_79" data-name="Path 79" class="cls-1" d="M1.8 9.027a.631.631 0 0 1-.706.721H0V.721A.631.631 0 0 1 .705 0H1.8z" transform="translate(13.163 13.64)"/>
                    <path id="Path_80" data-name="Path 80" class="cls-1" d="M7.568 6.3H6.141A7.3 7.3 0 0 1 5.9 8.241a2.353 2.353 0 0 1-.6 1.01 2.223 2.223 0 0 1-.946.521 4.823 4.823 0 0 1-1.275.152 5.224 5.224 0 0 1-.649-.048 4.35 4.35 0 0 1-.7-.144 1.161 1.161 0 0 1-.585-.288.642.642 0 0 1-.087-.544l.224-1.01q.449.128.922.224a4.341 4.341 0 0 0 .858.1 1.512 1.512 0 0 0 .713-.136.931.931 0 0 0 .377-.378 1.375 1.375 0 0 0 .161-.513 8.826 8.826 0 0 0 .032-.89H3.222a3.467 3.467 0 0 1-2.429-.733A3.013 3.013 0 0 1 0 3.255 3.127 3.127 0 0 1 .9.81 3.755 3.755 0 0 1 3.495 0 6.422 6.422 0 0 1 4.9.152Q5.58.3 6.141.481v4.088h1.427zM4.345 1.732a3.224 3.224 0 0 0-.786-.1 2.045 2.045 0 0 0-1.331.353 1.5 1.5 0 0 0-.417 1.2A1.3 1.3 0 0 0 2.188 4.3a1.651 1.651 0 0 0 .97.265h1.187z" transform="translate(16.402 17.087)"/>
                    <path id="Path_81" data-name="Path 81" class="cls-1" d="M.513 1.675a.469.469 0 0 1-.369-.08A.35.35 0 0 1 0 1.306V.761L4.185.007a.326.326 0 0 1 .3.08.377.377 0 0 1 .115.289v.561z" transform="translate(30.014 28.198)"/>
                    <path id="Path_82" data-name="Path 82" class="cls-1" d="M10.07 8.177a2.644 2.644 0 0 1-1.09.208A4.677 4.677 0 0 1 7.521 8.2a2.182 2.182 0 0 1-.882-.529 1.844 1.844 0 0 1-.465-.8 4.394 4.394 0 0 1-.128-1.162A3.651 3.651 0 0 1 6.2 4.553a1.926 1.926 0 0 1 .521-.794 2.45 2.45 0 0 1 .962-.529 5.108 5.108 0 0 1 1.491-.184 4.9 4.9 0 0 1 .994.1 8.192 8.192 0 0 1 .882.232q.417.136.834.3v4.387a3.552 3.552 0 0 1-.136.986 2.035 2.035 0 0 1-.473.834 2.355 2.355 0 0 1-.914.577 4.2 4.2 0 0 1-1.459.216H0V8.947h8.322a3.133 3.133 0 0 0 1.219-.184.884.884 0 0 0 .529-.586zM7.344 1.042A1 1 0 0 1 7.649.3 1.024 1.024 0 0 1 8.4 0a1.006 1.006 0 0 1 .74.3 1 1 0 0 1 .3.738 1 1 0 0 1-.3.738 1.006 1.006 0 0 1-.738.3 1.023 1.023 0 0 1-.754-.3 1 1 0 0 1-.304-.734zm1.507 5.772a4.478 4.478 0 0 0 .617-.032 2.674 2.674 0 0 0 .377-.08.72.72 0 0 0 .241-.112V4.874a5.227 5.227 0 0 0-.505-.152 2.907 2.907 0 0 0-.649-.056 1.538 1.538 0 0 0-.922.241 1.028 1.028 0 0 0-.329.882 1.2 1.2 0 0 0 .088.5.8.8 0 0 0 .248.313.964.964 0 0 0 .369.168 2.069 2.069 0 0 0 .465.044zm.914-5.772A.991.991 0 0 1 10.078.3a1.032 1.032 0 0 1 .745-.3 1.006 1.006 0 0 1 .738.3 1.006 1.006 0 0 1 .3.738 1 1 0 0 1-.3.738 1 1 0 0 1-.738.3 1.031 1.031 0 0 1-.745-.3.991.991 0 0 1-.313-.734z" transform="translate(23.455 12.71)"/>
                </g>
                <g id="Group_24" data-name="Group 24" transform="translate(43.241)">
                    <circle id="Ellipse_55" data-name="Ellipse 55" cx="3.968" cy="3.968" r="3.968" style="fill:url(#linear-gradient)"/>
                    <circle id="Ellipse_56" data-name="Ellipse 56" class="cls-1" cx="3.968" cy="3.968" r="3.968" transform="translate(11.905)"/>
                    <circle id="Ellipse_57" data-name="Ellipse 57" cx="3.968" cy="3.968" r="3.968" transform="translate(23.809)" style="fill:url(#linear-gradient-2)"/>
                    <circle id="Ellipse_58" data-name="Ellipse 58" cx="3.968" cy="3.968" r="3.968" transform="translate(0 23.809)" style="fill:#06bee1"/>
                    <circle id="Ellipse_59" data-name="Ellipse 59" class="cls-1" cx="3.968" cy="3.968" r="3.968" transform="translate(11.905 23.809)"/>
                    <circle id="Ellipse_60" data-name="Ellipse 60" class="cls-1" cx="3.968" cy="3.968" r="3.968" transform="translate(23.809 23.809)"/>
                    <circle id="Ellipse_61" data-name="Ellipse 61" class="cls-1" cx="3.968" cy="3.968" r="3.968" transform="translate(0 11.905)"/>
                    <circle id="Ellipse_62" data-name="Ellipse 62" cx="3.968" cy="3.968" r="3.968" transform="translate(11.905 11.905)" style="fill:#ffd503"/>
                    <circle id="Ellipse_63" data-name="Ellipse 63" class="cls-1" cx="3.968" cy="3.968" r="3.968" transform="translate(23.809 11.905)"/>
                </g>
            </g>
        </g>
    </g>
</svg>
