<svg id="Icons-_-General-_-Sad" data-name="Icons-/-General-/-Sad" xmlns="http://www.w3.org/2000/svg" width="24" height="24" viewBox="0 0 24 24">
  <rect id="bound" width="24" height="24" fill="none"/>
  <rect id="Combined-Shape" width="20" height="20" rx="10" transform="translate(2 2)" opacity="0.3"/>
  <path id="Path-56" d="M6.168-14.555a1,1,0,0,0,.277,1.387,1,1,0,0,0,1.387-.277A4.894,4.894,0,0,1,12-16a4.894,4.894,0,0,1,4.168,2.555,1,1,0,0,0,1.387.277,1,1,0,0,0,.277-1.387A6.862,6.862,0,0,0,12-18,6.862,6.862,0,0,0,6.168-14.555Z" transform="translate(0 31)" fill-rule="evenodd"/>
</svg>
