<svg xmlns="http://www.w3.org/2000/svg" width="20.5" height="22.5" viewBox="0 0 20.5 22.5">
    <path data-name="Path 12891" d="M5.75 4.5A.755.755 0 0 1 5 3.75v-3a.75.75 0 0 1 1.5 0v3a.755.755 0 0 1-.75.75z"/>
    <path data-name="Path 12892" d="M13.75 4.5a.755.755 0 0 1-.75-.75v-3a.75.75 0 0 1 1.5 0v3a.755.755 0 0 1-.75.75z"/>
    <path data-name="Path 12893" d="M6.25 13.25a1.052 1.052 0 0 1-.71-.29 1.033 1.033 0 0 1-.29-.71 1 1 0 0 1 .08-.38 1.155 1.155 0 0 1 .21-.33 1 1 0 0 1 1.71.71 1.5 1.5 0 0 1-.02.2.636.636 0 0 1-.06.18.757.757 0 0 1-.09.18l-.12.15a1.052 1.052 0 0 1-.71.29z"/>
    <path data-name="Path 12894" d="M9.75 13.25a1 1 0 0 1-.38-.08.96.96 0 0 1-.62-.92 1 1 0 0 1 .08-.38 1.155 1.155 0 0 1 .21-.33 1.032 1.032 0 0 1 .33-.21 1.017 1.017 0 0 1 1.09.21 1.052 1.052 0 0 1 .29.71 1.5 1.5 0 0 1-.02.2.636.636 0 0 1-.06.18.757.757 0 0 1-.09.18 1.576 1.576 0 0 1-.12.15 1.052 1.052 0 0 1-.71.29z"/>
    <path data-name="Path 12895" d="M6.25 16.75a1 1 0 0 1-.38-.08.9.9 0 0 1-.54-.54.943.943 0 0 1 0-.76.9.9 0 0 1 .54-.54.956.956 0 0 1 .76 0 .9.9 0 0 1 .54.54.943.943 0 0 1 0 .76.9.9 0 0 1-.54.54 1 1 0 0 1-.38.08z"/>
    <path data-name="Path 12896" d="M18.25 8.59h-17a.75.75 0 0 1 0-1.5h17a.75.75 0 0 1 0 1.5z"/>
    <path data-name="Path 12897" d="M15.75 22.5a4.641 4.641 0 0 1-3.13-1.19 4.307 4.307 0 0 1-.94-1.12 4.7 4.7 0 0 1-.68-2.44 4.75 4.75 0 0 1 9.5 0 4.672 4.672 0 0 1-.69 2.45 4.734 4.734 0 0 1-4.06 2.3zm0-8a3.256 3.256 0 0 0-3.25 3.25 3.169 3.169 0 0 0 .47 1.67 2.938 2.938 0 0 0 .63.76 3.173 3.173 0 0 0 2.15.82A3.255 3.255 0 0 0 19 17.75a3.322 3.322 0 0 0-.81-2.15 3.263 3.263 0 0 0-2.44-1.1z"/>
    <path data-name="Path 12898" d="M15.18 19.49a.742.742 0 0 1-.53-.22l-.99-.99a.75.75 0 1 1 1.06-1.06l.48.48 1.6-1.48a.75.75 0 0 1 1.02 1.1l-2.13 1.97a.782.782 0 0 1-.51.2z"/>
    <path data-name="Path 12899" d="M13.12 21.5H5.75C2.1 21.5 0 19.4 0 15.75v-8.5C0 3.6 2.1 1.5 5.75 1.5h8c3.65 0 5.75 2.1 5.75 5.75v7.86a.753.753 0 0 1-1.32.49 3.252 3.252 0 0 0-5.69 2.15 3.169 3.169 0 0 0 .47 1.67 2.938 2.938 0 0 0 .63.76.744.744 0 0 1 .22.83.715.715 0 0 1-.69.49zM5.75 3C2.89 3 1.5 4.39 1.5 7.25v8.5C1.5 18.61 2.89 20 5.75 20h5.82a4.7 4.7 0 0 1-.57-2.25 4.745 4.745 0 0 1 7-4.18V7.25C18 4.39 16.61 3 13.75 3z"/>
</svg>
