<svg data-name="6" xmlns="http://www.w3.org/2000/svg" width="30.844" height="30.844" viewBox="0 0 30.844 30.844">
    <g data-name="Group 11189">
        <path d="M-11.656-5.828A15.422 15.422 0 0 1-27.078 9.594 15.422 15.422 0 0 1-42.5-5.828 15.423 15.423 0 0 1-27.078-21.25 15.422 15.422 0 0 1-11.656-5.828" transform="translate(42.5 21.25)" style="fill:#ffcc4d"/>
        <path d="M-1.714-1.2c0 1.754-1.015 3.175-2.268 3.175S-6.25.555-6.25-1.2s1.015-3.175 2.268-3.175S-1.714-2.953-1.714-1.2" transform="translate(13.507 15.261)" style="fill:#292f33"/>
        <path d="M-1.714-1.2c0 1.754-1.015 3.175-2.268 3.175S-6.25.555-6.25-1.2s1.015-3.175 2.268-3.175S-1.714-2.953-1.714-1.2" transform="translate(25.301 15.261)" style="fill:#292f33"/>
        <path d="M-5.142-.686h-12.7a.907.907 0 0 1-.907-.907.907.907 0 0 1 .907-.907h12.7a.906.906 0 0 1 .907.907.906.906 0 0 1-.907.907" transform="translate(26.915 23.365)" style="fill:#292f33"/>
    </g>
</svg>
