<svg data-name="10" xmlns="http://www.w3.org/2000/svg" width="30.747" height="30.747" viewBox="0 0 30.747 30.747">
    <defs>
        <clipPath id="jqvh1iu8ga">
            <path d="M0-47.5h30.747v30.747H0z" transform="translate(0 47.5)" style="fill:#cfcfd3"/>
        </clipPath>
    </defs>
    <g style="clip-path:url(#jqvh1iu8ga)">
        <path d="M-15.871-7.935A14.565 14.565 0 0 1-30.435 6.629 14.565 14.565 0 0 1-45-7.935 14.565 14.565 0 0 1-30.435-22.5 14.565 14.565 0 0 1-15.871-7.935" transform="translate(45.809 23.309)" style="fill:#ffcc4d"/>
        <path d="M-3.971-.374a28.051 28.051 0 0 1-5.963-.663c-.451-.087-1.325 0-1.325 1.325 0 2.651 3.045 5.963 7.288 5.963S3.317 2.938 3.317.288c0-1.325-.875-1.412-1.325-1.325a28.038 28.038 0 0 1-5.963.663" transform="translate(19.345 18.862)" style="fill:#292f33"/>
        <path d="M-7.153-1.374a3.779 3.779 0 0 0-4.819-2.306 3.776 3.776 0 0 0-2.369 2.512 3.774 3.774 0 0 0-3.418-.47 3.778 3.778 0 0 0-2.306 4.819 3.8 3.8 0 0 0 .382.775c1.579 2.9 6.14 4.936 8.9 4.961 2.133-1.753 4.407-6.2 3.817-9.448a3.813 3.813 0 0 0-.189-.843" transform="translate(21.434 4.838)" style="fill:#e75a70"/>
        <path d="M-.154-1.374A3.779 3.779 0 0 1 4.665-3.68a3.778 3.778 0 0 1 2.37 2.512 3.774 3.774 0 0 1 5.724 4.349 3.8 3.8 0 0 1-.383.775c-1.579 2.9-6.14 4.936-8.9 4.961C1.341 7.164-.931 2.716-.342-.531a3.857 3.857 0 0 1 .188-.843" transform="translate(16.619 4.838)" style="fill:#e75a70"/>
    </g>
</svg>
