<svg data-name="1" xmlns="http://www.w3.org/2000/svg" width="30.844" height="30.844" viewBox="0 0 30.844 30.844">
    <g data-name="Group 11185">
        <path d="M-11.656-5.828A15.422 15.422 0 0 1-27.078 9.594 15.422 15.422 0 0 1-42.5-5.828 15.423 15.423 0 0 1-27.078-21.25 15.422 15.422 0 0 1-11.656-5.828" transform="translate(42.5 21.25)" style="fill:#cfcfd3"/>
        <path d="M-5.137-1.5c-.041-.162-1.06-3.972-6.79-3.972s-6.75 3.81-6.79 3.972a.452.452 0 0 0 .217.5.458.458 0 0 0 .543-.07c.017-.017 1.773-1.684 6.032-1.684S-5.913-1.086-5.9-1.069a.458.458 0 0 0 .319.131A.458.458 0 0 0-5.354-1a.454.454 0 0 0 .217-.5" transform="translate(27.349 27.7)" style="fill:#292f33"/>
        <path d="M-3.328-1.129c-2.953-2.953-7.7-2.987-7.9-2.987a.906.906 0 0 0-.906.906.907.907 0 0 0 .905.908 12.636 12.636 0 0 1 3.613.669A3.706 3.706 0 0 0-8.5.873c0 1.754 1.015 3.175 2.268 3.175s2.263-1.42 2.263-3.175A4.235 4.235 0 0 0-4 .413c.012 0 .023.006.034.006a.9.9 0 0 0 .638-.265.906.906 0 0 0 0-1.283" transform="translate(16.67 15.909)" style="fill:#292f33"/>
        <path d="M-3.086 0c-.2 0-4.945.034-7.9 2.987a.906.906 0 0 0 0 1.283.9.9 0 0 0 .641.266c.012 0 .022-.006.033-.006-.015.151-.033.3-.033.46 0 1.754 1.015 3.175 2.268 3.175s2.268-1.421 2.268-3.175A3.706 3.706 0 0 0-6.7 2.483a12.635 12.635 0 0 1 3.614-.669.907.907 0 0 0 .9-.908.907.907 0 0 0-.9-.906" transform="translate(28.486 11.793)" style="fill:#292f33"/>
    </g>
</svg>
