<svg data-name="7" xmlns="http://www.w3.org/2000/svg" width="30.844" height="30.844" viewBox="0 0 30.844 30.844">
    <g data-name="Group 11190">
        <path d="M-14.156-7.078A15.422 15.422 0 0 1-29.578 8.344 15.422 15.422 0 0 1-45-7.078 15.422 15.422 0 0 1-29.578-22.5 15.422 15.422 0 0 1-14.156-7.078" transform="translate(45 22.5)" style="fill:#cfcfd3"/>
        <path d="M-4.326-.408a36.258 36.258 0 0 1-7.711-.857c-.582-.112-1.714 0-1.714 1.714 0 3.427 3.937 7.711 9.424 7.711S5.1 3.876 5.1.449c0-1.714-1.132-1.827-1.714-1.714a36.258 36.258 0 0 1-7.711.857" transform="translate(19.747 18.4)" style="fill:#292f33"/>
        <path d="M0-.786A1.678 1.678 0 0 1 1.714-2.5 1.678 1.678 0 0 1 3.427-.786V.927a1.678 1.678 0 0 1-1.713 1.714A1.678 1.678 0 0 1 0 .927z" transform="translate(8.568 11.924)" style="fill:#292f33"/>
        <path d="M0-.786A1.678 1.678 0 0 1 1.714-2.5 1.678 1.678 0 0 1 3.427-.786V.927a1.678 1.678 0 0 1-1.713 1.714A1.678 1.678 0 0 1 0 .927z" transform="translate(18.849 11.924)" style="fill:#292f33"/>
        <path d="M0 0a26.9 26.9 0 0 0 7.711.857A26.9 26.9 0 0 0 15.422 0s-1.714 3.427-7.711 3.427S0 0 0 0" style="fill:#fff" transform="translate(7.711 18.849)"/>
    </g>
</svg>
