<svg data-name="3" xmlns="http://www.w3.org/2000/svg" width="30.844" height="30.844" viewBox="0 0 30.844 30.844">
    <g data-name="Group 11187">
        <path d="M-14.156-7.078A15.422 15.422 0 0 1-29.578 8.344 15.422 15.422 0 0 1-45-7.078 15.422 15.422 0 0 1-29.578-22.5 15.422 15.422 0 0 1-14.156-7.078" transform="translate(45 22.5)" style="fill:#cfcfd3"/>
        <path d="M-3.146-2.359A7.625 7.625 0 0 1-9.91-6.26a.858.858 0 0 1 .384-1.15.858.858 0 0 1 1.148.38 5.913 5.913 0 0 0 5.232 2.957.857.857 0 0 1 .857.857.857.857 0 0 1-.857.857" transform="translate(27.993 10.927)" style="fill:#292f33"/>
        <path d="M-.393-2.357a.857.857 0 0 1-.857-.857.857.857 0 0 1 .857-.857c4.355 0 5.137-2.673 5.169-2.787a.862.862 0 0 1 1.044-.607.853.853 0 0 1 .615 1.032c-.042.166-1.085 4.076-6.828 4.076" transform="translate(6.391 10.925)" style="fill:#292f33"/>
        <path d="M-.394-3.146a.856.856 0 0 1-.686-.343.857.857 0 0 1 .171-1.2A15.577 15.577 0 0 1 4.965-7.2a11.505 11.505 0 0 0-4.5-1.086.857.857 0 0 1-.855-.858A.856.856 0 0 1 .462-10c.189 0 4.671.033 7.46 2.821a.857.857 0 0 1 .186.934.857.857 0 0 1-.792.529 13.457 13.457 0 0 0-7.2 2.4.854.854 0 0 1-.513.171" transform="translate(5.535 22.852)" style="fill:#292f33"/>
        <path d="M-3.932-3.145a.855.855 0 0 1-.512-.17 13.538 13.538 0 0 0-7.2-2.4.856.856 0 0 1-.792-.529.857.857 0 0 1 .186-.934C-9.458-9.966-4.977-10-4.788-10a.856.856 0 0 1 .856.856.857.857 0 0 1-.854.858A11.5 11.5 0 0 0-9.291-7.2a15.577 15.577 0 0 1 5.874 2.513.857.857 0 0 1 .172 1.2.859.859 0 0 1-.687.343" transform="translate(29.634 22.851)" style="fill:#292f33"/>
        <path d="M-5.88-2.474c-.1-.22-2.517-5.39-6.177-5.39-3.64 0-6.465 5.147-6.583 5.365a.428.428 0 0 0 .1.532.427.427 0 0 0 .275.1A.425.425 0 0 0-18-1.96a10.8 10.8 0 0 1 5.94-2.125 8.833 8.833 0 0 1 5.5 2.1.43.43 0 0 0 .543.034.427.427 0 0 0 .139-.526" transform="translate(27.689 28.855)" style="fill:#292f33"/>
    </g>
</svg>
