<svg xmlns="http://www.w3.org/2000/svg" width="19.098" height="24.555" viewBox="0 0 19.098 24.555">
    <path d="m15.117 7.307-.509.641zm-.272 0 .509.641zm-2.783 2.211-.509-.641zm5.84 0 .509-.641zM21.53 24.8a.818.818 0 0 0 0-1.637zM12.8 1.887h4.365V.25H12.8zm4.638.273v7.187h1.637V2.16zm-4.912 7.187V2.16h-1.637v7.187zm5.884-.47-2.784-2.211-1.018 1.282 2.784 2.211zm-4.073-2.211-2.784 2.211 1.018 1.282 2.784-2.211zm1.29 0a1.037 1.037 0 0 0-1.29 0l1.018 1.282a.6.6 0 0 1-.746 0zm-4.738 2.681a1.037 1.037 0 0 0 1.682.812l-1.018-1.282a.6.6 0 0 1 .973.47zm6.548 0a.6.6 0 0 1 .973-.47l-1.018 1.282a1.037 1.037 0 0 0 1.682-.812zm-.273-7.46a.273.273 0 0 1 .273.273h1.637a1.91 1.91 0 0 0-1.91-1.91zM12.8.25a1.91 1.91 0 0 0-1.91 1.91h1.637a.273.273 0 0 1 .273-.273zm7.912 5.184v12.55h1.637V5.434zM6.251 24.8h13.642v-1.632H6.251zm13.641 0h1.638v-1.632h-1.637zm0-6H6.251v1.637h13.642zM3.25 4.342V21.8h1.637V4.342zm16.643 19.644c.579.579.579.578.58.578l.008-.008.018-.019.043-.05a1.861 1.861 0 0 0 .111-.15 2.823 2.823 0 0 0 .267-.517 5.4 5.4 0 0 0 .331-2.009H19.62a3.8 3.8 0 0 1-.214 1.4 1.2 1.2 0 0 1-.109.217l-.013.018.009-.01.009-.009.006-.006s.006-.014.585.565zm1.364-2.186a5.4 5.4 0 0 0-.331-2.009 2.823 2.823 0 0 0-.267-.517 1.862 1.862 0 0 0-.111-.15l-.043-.05-.018-.019-.008-.008-.58.578-.58.578-.006-.006-.009-.009-.009-.01.013.018a1.2 1.2 0 0 1 .109.217 3.8 3.8 0 0 1 .214 1.4zm-18.007 0a3 3 0 0 0 3 3v-1.632A1.364 1.364 0 0 1 4.887 21.8zm1.637 0a1.364 1.364 0 0 1 1.364-1.364V18.8a3 3 0 0 0-3 3zm15.824-3.82a.819.819 0 0 1-.818.818v1.637a2.456 2.456 0 0 0 2.455-2.455zm1.637-12.55a4.092 4.092 0 0 0-4.092-4.092v1.64a2.455 2.455 0 0 1 2.455 2.455zM4.887 4.342a1.364 1.364 0 0 1 1.364-1.364V1.341a3 3 0 0 0-3 3zm1.364-1.364h5.457V1.341H6.251z" transform="translate(-3.25 -.25)" fill="currentColor"/>
</svg>
