<svg xmlns="http://www.w3.org/2000/svg" width="21.5" height="21.5" viewBox="0 0 21.5 21.5">
    <path data-name="Path 13381" d="M6.88 18.9a.755.755 0 0 1-.75-.75v-2.07a.75.75 0 0 1 1.5 0v2.07a.749.749 0 0 1-.75.75z" style="fill:#292d32" transform="translate(-1.25 -1.25)"/>
    <path data-name="Path 13382" d="M12 18.9a.755.755 0 0 1-.75-.75V14a.75.75 0 0 1 1.5 0v4.15a.749.749 0 0 1-.75.75z" style="fill:#292d32" transform="translate(-1.25 -1.25)"/>
    <path data-name="Path 13383" d="M17.12 18.9a.755.755 0 0 1-.75-.75v-6.22a.75.75 0 0 1 1.5 0v6.22a.743.743 0 0 1-.75.75z" style="fill:#292d32" transform="translate(-1.25 -1.25)"/>
    <path data-name="Path 13384" d="M6.88 13.18a.757.757 0 0 1-.73-.57.748.748 0 0 1 .55-.91 18.123 18.123 0 0 0 9.39-5.8l.46-.54a.752.752 0 1 1 1.14.98l-.46.54a19.513 19.513 0 0 1-10.17 6.28.554.554 0 0 1-.18.02z" style="fill:#292d32" transform="translate(-1.25 -1.25)"/>
    <path data-name="Path 13385" d="M17.12 9.52a.755.755 0 0 1-.75-.75V6.6h-2.18a.75.75 0 0 1 0-1.5h2.93a.755.755 0 0 1 .75.75v2.93a.741.741 0 0 1-.75.74z" style="fill:#292d32" transform="translate(-1.25 -1.25)"/>
    <path data-name="Path 13386" d="M15 22.75H9c-5.43 0-7.75-2.32-7.75-7.75V9c0-5.43 2.32-7.75 7.75-7.75h6c5.43 0 7.75 2.32 7.75 7.75v6c0 5.43-2.32 7.75-7.75 7.75zm-6-20C4.39 2.75 2.75 4.39 2.75 9v6c0 4.61 1.64 6.25 6.25 6.25h6c4.61 0 6.25-1.64 6.25-6.25V9c0-4.61-1.64-6.25-6.25-6.25z" style="fill:#292d32" transform="translate(-1.25 -1.25)"/>
</svg>
