<svg stroke="currentColor" data-name="8-alarm-clock" xmlns="http://www.w3.org/2000/svg" width="21.578" height="20.539" viewBox="0 0 21.578 20.539">
    <path data-name="Path 11557" d="M12 2.25a9.733 9.733 0 0 0-3.313.578l-1.156-.867a3.75 3.75 0 0 0-4.9.348l-.32.32a3.75 3.75 0 0 0-.348 4.9l.866 1.155a9.764 9.764 0 0 0 1.771 9.66L2.47 20.47a.75.75 0 0 0 1.06 1.06l2.126-2.13a9.751 9.751 0 0 0 12.687 0l2.127 2.13a.75.75 0 1 0 1.06-1.06l-2.13-2.126a9.764 9.764 0 0 0 1.768-9.657l.866-1.155a3.75 3.75 0 0 0-.348-4.9l-.32-.32a3.75 3.75 0 0 0-4.9-.348l-1.155.866A9.734 9.734 0 0 0 12 2.25zm-5.369.911a2.25 2.25 0 0 0-2.941.209l-.32.32a2.25 2.25 0 0 0-.209 2.941l.383.511a9.794 9.794 0 0 1 3.6-3.6zm13.825 3.982.383-.511a2.25 2.25 0 0 0-.209-2.941l-.32-.32a2.25 2.25 0 0 0-2.941-.209l-.511.383a9.794 9.794 0 0 1 3.598 3.598zM12 3.75a8.242 8.242 0 1 0 3.145.62A8.223 8.223 0 0 0 12 3.75z" transform="translate(-1.211 -1.211)" style="fill-rule:evenodd"/>
    <path data-name="Path 11558" d="M11.539 6.789a.75.75 0 0 0-1.5 0v4a.75.75 0 0 0 .3.6l4 3a.75.75 0 0 0 .9-1.2l-3.7-2.775z"/>
</svg>
