<svg xmlns="http://www.w3.org/2000/svg" width="20.004" height="16" viewBox="0 0 20.004 16">
  <g id="twitter" transform="translate(-2 -4)">
    <path id="Path_12950" data-name="Path 12950" d="M20,8V8l1.875-2.023a.48.48,0,0,0-.415-.8l-2.349.311a4,4,0,0,0-6.823,4.007C12.894,11,11.557,13.5,9,16c-1.135,1.11-4.054,1.411-6.442,1.193a.456.456,0,0,0-.4.785C4.163,19.636,6.941,20,9.5,20,16,20,20.5,14.5,20,8Z" fill="currentColor" opacity="0.25"/>
    <path id="Path_12951" data-name="Path 12951" d="M9,16A8.487,8.487,0,0,1,3.557,5.622a.484.484,0,0,1,.9-.006C6.208,9.086,9.769,9.5,12.5,9.5,18.5,9.5,17,18.4,9,16Z" fill="currentColor"/>
  </g>
</svg>
