<svg xmlns="http://www.w3.org/2000/svg" width="18" height="22" viewBox="0 0 18 22">
    <path data-name="Path 13535" d="M17 6a5 5 0 1 1-5-5 5 5 0 0 1 5 5z" style="fill:#121319" transform="translate(-3 -1)"/>
    <path data-name="Path 13536" d="M18.818 14.125a2 2 0 0 0-2.5-.225 9.014 9.014 0 0 1-8.63 0 2 2 0 0 0-2.5.225A8.965 8.965 0 0 0 3 20v1a2 2 0 0 0 2 2h14a2 2 0 0 0 2-2v-1a8.965 8.965 0 0 0-2.182-5.875z" style="fill:#191213;fill-rule:evenodd;opacity:.25" transform="translate(-3 -1)"/>
</svg>
