  <svg xmlns="http://www.w3.org/2000/svg" width="20.04" height="20">

    <g id="profile-2user" transform="translate(-1.961 -2)">
      <path
        id="Path_12809"
        data-name="Path 12809"
        class="cls-1a"
        d="M9 2a4.746 4.746 0 0 0-.12 9.49.807.807 0 0 1 .22 0h.07A4.746 4.746 0 0 0 9 2z"
      />
      <path
        id="Path_12810"
        data-name="Path 12810"
        class="cls-2b"
        d="M14.081 14.15a9.929 9.929 0 0 0-10.15 0 3.947 3.947 0 0 0-1.97 3.23 3.914 3.914 0 0 0 1.96 3.21A9.239 9.239 0 0 0 9 22a9.239 9.239 0 0 0 5.08-1.41 3.945 3.945 0 0 0 1.96-3.23 3.937 3.937 0 0 0-1.959-3.21z"
      />
      <path
        id="Path_12811"
        data-name="Path 12811"
        class="cls-1a"
        d="M19.991 7.34a3.579 3.579 0 0 1-3.13 3.87h-.05a.468.468 0 0 0-.17.02 3.588 3.588 0 0 1-2.53-.83 4.576 4.576 0 0 0 1.5-3.8 4.641 4.641 0 0 0-.77-2.18 3.59 3.59 0 0 1 5.15 2.92z"
      />
      <path
        id="Path_12812"
        data-name="Path 12812"
        class="cls-2b"
        d="M21.99 16.59a3.046 3.046 0 0 1-1.74 2.38 7.058 7.058 0 0 1-3.51.78 3.569 3.569 0 0 0 1.22-2.32 3.94 3.94 0 0 0-1.67-3.38 8.255 8.255 0 0 0-2.3-1.26 7.815 7.815 0 0 1 6.7 1.17 3.038 3.038 0 0 1 1.3 2.63z"
      />
    </g>
  </svg>