<svg xmlns="http://www.w3.org/2000/svg" width="21.943" height="19.113" viewBox="0 0 21.943 19.113">
    <path data-name="4-warning" d="M13.286 4.116a1.5 1.5 0 0 0-2.572 0L2.246 18.228A1.5 1.5 0 0 0 3.532 20.5h16.936a1.5 1.5 0 0 0 1.286-2.272zM9.856 3.6a2.5 2.5 0 0 1 4.287 0l8.468 14.113a2.5 2.5 0 0 1-2.143 3.787H3.532a2.5 2.5 0 0 1-2.144-3.786zM12 8.5a.5.5 0 0 1 .5.5v4a.5.5 0 0 1-1 0V9a.5.5 0 0 1 .5-.5zm0 7a.5.5 0 0 1 .5.5v1a.5.5 0 0 1-1 0v-1a.5.5 0 0 1 .5-.5z" transform="translate(-1.029 -2.387)" style="fill:#eca339;fill-rule:evenodd"/>
</svg>
