<svg xmlns="http://www.w3.org/2000/svg" width="21.512" height="21.512" viewBox="0 0 21.512 21.512">
    <path data-name="Path 13201" d="M12.756 23.512A10.756 10.756 0 1 0 2 12.756a10.756 10.756 0 0 0 10.756 10.756z" transform="translate(-2 -2)" style="opacity:.4;fill:#292d32"/>
    <path data-name="Path 13202" d="M8.141 15.937a.648.648 0 0 1-.28-.054A3.945 3.945 0 0 1 5.8 14.1a4.276 4.276 0 0 1 1.469-5.638L9.786 6.9a3.883 3.883 0 0 1 5.475 1.42 4.276 4.276 0 0 1-1.474 5.636l-.28.2a.809.809 0 1 1-.947-1.312l.333-.237a2.662 2.662 0 0 0 .957-3.506 2.3 2.3 0 0 0-1.42-1.119 2.239 2.239 0 0 0-1.785.28L8.13 9.828a2.653 2.653 0 0 0-.914 3.485 2.333 2.333 0 0 0 1.215 1.054A.792.792 0 0 1 8.9 15.4a.808.808 0 0 1-.759.537z" transform="translate(-1.752 -1.675)" style="fill:#292d32"/>
    <path data-name="Path 13203" d="M12.935 18.327a3.894 3.894 0 0 1-3.4-2.022 4.276 4.276 0 0 1 1.474-5.636l.28-.2a.809.809 0 1 1 .947 1.312l-.333.237a2.662 2.662 0 0 0-.957 3.506 2.3 2.3 0 0 0 1.42 1.119 2.239 2.239 0 0 0 1.785-.28l2.517-1.56a2.653 2.653 0 0 0 .914-3.485 2.333 2.333 0 0 0-1.215-1.054.8.8 0 1 1 .559-1.506 3.945 3.945 0 0 1 2.065 1.785 4.276 4.276 0 0 1-1.474 5.636L15 17.735a3.959 3.959 0 0 1-2.065.592z" transform="translate(-1.469 -1.494)" style="fill:#292d32"/>
</svg>
