<svg xmlns="http://www.w3.org/2000/svg" width="22" height="22" viewBox="0 0 22 22">
  <g id="compass" transform="translate(-1 -1)">
    <path id="Path_12952" data-name="Path 12952" d="M3,12A9,9,0,1,0,5.636,5.636,9,9,0,0,0,3,12Zm16.778,7.778A11,11,0,1,0,12,23,10.966,10.966,0,0,0,19.778,19.778Z" fill="#c3c3c5" fill-rule="evenodd"/>
    <path id="Path_12953" data-name="Path 12953" d="M10.461,10.564,6.617,16.971a.3.3,0,0,0,.412.412l6.407-3.844a.3.3,0,0,0,.1-.1l3.844-6.407a.3.3,0,0,0-.412-.412l-6.407,3.844A.3.3,0,0,0,10.461,10.564Zm2.246,2.143A1,1,0,1,0,12,13,1,1,0,0,0,12.707,12.707Z" fill="#12131a" fill-rule="evenodd"/>
  </g>
</svg>
