 <svg
    xmlns="http://www.w3.org/2000/svg"
width="18" height="20"
    viewBox="0 0 24.67 22.203"
  >
    <defs>
      <style>
        .cls-word {
          fill: #4d79ff;
        }
      </style>
    </defs>
    <g id="icons8-microsoft-word" transform="translate(-2 -3)">
      <path
        id="Path_10146"
        fill="#4d79ff"
        d="M15.335 23.736L3 21.269V6.467L15.335 4z"
        opacity="0.3"
        transform="translate(.234 .234)"
      />
      <path
        id="Path_10147"
        d="M24.853 5h-8.635v2.467h7.4v2.467h-7.4V12.4h7.4v2.467h-7.4v2.467h7.4V19.8h-7.4v2.467h8.635a1.234 1.234 0 0 0 1.234-1.234V6.234A1.234 1.234 0 0 0 24.853 5zM11.521 17.952H9.989l-1.024-4.616a6.7 6.7 0 0 1-.091-.966h-.021a7 7 0 0 1-.111.966L7.7 17.952H6.1L4.5 9.317h1.791l.574 4.053a7.273 7.273 0 0 1 .081.988h.031a6.492 6.492 0 0 1 .122-1.01l.733-4.031h2.178l.681 4.019a8.856 8.856 0 0 1 .1.921h.021c.01-.311.041-.633.081-.966l.556-3.974h1.684z"
        class="cls-word"
        fill="#4d79ff"
        transform="translate(.584 .467)"
      />
      <path
        id="Path_10148"
        d="M2 5.467v17.269L16.8 25.2V3zm12.335 16.824l-9.868-1.644V7.557l9.868-1.644z"
        class="cls-word"
      />
    </g>
  </svg>