<svg xmlns="http://www.w3.org/2000/svg" width="84.019" height="18.881" viewBox="0 0 84.019 18.881">
    <path data-name="Path 13512" d="M125.419 201.236a9.411 9.411 0 0 0-6.669-2.765h-.012a9.44 9.44 0 1 0 6.681 2.765zm-2.67 10.681a5.664 5.664 0 1 1 0-8.01 5.664 5.664 0 0 1 0 8.01z" transform="translate(-91.367 -198.471)" style="fill:#2d8cff;fill-rule:evenodd"/>
    <path data-name="Path 13513" d="M246.228 201.236a9.44 9.44 0 1 0 0 13.351 9.418 9.418 0 0 0 0-13.351zm-2.67 10.681a5.664 5.664 0 1 1 0-8.01 5.664 5.664 0 0 1 0 8.01z" transform="translate(-192.351 -198.471)" style="fill:#2d8cff;fill-rule:evenodd"/>
    <path data-name="Path 13514" d="m3.776 217.305.944.047h14.16l-.047-.943a2.915 2.915 0 0 0-2.785-2.786l-.944-.047h-8.5l11.328-11.328-.047-.943a2.855 2.855 0 0 0-2.785-2.786l-.944-.046H0l.047.943a2.929 2.929 0 0 0 2.784 2.784l.945.047h8.5L.944 213.576l.047.943a2.886 2.886 0 0 0 2.785 2.786z" transform="translate(0 -198.472)" style="fill:#2d8cff;fill-rule:evenodd"/>
    <path data-name="Path 13515" d="M361.742 204.134a4.08 4.08 0 0 1 .462 1.894l.047.944v6.608l.047.943a2.9 2.9 0 0 0 2.786 2.786l.943.047v-10.384l.047-.944a4.112 4.112 0 0 1 .465-1.9 3.777 3.777 0 0 1 6.534.012 4.139 4.139 0 0 1 .458 1.889l.047.943v6.609l.047.943a2.89 2.89 0 0 0 2.786 2.786l.943.047v-11.329a7.552 7.552 0 0 0-13.216-5 7.554 7.554 0 0 0-9.894-1.262 5.216 5.216 0 0 0-3.323-1.295v18.881l.944-.047a2.849 2.849 0 0 0 2.785-2.785l.047-.944v-6.608l.047-.944a4.118 4.118 0 0 1 .463-1.9 3.777 3.777 0 0 1 6.533 0z" transform="translate(-293.337 -198.475)" style="fill:#2d8cff;fill-rule:evenodd"/>
</svg>
